<svg xmlns="http://www.w3.org/2000/svg" xmlns:xlink="http://www.w3.org/1999/xlink" width="222.813" height="250.98" viewBox="0 0 222.813 250.98"><defs><style>.a,.bw{fill:#fff;}.b{fill:url(#a);}.c{fill:#f1f2f2;}.d{fill:url(#f);}.aa,.ab,.ac,.ad,.ae,.af,.ag,.ah,.ai,.aj,.ak,.al,.am,.an,.ao,.ap,.aq,.ar,.as,.at,.e,.ea,.f,.g,.h,.i,.j,.k,.l,.m,.n,.o,.p,.q,.r,.s,.t,.u,.v,.w,.x,.y,.z{fill:#006241;}.bw,.f{opacity:0;}.bx,.g{opacity:0.024;}.by,.h{opacity:0.049;}.bz,.i{opacity:0.073;}.ca,.j{opacity:0.098;}.cb,.k{opacity:0.122;}.cc,.l{opacity:0.146;}.cd,.m{opacity:0.171;}.ce,.n{opacity:0.195;}.cf,.o{opacity:0.22;}.cg,.p{opacity:0.244;}.ch,.q{opacity:0.268;}.ci,.r{opacity:0.293;}.cj,.s{opacity:0.317;}.ck,.t{opacity:0.341;}.cl,.u{opacity:0.366;}.cm,.v{opacity:0.39;}.cn,.w{opacity:0.415;}.co,.x{opacity:0.439;}.cp,.y{opacity:0.463;}.cq,.z{opacity:0.488;}.aa,.cr{opacity:0.512;}.ab,.cs{opacity:0.537;}.ac,.ct{opacity:0.561;}.ad,.cu{opacity:0.585;}.ae,.cv{opacity:0.61;}.af,.cw{opacity:0.634;}.ag,.cx{opacity:0.659;}.ah,.cy{opacity:0.683;}.ai,.cz{opacity:0.707;}.aj,.da{opacity:0.732;}.ak,.db{opacity:0.756;}.al,.dc{opacity:0.78;}.am,.dd{opacity:0.805;}.an,.de{opacity:0.829;}.ao,.df{opacity:0.854;}.ap,.dg{opacity:0.878;}.aq,.dh{opacity:0.902;}.ar,.di{opacity:0.927;}.as,.dj{opacity:0.951;}.at,.dk{opacity:0.976;}.au{fill:url(#g);}.av{fill:#f3f8fe;}.aw{fill:#99d0f1;}.ax{fill:#a5cbef;}.ay,.az,.ba,.bb{opacity:0.1;mix-blend-mode:multiply;isolation:isolate;}.ay{fill:url(#h);}.az{fill:url(#i);}.ba{fill:url(#j);}.bb{fill:url(#k);}.bc{fill:#669f87;}.bd{fill:url(#l);}.be{fill:url(#n);}.bf{fill:#c9e0f5;}.bg{opacity:0.4;fill:url(#o);}.bh{fill:#ffc107;}.bi{fill:url(#q);}.bj{fill:url(#r);}.bk{fill:#f6f9fc;}.bl{fill:#d1e1f2;}.bm{fill:#00422c;}.bn{fill:url(#s);}.bo{fill:url(#t);}.bp{fill:url(#u);}.bq{fill:url(#v);}.br{fill:url(#w);}.bs{fill:url(#x);}.bt{fill:url(#y);}.bu{fill:url(#z);}.bv{opacity:0.14;}.bx{fill:#f8faf9;}.by{fill:#f2f6f4;}.bz{fill:#ebf2ee;}.ca{fill:#e5eeea;}.cb{fill:#dfeae5;}.cc{fill:#d9e6e0;}.cd{fill:#d2e2da;}.ce{fill:#ccded6;}.cf{fill:#c6dbd1;}.cg{fill:#c0d7cc;}.ch{fill:#bad3c8;}.ci{fill:#b3cfc2;}.cj{fill:#adcbbe;}.ck{fill:#a7c7b9;}.cl{fill:#a1c3b4;}.cm{fill:#9abfaf;}.cn{fill:#94bbaa;}.co{fill:#8fb8a6;}.cp{fill:#89b4a1;}.cq{fill:#83b09d;}.cr{fill:#7cac98;}.cs{fill:#76a893;}.ct{fill:#70a58f;}.cu{fill:#6aa18a;}.cv{fill:#649d86;}.cw{fill:#5d9981;}.cx{fill:#57967d;}.cy{fill:#519278;}.cz{fill:#4a8e74;}.da{fill:#438a6f;}.db{fill:#3c866b;}.dc{fill:#358367;}.dd{fill:#2e7f63;}.de{fill:#257c5e;}.df{fill:#1a785a;}.dg{fill:#0d7456;}.dh{fill:#007052;}.di{fill:#006d4e;}.dj{fill:#006949;}.dk{fill:#006545;}.dl{fill:#edf5fc;}.dm{fill:#5d7dbe;}.dn{fill:#f9f7f9;}.do{fill:#ef9ea3;}.dp{fill:url(#aa);}.dq{fill:#ffc627;}.dr{fill:url(#ab);}.ds{fill:url(#ac);}.dt{fill:#231f20;opacity:0.3;}.du{fill:#f2b1b5;}.dv{fill:#333;}.dw{fill:#48486a;}.dx{fill:url(#ad);}.dy{fill:url(#ae);}.dz{fill:url(#af);}.ea{opacity:0.2;}.eb{filter:url(#d);}.ec{filter:url(#b);}</style><linearGradient id="a" x1="-0.14" y1="0.479" x2="0.987" y2="0.467" gradientUnits="objectBoundingBox"><stop offset="0" stop-color="#ffc107"/><stop offset="0.031" stop-color="#ffc107"/><stop offset="0.11" stop-color="#f9b809"/><stop offset="0.284" stop-color="#eaa011"/><stop offset="0.503" stop-color="#d27a1d"/><stop offset="0.754" stop-color="#b0452f"/><stop offset="1" stop-color="#8c0b42"/></linearGradient><filter id="b" x="0" y="16.917" width="222.813" height="222.813" filterUnits="userSpaceOnUse"><feOffset dx="-1" input="SourceAlpha"/><feGaussianBlur stdDeviation="1" result="c"/><feFlood flood-opacity="0.102"/><feComposite operator="in" in2="c"/><feComposite in="SourceGraphic"/></filter><filter id="d" x="21.738" y="45.406" width="181.614" height="185.614" filterUnits="userSpaceOnUse"><feOffset dy="13" input="SourceAlpha"/><feGaussianBlur stdDeviation="3" result="e"/><feFlood flood-opacity="0.369"/><feComposite operator="in" in2="e"/><feComposite in="SourceGraphic"/></filter><linearGradient id="f" x1="43.087" y1="12.407" x2="45.791" y2="14.643" gradientUnits="objectBoundingBox"><stop offset="0" stop-color="#fff"/><stop offset="1" stop-color="#222221"/></linearGradient><linearGradient id="g" x1="59.531" y1="0.823" x2="58.536" y2="0.092" gradientUnits="objectBoundingBox"><stop offset="0.038" stop-color="#a5cbef"/><stop offset="0.223" stop-color="#b9d6f2"/><stop offset="0.525" stop-color="#d3e6f7"/><stop offset="0.794" stop-color="#e4eff9"/><stop offset="1" stop-color="#eaf3fb"/></linearGradient><linearGradient id="h" x1="0.526" y1="-0.046" x2="0.466" y2="1.209" gradientUnits="objectBoundingBox"><stop offset="0.064" stop-color="#fff"/><stop offset="0.101" stop-color="#fffdf7"/><stop offset="0.158" stop-color="#fff7e1"/><stop offset="0.228" stop-color="#ffeebd"/><stop offset="0.309" stop-color="#ffe28b"/><stop offset="0.397" stop-color="#ffd24c"/><stop offset="0.485" stop-color="#ffc107"/><stop offset="0.5" stop-color="#ffc51a"/><stop offset="0.553" stop-color="#ffd456"/><stop offset="0.605" stop-color="#ffe189"/><stop offset="0.656" stop-color="#ffecb3"/><stop offset="0.706" stop-color="#fff4d4"/><stop offset="0.753" stop-color="#fffaec"/><stop offset="0.797" stop-color="#fffdfa"/><stop offset="0.834" stop-color="#fff"/></linearGradient><linearGradient id="i" x1="0.511" y1="-0.046" x2="0.486" y2="1.209" xlink:href="#h"/><linearGradient id="j" x1="0.515" y1="-0.046" x2="0.481" y2="1.209" xlink:href="#h"/><linearGradient id="k" x1="0.526" y1="-0.046" x2="0.467" y2="1.209" xlink:href="#h"/><linearGradient id="l" y1="0.5" x2="1" y2="0.5" gradientUnits="objectBoundingBox"><stop offset="0" stop-color="#006241"/><stop offset="1" stop-color="#498e73"/></linearGradient><linearGradient id="n" x1="0.488" y1="1.155" x2="0.551" y2="0.058" xlink:href="#l"/><linearGradient id="o" y1="0.5" x2="1" y2="0.5" gradientUnits="objectBoundingBox"><stop offset="0.144" stop-color="#ff9800"/><stop offset="0.73" stop-color="#f6cf2e"/></linearGradient><linearGradient id="q" x1="380.016" y1="0.5" x2="381.016" y2="0.5" gradientUnits="objectBoundingBox"><stop offset="0" stop-color="#f2f4fa"/><stop offset="0.866" stop-color="#d5e3f3"/><stop offset="1" stop-color="#d1e1f2"/></linearGradient><linearGradient id="r" x1="703.334" y1="0.984" x2="703.344" y2="0.442" gradientUnits="objectBoundingBox"><stop offset="0" stop-color="#f2f4fa"/><stop offset="0.916" stop-color="#d5dcee"/><stop offset="1" stop-color="#d3daed"/></linearGradient><linearGradient id="s" x1="-1.082" y1="1.75" x2="1.757" y2="-0.493" gradientUnits="objectBoundingBox"><stop offset="0.15" stop-color="#ff9800"/><stop offset="1" stop-color="#ffc107"/></linearGradient><linearGradient id="t" x1="-0.331" y1="1.023" x2="5.673" y2="-2.76" xlink:href="#s"/><linearGradient id="u" x1="-2.269" y1="2.245" x2="3.735" y2="-1.538" xlink:href="#s"/><linearGradient id="v" x1="-0.728" y1="1.019" x2="13.073" y2="-4.809" xlink:href="#s"/><linearGradient id="w" x1="-4.143" y1="2.46" x2="9.659" y2="-3.367" xlink:href="#s"/><linearGradient id="x" x1="-5.658" y1="3.1" x2="8.143" y2="-2.727" xlink:href="#s"/><linearGradient id="y" x1="-8.43" y1="4.27" x2="5.372" y2="-1.557" xlink:href="#s"/><linearGradient id="z" x1="-1.788" y1="2.307" x2="1.051" y2="0.065" xlink:href="#s"/><linearGradient id="aa" x1="2325.338" y1="0.5" x2="2326.338" y2="0.5" gradientUnits="objectBoundingBox"><stop offset="0" stop-color="#a8d9fb"/><stop offset="1" stop-color="#fff"/></linearGradient><linearGradient id="ab" x1="1146.182" y1="0.5" x2="1147.182" y2="0.5" xlink:href="#aa"/><linearGradient id="ac" x1="3627.234" y1="0.5" x2="3628.234" y2="0.5" xlink:href="#aa"/><linearGradient id="ad" y1="0.5" x2="1" y2="0.5" gradientUnits="objectBoundingBox"><stop offset="0" stop-color="#5d7dbe"/><stop offset="1" stop-color="#3c5185"/></linearGradient><linearGradient id="ae" x1="0" y1="0.5" x2="1" y2="0.5" xlink:href="#ad"/><linearGradient id="af" y1="0.5" x2="1" y2="0.5" gradientUnits="objectBoundingBox"><stop offset="0" stop-color="#fff"/><stop offset="0.093" stop-color="#f8fbfa"/><stop offset="0.218" stop-color="#e7f0ed"/><stop offset="0.361" stop-color="#cbdfd8"/><stop offset="0.518" stop-color="#a4c7bb"/><stop offset="0.686" stop-color="#72a896"/><stop offset="0.86" stop-color="#358369"/><stop offset="1" stop-color="#006241"/></linearGradient></defs><g transform="translate(-10.927 -1.055)"><path class="a" d="M753.707,425.267H620.947L641.9,174.287h64.78Z" transform="translate(-552.288 -173.233)"/><g transform="translate(13.107 0)"><g class="ec" transform="matrix(1, 0, 0, 1, -2.18, 1.05)"><ellipse class="b" cx="108.407" cy="108.407" rx="108.407" ry="108.407" transform="translate(220.81 19.92) rotate(90)"/></g></g><g transform="translate(0 13.747)"><g class="eb" transform="matrix(1, 0, 0, 1, 10.93, -12.69)"><ellipse class="c" cx="81.807" cy="81.807" rx="81.807" ry="81.807" transform="translate(30.74 45.41)"/></g><g transform="translate(38.584 29.63)"><path class="d" d="M748.09,337.965a84.849,84.849,0,1,1,24.892-60A84.617,84.617,0,0,1,748.09,337.965ZM632.452,222.327a78.688,78.688,0,1,0,55.641-23.085A78.48,78.48,0,0,0,632.452,222.327Z" transform="translate(-603.205 -193.078)"/></g></g><g transform="translate(30.916 21.399)"><path class="e" d="M633.955,240.236l-11.769-6.793a8.072,8.072,0,0,1-4.025-6.972v-8.183h.813v8.183a7.257,7.257,0,0,0,3.618,6.268l11.769,6.793Z" transform="translate(-578.663 -142.657)"/><path class="e" d="M634.974,239.727l-11.769-6.8a8.073,8.073,0,0,1-4.025-6.97v-8.183h.813v8.183a7.258,7.258,0,0,0,3.618,6.266l11.769,6.8Z" transform="translate(-577.513 -143.232)"/><path class="f" d="M775.5,245.619l-.313-.645a3.061,3.061,0,0,0-.881-1.043c-.068-.062-.149-.117-.224-.177-.047-.03-.081-.075-.13-.1l-.083-.049c-.092-.062-.166-.132-.27-.192l-55.037-31.775a8.083,8.083,0,0,0-7.283,0L606.385,272.2c-1.23.709-1.7,1.7-1.415,2.62l-.087.051v2a5.867,5.867,0,0,0,2.941,5.084l53.6,30.849a8.071,8.071,0,0,0,7.283,0l104.725-60.44A5.175,5.175,0,0,0,775.5,245.619Z" transform="translate(-593.645 -151.138)"/><path class="g" d="M774.935,245.5l-.311-.641a3.029,3.029,0,0,0-.877-1.036,2.74,2.74,0,0,0-.224-.177c-.045-.03-.079-.074-.128-.1l-.081-.047c-.094-.064-.168-.132-.27-.191L718.3,211.7a8.042,8.042,0,0,0-7.245,0L606.537,272.058c-1.221.707-1.688,1.688-1.409,2.607l-.085.049v1.99a5.834,5.834,0,0,0,2.924,5.057l53.315,30.687a8.033,8.033,0,0,0,7.247,0L772.877,252.21A5.149,5.149,0,0,0,774.935,245.5Z" transform="translate(-593.463 -151.063)"/><path class="h" d="M774.371,245.38l-.309-.636a3.045,3.045,0,0,0-.873-1.032c-.066-.06-.147-.117-.221-.175-.047-.03-.079-.074-.128-.1l-.081-.047c-.091-.062-.166-.13-.268-.189L718.038,211.76a8,8,0,0,0-7.2,0L606.692,271.918c-1.218.7-1.679,1.679-1.4,2.592l-.085.051v1.977a5.8,5.8,0,0,0,2.909,5.031l53.03,30.523a8,8,0,0,0,7.206,0l103.974-60.038A5.121,5.121,0,0,0,774.371,245.38Z" transform="translate(-593.281 -150.988)"/><path class="i" d="M773.806,245.263l-.306-.634a2.989,2.989,0,0,0-.868-1.026c-.066-.062-.145-.117-.219-.175-.047-.03-.081-.074-.128-.1l-.081-.047c-.092-.062-.164-.13-.266-.187l-54.16-31.27a7.961,7.961,0,0,0-7.168,0L606.844,271.777c-1.211.7-1.671,1.671-1.394,2.58l-.085.049v1.969a5.778,5.778,0,0,0,2.892,5L661,311.737a7.96,7.96,0,0,0,7.168,0l103.6-59.836A5.1,5.1,0,0,0,773.806,245.263Z" transform="translate(-593.1 -150.913)"/><path class="j" d="M773.241,245.144l-.3-.63a3.023,3.023,0,0,0-.862-1.022c-.066-.06-.147-.115-.221-.172-.045-.03-.079-.074-.125-.1l-.081-.047c-.089-.062-.164-.13-.264-.187l-53.868-31.1a7.92,7.92,0,0,0-7.13,0L607,271.636c-1.2.7-1.66,1.66-1.388,2.567l-.083.049v1.956a5.748,5.748,0,0,0,2.877,4.978l52.462,30.2a7.921,7.921,0,0,0,7.13,0l103.223-59.636A5.065,5.065,0,0,0,773.241,245.144Z" transform="translate(-592.918 -150.839)"/><path class="k" d="M772.678,245.024l-.3-.626a2.99,2.99,0,0,0-.858-1.015c-.066-.06-.145-.115-.219-.172-.045-.03-.079-.072-.126-.1l-.081-.047c-.09-.062-.162-.128-.262-.185l-53.577-30.932a7.863,7.863,0,0,0-7.089,0L607.149,271.5c-1.2.692-1.652,1.651-1.379,2.552l-.083.049v1.947a5.707,5.707,0,0,0,2.862,4.948l52.176,30.032a7.862,7.862,0,0,0,7.089,0l102.848-59.431A5.043,5.043,0,0,0,772.678,245.024Z" transform="translate(-592.737 -150.764)"/><path class="l" d="M772.114,244.907l-.3-.624a2.979,2.979,0,0,0-.854-1.009c-.066-.062-.145-.115-.217-.172-.045-.03-.079-.072-.125-.1l-.079-.045c-.091-.062-.164-.128-.262-.187L716.99,212.008a7.821,7.821,0,0,0-7.051,0L607.3,271.354c-1.19.687-1.643,1.643-1.37,2.539l-.083.047v1.937a5.679,5.679,0,0,0,2.845,4.923l51.893,29.868a7.822,7.822,0,0,0,7.051,0l102.474-59.231A5.01,5.01,0,0,0,772.114,244.907Z" transform="translate(-592.555 -150.689)"/><path class="m" d="M771.549,244.787l-.3-.619a2.945,2.945,0,0,0-.847-1c-.066-.06-.143-.115-.217-.17-.045-.03-.077-.072-.123-.1l-.079-.045c-.089-.062-.162-.128-.262-.185L716.727,212.07a7.781,7.781,0,0,0-7.013,0L607.454,271.214c-1.183.685-1.632,1.634-1.364,2.524l-.081.049v1.926a5.649,5.649,0,0,0,2.831,4.895l51.606,29.7a7.785,7.785,0,0,0,7.015,0l102.1-59.029A4.985,4.985,0,0,0,771.549,244.787Z" transform="translate(-592.373 -150.614)"/><path class="n" d="M770.984,244.668l-.3-.615a2.91,2.91,0,0,0-.843-1c-.064-.06-.142-.115-.215-.17-.044-.03-.077-.072-.123-.1l-.079-.047c-.09-.06-.16-.126-.26-.183l-52.7-30.426a7.74,7.74,0,0,0-6.974,0L607.609,271.075c-1.179.679-1.626,1.624-1.358,2.509l-.081.047v1.915a5.62,5.62,0,0,0,2.814,4.869l51.323,29.54a7.74,7.74,0,0,0,6.974,0L769,251.127A4.957,4.957,0,0,0,770.984,244.668Z" transform="translate(-592.192 -150.539)"/><path class="o" d="M770.42,244.548l-.3-.611a2.9,2.9,0,0,0-.838-.994c-.064-.057-.141-.113-.213-.168-.045-.03-.079-.072-.123-.1l-.079-.045c-.087-.062-.16-.126-.258-.183L716.2,212.192a7.7,7.7,0,0,0-6.936,0L607.761,270.934c-1.173.675-1.618,1.615-1.349,2.494l-.081.049v1.9a5.583,5.583,0,0,0,2.8,4.84L660.167,309.6a7.687,7.687,0,0,0,6.936,0l101.345-58.625A4.931,4.931,0,0,0,770.42,244.548Z" transform="translate(-592.01 -150.465)"/><path class="p" d="M769.855,244.431l-.3-.609a2.871,2.871,0,0,0-.834-.987c-.064-.06-.14-.113-.213-.168-.043-.03-.077-.072-.121-.1l-.079-.045c-.087-.06-.158-.126-.255-.181l-52.115-30.089a7.655,7.655,0,0,0-6.9,0l-101.133,58.54c-1.164.673-1.607,1.607-1.341,2.482l-.081.047v1.894a5.553,5.553,0,0,0,2.782,4.814l50.754,29.212a7.642,7.642,0,0,0,6.9,0L767.9,250.818A4.9,4.9,0,0,0,769.855,244.431Z" transform="translate(-591.828 -150.39)"/><path class="q" d="M769.291,244.312l-.294-.607a2.9,2.9,0,0,0-.83-.981c-.062-.057-.138-.111-.211-.166-.042-.03-.077-.07-.121-.1l-.079-.045c-.085-.06-.157-.123-.253-.179L715.68,212.315a7.614,7.614,0,0,0-6.857,0L608.067,270.653c-1.158.668-1.6,1.6-1.334,2.467l-.081.049v1.881a5.523,5.523,0,0,0,2.769,4.789l50.469,29.049a7.6,7.6,0,0,0,6.857,0l100.6-58.223A4.873,4.873,0,0,0,769.291,244.312Z" transform="translate(-591.648 -150.315)"/><path class="r" d="M768.727,244.192l-.291-.6a2.871,2.871,0,0,0-.826-.975c-.062-.057-.138-.111-.209-.166-.045-.03-.077-.07-.121-.1l-.077-.043c-.087-.06-.157-.123-.253-.179l-51.531-29.753a7.574,7.574,0,0,0-6.819,0L608.22,270.512c-1.151.664-1.588,1.588-1.326,2.454l-.081.047v1.873a5.5,5.5,0,0,0,2.754,4.761l50.184,28.885a7.574,7.574,0,0,0,6.819,0l100.22-58.023A4.845,4.845,0,0,0,768.727,244.192Z" transform="translate(-591.466 -150.24)"/><path class="s" d="M768.164,244.075l-.292-.6a2.843,2.843,0,0,0-.822-.97,2.4,2.4,0,0,0-.209-.164c-.043-.03-.075-.07-.119-.1l-.077-.045c-.087-.06-.155-.123-.251-.179L715.158,212.44a7.52,7.52,0,0,0-6.781,0l-100,57.931c-1.145.662-1.579,1.579-1.317,2.441l-.081.047v1.86a5.47,5.47,0,0,0,2.737,4.735l49.9,28.721a7.533,7.533,0,0,0,6.781,0l99.847-57.82A4.82,4.82,0,0,0,768.164,244.075Z" transform="translate(-591.285 -150.165)"/><path class="t" d="M767.6,243.955l-.289-.6a2.849,2.849,0,0,0-.815-.964c-.064-.057-.138-.111-.209-.164-.043-.03-.075-.07-.119-.1l-.076-.045c-.085-.057-.155-.121-.251-.177L714.9,212.5a7.479,7.479,0,0,0-6.742,0L608.525,270.23c-1.137.658-1.571,1.571-1.311,2.426l-.079.047v1.852a5.431,5.431,0,0,0,2.722,4.706l49.614,28.557a7.479,7.479,0,0,0,6.742,0L765.684,250.2A4.792,4.792,0,0,0,767.6,243.955Z" transform="translate(-591.103 -150.091)"/><path class="u" d="M767.035,243.838l-.287-.594a2.843,2.843,0,0,0-.811-.96c-.062-.055-.138-.108-.206-.164-.043-.028-.075-.068-.119-.094l-.077-.043c-.085-.06-.153-.121-.249-.177l-50.653-29.244a7.438,7.438,0,0,0-6.7,0L608.679,270.09c-1.132.653-1.562,1.562-1.3,2.413l-.079.045v1.841a5.4,5.4,0,0,0,2.705,4.68l49.331,28.393a7.439,7.439,0,0,0,6.7,0l99.094-57.416A4.766,4.766,0,0,0,767.035,243.838Z" transform="translate(-590.921 -150.016)"/><path class="v" d="M766.47,243.718l-.285-.59a2.833,2.833,0,0,0-.807-.953c-.062-.057-.136-.109-.206-.164-.043-.026-.072-.068-.117-.094l-.077-.043c-.083-.057-.153-.121-.247-.174L714.37,212.625a7.393,7.393,0,0,0-6.664,0l-98.875,57.324c-1.126.651-1.554,1.554-1.3,2.4l-.079.047v1.83a5.369,5.369,0,0,0,2.69,4.652l49.045,28.229a7.393,7.393,0,0,0,6.664,0l98.719-57.216A4.736,4.736,0,0,0,766.47,243.718Z" transform="translate(-590.74 -149.941)"/><path class="w" d="M765.905,243.6l-.285-.585a2.778,2.778,0,0,0-.8-.949c-.062-.055-.136-.106-.2-.162-.043-.026-.074-.066-.117-.091l-.074-.045c-.085-.058-.153-.119-.247-.172l-50.069-28.908a7.352,7.352,0,0,0-6.625,0l-98.5,57.122c-1.12.647-1.543,1.545-1.29,2.386l-.077.045v1.82a5.341,5.341,0,0,0,2.673,4.627l48.763,28.065a7.353,7.353,0,0,0,6.625,0l98.345-57.014A4.712,4.712,0,0,0,765.905,243.6Z" transform="translate(-590.558 -149.866)"/><path class="x" d="M765.34,243.482l-.283-.583a2.741,2.741,0,0,0-.8-.943c-.062-.055-.134-.106-.2-.16-.043-.028-.075-.068-.117-.094l-.075-.043c-.083-.057-.151-.119-.245-.172l-49.776-28.74a7.313,7.313,0,0,0-6.587,0L609.137,269.67c-1.113.641-1.535,1.535-1.281,2.369l-.077.047v1.809a5.3,5.3,0,0,0,2.658,4.6l48.475,27.9a7.3,7.3,0,0,0,6.589,0l97.968-56.812A4.678,4.678,0,0,0,765.34,243.482Z" transform="translate(-590.376 -149.792)"/><path class="y" d="M764.775,243.362l-.281-.579a2.712,2.712,0,0,0-.792-.936c-.06-.055-.134-.106-.2-.162-.041-.026-.072-.066-.115-.092l-.075-.043c-.083-.057-.151-.119-.243-.172l-49.484-28.57a7.271,7.271,0,0,0-6.549,0l-97.747,56.72c-1.1.639-1.526,1.526-1.273,2.356l-.077.045v1.8a5.27,5.27,0,0,0,2.643,4.571l48.19,27.738a7.258,7.258,0,0,0,6.549,0l97.593-56.609A4.654,4.654,0,0,0,764.775,243.362Z" transform="translate(-590.195 -149.717)"/><path class="z" d="M764.211,243.243l-.279-.575a2.705,2.705,0,0,0-.787-.932c-.06-.055-.132-.106-.2-.16-.04-.025-.072-.066-.115-.092l-.074-.043c-.083-.055-.149-.117-.241-.17l-49.193-28.4a7.231,7.231,0,0,0-6.51,0l-97.37,56.518c-1.1.634-1.516,1.515-1.266,2.343l-.074.045v1.788a5.242,5.242,0,0,0,2.626,4.544l47.907,27.574a7.218,7.218,0,0,0,6.51,0l97.219-56.409A4.625,4.625,0,0,0,764.211,243.243Z" transform="translate(-590.013 -149.642)"/><path class="aa" d="M763.649,243.123l-.279-.57a2.7,2.7,0,0,0-.783-.926c-.06-.055-.132-.106-.2-.16-.043-.026-.073-.066-.115-.089l-.074-.043c-.081-.055-.147-.117-.24-.17l-48.9-28.231a7.173,7.173,0,0,0-6.47,0L609.6,269.247c-1.094.63-1.509,1.507-1.26,2.328l-.077.045V273.4a5.215,5.215,0,0,0,2.614,4.518l47.622,27.41a7.191,7.191,0,0,0,6.472,0l96.842-56.207A4.6,4.6,0,0,0,763.649,243.123Z" transform="translate(-589.832 -149.567)"/><path class="ab" d="M763.085,243.006l-.277-.568a2.688,2.688,0,0,0-.779-.922c-.06-.053-.13-.1-.2-.158-.041-.026-.07-.066-.113-.089l-.072-.043c-.083-.055-.149-.117-.24-.168L712.8,213a7.132,7.132,0,0,0-6.432,0L609.75,269.107c-1.088.628-1.5,1.5-1.251,2.316l-.077.043v1.767a5.183,5.183,0,0,0,2.6,4.491l47.339,27.248a7.144,7.144,0,0,0,6.431,0l96.468-56.007A4.573,4.573,0,0,0,763.085,243.006Z" transform="translate(-589.651 -149.492)"/><path class="ac" d="M762.52,242.886l-.275-.564a2.655,2.655,0,0,0-.775-.915c-.057-.055-.13-.1-.2-.158-.041-.026-.07-.064-.113-.089l-.072-.04c-.081-.055-.147-.117-.239-.168l-48.314-27.895a7.1,7.1,0,0,0-6.4,0L609.9,268.966c-1.079.624-1.49,1.49-1.245,2.3l-.074.045v1.756a5.153,5.153,0,0,0,2.582,4.463l47.054,27.082a7.091,7.091,0,0,0,6.393,0l96.091-55.8A4.546,4.546,0,0,0,762.52,242.886Z" transform="translate(-589.469 -149.418)"/><path class="ad" d="M761.955,242.767l-.272-.56a2.646,2.646,0,0,0-.768-.911c-.06-.053-.13-.1-.2-.155-.041-.026-.07-.064-.113-.089l-.072-.04c-.081-.055-.147-.115-.236-.166l-48.022-27.727a7.05,7.05,0,0,0-6.355,0l-95.865,55.707c-1.073.619-1.481,1.481-1.237,2.288l-.074.043V272.9a5.121,5.121,0,0,0,2.565,4.437l46.768,26.918a7.055,7.055,0,0,0,6.357,0l95.716-55.6A4.517,4.517,0,0,0,761.955,242.767Z" transform="translate(-589.287 -149.343)"/><path class="ae" d="M761.39,242.649l-.27-.558a2.637,2.637,0,0,0-.764-.9c-.059-.053-.13-.1-.2-.155-.04-.025-.07-.064-.111-.087l-.072-.043c-.081-.053-.145-.113-.234-.166l-47.73-27.557a7.01,7.01,0,0,0-6.317,0l-95.488,55.5c-1.066.617-1.471,1.473-1.228,2.273l-.074.045v1.735a5.09,5.09,0,0,0,2.55,4.41L657.938,303.9a7.01,7.01,0,0,0,6.317,0L759.6,248.5A4.488,4.488,0,0,0,761.39,242.649Z" transform="translate(-589.106 -149.268)"/><path class="af" d="M760.826,242.53l-.268-.553a2.654,2.654,0,0,0-.76-.9c-.057-.053-.128-.1-.194-.153-.04-.026-.07-.064-.111-.087l-.072-.04c-.079-.055-.143-.115-.232-.166L711.75,213.241a6.965,6.965,0,0,0-6.276,0l-95.114,55.3c-1.06.613-1.462,1.464-1.219,2.26l-.075.043v1.724a5.055,5.055,0,0,0,2.535,4.382l46.2,26.593a6.97,6.97,0,0,0,6.278,0l94.965-55.2A4.46,4.46,0,0,0,760.826,242.53Z" transform="translate(-588.924 -149.193)"/><path class="ag" d="M760.261,242.411l-.266-.551a2.633,2.633,0,0,0-.755-.892c-.057-.053-.128-.1-.192-.153-.04-.026-.07-.064-.111-.087l-.072-.04c-.079-.053-.143-.113-.23-.164L711.488,213.3a6.925,6.925,0,0,0-6.238,0l-94.737,55.1c-1.051.607-1.453,1.451-1.213,2.243l-.072.045v1.713a5.024,5.024,0,0,0,2.518,4.354l45.915,26.429a6.924,6.924,0,0,0,6.238,0l94.593-55A4.437,4.437,0,0,0,760.261,242.411Z" transform="translate(-588.743 -149.119)"/><path class="ah" d="M759.7,242.293l-.266-.549a2.6,2.6,0,0,0-.749-.888c-.058-.051-.126-.1-.192-.151-.038-.025-.068-.064-.109-.087l-.07-.04c-.079-.053-.143-.111-.23-.162l-46.854-27.052a6.888,6.888,0,0,0-6.2,0l-94.358,54.9c-1.047.6-1.445,1.443-1.207,2.23l-.072.043v1.7a5,5,0,0,0,2.5,4.329l45.63,26.263a6.871,6.871,0,0,0,6.2,0l94.216-54.8A4.405,4.405,0,0,0,759.7,242.293Z" transform="translate(-588.561 -149.044)"/><path class="ai" d="M759.133,242.174l-.266-.545a2.559,2.559,0,0,0-.745-.881c-.058-.053-.126-.1-.189-.151-.038-.026-.068-.062-.109-.085l-.07-.04c-.079-.053-.142-.113-.23-.162l-46.56-26.882a6.829,6.829,0,0,0-6.161,0l-93.984,54.7c-1.041.6-1.437,1.434-1.2,2.218l-.072.042v1.692a4.964,4.964,0,0,0,2.486,4.3l45.347,26.1a6.83,6.83,0,0,0,6.161,0l93.839-54.594A4.383,4.383,0,0,0,759.133,242.174Z" transform="translate(-588.379 -148.969)"/><path class="aj" d="M758.569,242.054l-.264-.541a2.559,2.559,0,0,0-.741-.877c-.055-.051-.123-.1-.187-.149-.04-.026-.068-.062-.108-.085l-.07-.04c-.077-.053-.141-.111-.228-.162L710.7,213.489a6.789,6.789,0,0,0-6.123,0l-93.607,54.494c-1.034.6-1.426,1.426-1.192,2.2l-.07.043v1.681a4.926,4.926,0,0,0,2.471,4.274L657.24,302.12a6.8,6.8,0,0,0,6.123,0l93.464-54.394A4.351,4.351,0,0,0,758.569,242.054Z" transform="translate(-588.198 -148.894)"/><path class="ak" d="M758.005,241.937l-.262-.538a2.547,2.547,0,0,0-.736-.87c-.055-.051-.123-.1-.187-.149-.038-.026-.066-.062-.106-.085l-.07-.04c-.077-.051-.138-.109-.226-.16L710.441,213.55a6.749,6.749,0,0,0-6.085,0l-93.23,54.292c-1.028.594-1.417,1.417-1.183,2.19l-.072.04v1.671a4.905,4.905,0,0,0,2.456,4.248L657.1,301.764a6.762,6.762,0,0,0,6.085,0l93.09-54.192A4.325,4.325,0,0,0,758.005,241.937Z" transform="translate(-588.017 -148.819)"/><path class="al" d="M757.44,241.817l-.26-.534a2.515,2.515,0,0,0-.732-.864,2.206,2.206,0,0,0-.185-.149c-.038-.026-.068-.062-.106-.085l-.07-.038c-.077-.053-.138-.111-.224-.16l-45.685-26.375a6.7,6.7,0,0,0-6.044,0L611.278,267.7c-1.019.589-1.409,1.409-1.175,2.175l-.072.043v1.66a4.872,4.872,0,0,0,2.441,4.22l44.491,25.607a6.708,6.708,0,0,0,6.046,0l92.713-53.989A4.3,4.3,0,0,0,757.44,241.817Z" transform="translate(-587.835 -148.745)"/><path class="am" d="M756.876,241.7l-.258-.53a2.525,2.525,0,0,0-.725-.86c-.058-.051-.124-.1-.185-.147-.038-.023-.068-.062-.106-.083l-.068-.04c-.076-.051-.138-.109-.223-.157l-45.392-26.207a6.667,6.667,0,0,0-6.008,0L611.43,267.56c-1.013.585-1.4,1.4-1.168,2.162l-.07.04v1.649a4.843,4.843,0,0,0,2.426,4.195l44.206,25.443a6.663,6.663,0,0,0,6.006,0l92.339-53.787A4.271,4.271,0,0,0,756.876,241.7Z" transform="translate(-587.654 -148.67)"/><path class="an" d="M756.311,241.581l-.255-.528a2.489,2.489,0,0,0-.722-.853c-.055-.051-.123-.1-.185-.147-.038-.023-.066-.062-.1-.083l-.068-.038c-.077-.053-.138-.109-.221-.157l-45.1-26.039a6.623,6.623,0,0,0-5.968,0l-92.1,53.685c-1.009.581-1.392,1.392-1.162,2.147l-.07.043v1.639a4.806,4.806,0,0,0,2.409,4.165L656.685,300.7a6.623,6.623,0,0,0,5.968,0l91.964-53.587A4.242,4.242,0,0,0,756.311,241.581Z" transform="translate(-587.472 -148.595)"/><path class="ao" d="M755.746,241.461l-.253-.524a2.51,2.51,0,0,0-.717-.849c-.055-.049-.121-.1-.183-.145-.038-.023-.066-.06-.1-.083l-.068-.038c-.074-.051-.136-.109-.219-.155L709.393,213.8a6.581,6.581,0,0,0-5.929,0l-91.726,53.483c-1,.579-1.381,1.381-1.154,2.135l-.07.04v1.628a4.774,4.774,0,0,0,2.394,4.139l43.636,25.118a6.586,6.586,0,0,0,5.931,0l91.587-53.385A4.216,4.216,0,0,0,755.746,241.461Z" transform="translate(-587.29 -148.52)"/><path class="ap" d="M755.182,241.342l-.251-.519a2.478,2.478,0,0,0-.713-.843c-.055-.051-.121-.1-.181-.145-.038-.023-.066-.06-.1-.083l-.068-.038c-.075-.051-.134-.106-.217-.155l-44.517-25.7a6.541,6.541,0,0,0-5.891,0L611.89,267.138c-.994.575-1.373,1.373-1.147,2.12l-.068.043v1.617a4.746,4.746,0,0,0,2.377,4.112L656.4,299.981a6.528,6.528,0,0,0,5.891,0L753.509,246.8A4.186,4.186,0,0,0,755.182,241.342Z" transform="translate(-587.109 -148.446)"/><path class="aq" d="M754.619,241.224l-.251-.517a2.47,2.47,0,0,0-.709-.839c-.053-.049-.119-.094-.181-.143-.036-.023-.064-.06-.1-.083l-.068-.036c-.072-.051-.134-.106-.217-.155l-44.223-25.531a6.483,6.483,0,0,0-5.851,0L612.043,267c-.987.57-1.364,1.362-1.139,2.1l-.068.04v1.607a4.717,4.717,0,0,0,2.362,4.086l43.068,24.788a6.487,6.487,0,0,0,5.853,0l90.836-52.981A4.16,4.16,0,0,0,754.619,241.224Z" transform="translate(-586.927 -148.371)"/><path class="ar" d="M754.054,241.1l-.249-.513a2.438,2.438,0,0,0-.7-.832c-.053-.049-.119-.1-.179-.143-.036-.023-.064-.06-.1-.081l-.066-.038c-.075-.051-.134-.106-.217-.153l-43.929-25.362a6.447,6.447,0,0,0-5.814,0l-90.6,52.877c-.981.566-1.354,1.354-1.13,2.092l-.068.038v1.6a4.677,4.677,0,0,0,2.345,4.056l42.784,24.626a6.446,6.446,0,0,0,5.814,0L752.4,246.489A4.133,4.133,0,0,0,754.054,241.1Z" transform="translate(-586.745 -148.296)"/><path class="as" d="M753.489,240.985l-.249-.509a2.4,2.4,0,0,0-.7-.828c-.053-.049-.117-.094-.177-.141-.038-.023-.066-.06-.1-.081l-.066-.038c-.074-.049-.134-.1-.215-.151l-43.638-25.194a6.406,6.406,0,0,0-5.776,0l-90.221,52.674c-.975.562-1.345,1.345-1.122,2.077l-.068.04v1.586a4.648,4.648,0,0,0,2.33,4.031l42.5,24.462a6.4,6.4,0,0,0,5.774,0l90.087-52.578A4.108,4.108,0,0,0,753.489,240.985Z" transform="translate(-586.564 -148.221)"/><path class="at" d="M752.925,240.868l-.247-.507a2.394,2.394,0,0,0-.694-.821c-.053-.049-.117-.094-.177-.14-.036-.023-.064-.06-.1-.081l-.066-.036c-.072-.051-.132-.1-.213-.151l-43.346-25.026a6.361,6.361,0,0,0-5.736,0L612.5,266.577c-.968.558-1.337,1.337-1.115,2.064l-.066.038v1.575a4.623,4.623,0,0,0,2.313,4.005l42.214,24.3a6.378,6.378,0,0,0,5.738,0l89.71-52.378A4.076,4.076,0,0,0,752.925,240.868Z" transform="translate(-586.382 -148.146)"/><path class="e" d="M752.361,240.748l-.245-.5a2.385,2.385,0,0,0-.69-.817c-.051-.047-.115-.092-.175-.138-.036-.023-.064-.057-.1-.081l-.066-.036c-.072-.049-.13-.1-.211-.149l-43.055-24.858a6.32,6.32,0,0,0-5.7,0l-89.468,52.27c-.962.555-1.328,1.328-1.109,2.049l-.068.04v1.564a4.594,4.594,0,0,0,2.3,3.978L655.708,298.2a6.324,6.324,0,0,0,5.7,0l89.336-52.174A4.052,4.052,0,0,0,752.361,240.748Z" transform="translate(-586.202 -148.072)"/><path class="au" d="M606.783,273.362v-1.947L710.659,210.4c1.952-1.128,4.246-1.815,6.2-.69l54.537,31.311a2.985,2.985,0,0,1,1.2,1.288l.3.626a5.04,5.04,0,0,1-2.013,6.568L668.922,308.348a7.867,7.867,0,0,1-7.091,0l-52.185-30.036A5.713,5.713,0,0,1,606.783,273.362Z" transform="translate(-591.5 -152.983)"/><path class="av" d="M608.245,272.974c-1.949-1.126-1.949-2.967,0-4.093l102.127-58.963a7.862,7.862,0,0,1,7.089,0l53.585,30.938c1.952,1.126,1.952,2.967,0,4.093L668.922,303.913a7.867,7.867,0,0,1-7.091,0Z" transform="translate(-591.5 -153.052)"/><path class="aw" d="M609.275,272.11c-1.877-1.085-1.877-2.858,0-3.941l99.883-57.652a7.573,7.573,0,0,1,6.825,0l9.367,5.55a.91.91,0,0,1,.064,1.53l-1.034.726a1.037,1.037,0,0,0,0,1.794l25.49,14.627a2.252,2.252,0,0,0,2.2.032l2.213-1.192a1.662,1.662,0,0,1,1.62.023l11.667,6.691c1.877,1.085,1.877,2.858,0,3.941l-99.881,57.652a7.579,7.579,0,0,1-6.828,0Z" transform="translate(-590.276 -152.341)"/><path class="ax" d="M678.014,222.552a.3.3,0,0,1-.157-.043l-11.242-6.474a.316.316,0,0,1,.317-.547l11.239,6.474a.317.317,0,0,1,.117.432A.321.321,0,0,1,678.014,222.552Z" transform="translate(-524.171 -145.863)"/><rect class="ay" width="4.525" height="87.079" transform="translate(65.943 28.963)"/><rect class="az" width="8.94" height="72.406" transform="translate(72.982 26.885)"/><rect class="ba" width="7.381" height="80.483" transform="translate(109.136 26.885)"/><rect class="bb" width="4.525" height="85.02" transform="translate(119.815 30.22)"/><path class="a" d="M654.733,230.863H641.876l.028,6.255a3.178,3.178,0,0,0,1.869,2.616,10.107,10.107,0,0,0,9.081,0,3.175,3.175,0,0,0,1.879-2.616h.023Z" transform="translate(-551.906 -128.469)"/><path class="a" d="M659.69,290.615l3.907-15.734a164.8,164.8,0,0,0,4.765-31.858q.051-1.066.089-2.1a103.635,103.635,0,0,0-11.031-50.133l-4.02-8.034h-.632l-4.022,8.034a103.609,103.609,0,0,0-11.029,50.133q.038,1.038.09,2.1a164.81,164.81,0,0,0,4.763,31.858l3.91,15.734Z" transform="translate(-556.674 -182.751)"/><path class="bc" d="M649.007,215.777l-13.275,11.475-6.468,40.725L655.041,246.6l-5.133-29.925Z" transform="translate(-566.135 -145.489)"/><path class="bd" d="M649.907,216.2l-13.275,11.475L629.264,267.5l26.677-20.475Z" transform="translate(-566.135 -145.012)"/><path class="bc" d="M654.327,215.777,667.6,227.252l6.468,40.725L648.294,246.6l5.133-29.925Z" transform="translate(-544.665 -145.489)"/><path class="bd" d="M653.9,216.2l13.275,11.475,7.368,39.824-26.676-20.475Z" transform="translate(-545.142 -145.012)"/><path class="be" d="M659.373,202.8a106.078,106.078,0,0,0-5.116-12.016l-4.022-8.034H649.6l-4.022,8.034a106.188,106.188,0,0,0-5.123,12.031A35.429,35.429,0,0,0,659.373,202.8Z" transform="translate(-553.507 -182.751)"/><path class="a" d="M638.436,213.589c-.2-.117-.387-.243-.575-.366.057.732.123,1.46.192,2.19a34.028,34.028,0,0,0,29.591-.019c.066-.73.134-1.46.19-2.19-.2.13-.394.26-.609.383C659.265,218.159,646.35,218.159,638.436,213.589Z" transform="translate(-556.436 -148.392)"/><path class="a" d="M657.432,208.626a8.276,8.276,0,0,1-16.322,0,8.209,8.209,0,1,1,16.322,0Z" transform="translate(-552.86 -163.825)"/><path class="ax" d="M655.344,207.737a6.9,6.9,0,0,1-13.6,0,6.841,6.841,0,1,1,13.6,0Z" transform="translate(-552.132 -163.118)"/><path class="bf" d="M648.573,200.153l-6.893,6.893a6.378,6.378,0,0,0,.059.69,6.519,6.519,0,0,0,1.852,3.682l9.564-9.562A6.9,6.9,0,0,0,648.573,200.153Z" transform="translate(-552.128 -163.117)"/><path class="bf" d="M653.328,202.718a6.531,6.531,0,0,0-.868-1.39l-9.486,9.486a7.109,7.109,0,0,0,1.449.811Z" transform="translate(-550.667 -161.791)"/><path class="a" d="M656.72,231.144a6.059,6.059,0,0,1-1.8,1.5,14.3,14.3,0,0,1-12.891,0c-.243-.143-.464-.292-.675-.443l.315,1.268a15.309,15.309,0,0,0,13.7-.047,8.621,8.621,0,0,0,.947-.639Z" transform="translate(-552.495 -128.151)"/><path class="bg" d="M693.221,203.156a59.711,59.711,0,0,0-14.9-4.1l.153.739a58.146,58.146,0,0,1,14.291,3.967c7.144,3.146,11.08,7.325,11.08,11.769s-3.935,8.624-11.08,11.769c-14.994,6.6-39.322,6.6-54.23,0-7.106-3.148-11.018-7.328-11.018-11.771s3.912-8.624,11.018-11.769a57.3,57.3,0,0,1,13.891-3.912l.289-.762a58.905,58.905,0,0,0-14.638,4.065c-7.4,3.278-11.475,7.672-11.475,12.378s4.076,9.1,11.475,12.378c7.581,3.356,17.554,5.035,27.54,5.035s19.982-1.679,27.6-5.035c7.443-3.277,11.539-7.672,11.539-12.378S700.663,206.433,693.221,203.156Z" transform="translate(-569.139 -164.351)"/><path class="bh" d="M630.069,208.9a2.019,2.019,0,1,1-2.018-2.018A2.018,2.018,0,0,1,630.069,208.9Z" transform="translate(-569.782 -155.527)"/><path class="bh" d="M636.216,213.961a1.517,1.517,0,1,1-1.517-1.517A1.517,1.517,0,0,1,636.216,213.961Z" transform="translate(-561.716 -149.25)"/><path class="bh" d="M650.753,215.1a.983.983,0,1,1-.983-.983A.984.984,0,0,1,650.753,215.1Z" transform="translate(-544.11 -147.358)"/><path class="bg" d="M684.008,197.458a48.454,48.454,0,0,0-12.071-3.318l.123.6a47.209,47.209,0,0,1,11.578,3.214c5.789,2.55,8.977,5.936,8.977,9.535s-3.188,6.987-8.977,9.537c-12.146,5.348-31.856,5.348-43.936,0-5.757-2.55-8.926-5.936-8.926-9.537s3.169-6.985,8.926-9.535a46.317,46.317,0,0,1,11.254-3.169l.236-.617a47.691,47.691,0,0,0-11.861,3.295c-6,2.654-9.3,6.215-9.3,10.026s3.3,7.374,9.3,10.028c6.142,2.72,14.221,4.08,22.313,4.08s16.188-1.36,22.364-4.08c6.029-2.654,9.349-6.214,9.349-10.028S690.037,200.114,684.008,197.458Z" transform="translate(-565.268 -169.901)"/><path class="bh" d="M638.216,206.337a1.636,1.636,0,1,1-1.637-1.637A1.635,1.635,0,0,1,638.216,206.337Z" transform="translate(-559.726 -157.987)"/><path class="bh" d="M651.591,207.245a1.229,1.229,0,1,1-1.23-1.23A1.229,1.229,0,0,1,651.591,207.245Z" transform="translate(-543.718 -156.503)"/><path class="bh" d="M659.245,203.747a.8.8,0,1,1-.8-.8A.8.8,0,0,1,659.245,203.747Z" transform="translate(-534.108 -159.963)"/><path class="bh" d="M659.938,222.677a.386.386,0,1,1-.387-.385A.387.387,0,0,1,659.938,222.677Z" transform="translate(-532.4 -138.139)"/><path class="bh" d="M653.026,197.154a.386.386,0,1,1-.387-.385A.386.386,0,0,1,653.026,197.154Z" transform="translate(-540.198 -166.935)"/><ellipse class="bh" cx="0.387" cy="0.387" rx="0.387" ry="0.387" transform="translate(129.405 51.348)"/><path class="bh" d="M634.3,240.691a.386.386,0,1,1-.387-.387A.387.387,0,0,1,634.3,240.691Z" transform="translate(-561.321 -117.817)"/><path class="bh" d="M655.26,215.981a.386.386,0,1,1-.387-.385A.386.386,0,0,1,655.26,215.981Z" transform="translate(-537.678 -145.693)"/><path class="bh" d="M659.172,211.731a.387.387,0,1,1-.388-.387A.387.387,0,0,1,659.172,211.731Z" transform="translate(-533.266 -150.491)"/><path class="bh" d="M653.207,238.3a.386.386,0,1,1-.385-.385A.386.386,0,0,1,653.207,238.3Z" transform="translate(-539.994 -120.51)"/><path class="bh" d="M651.16,228.063a.386.386,0,1,1-.387-.385A.386.386,0,0,1,651.16,228.063Z" transform="translate(-542.302 -132.062)"/><path class="bh" d="M655.078,206.623a.386.386,0,1,1-.385-.387A.387.387,0,0,1,655.078,206.623Z" transform="translate(-537.883 -156.254)"/><path class="bh" d="M637.806,220.407a.387.387,0,1,1-.387-.385A.387.387,0,0,1,637.806,220.407Z" transform="translate(-557.372 -140.7)"/><path class="bh" d="M655.441,198.2a.386.386,0,1,1-.385-.387A.385.385,0,0,1,655.441,198.2Z" transform="translate(-537.473 -165.753)"/><path class="bh" d="M631.511,206.441a.386.386,0,1,1-.385-.385A.386.386,0,0,1,631.511,206.441Z" transform="translate(-564.473 -156.457)"/><path class="bh" d="M633.318,233.638a.386.386,0,1,1-.387-.387A.385.385,0,0,1,633.318,233.638Z" transform="translate(-562.434 -125.774)"/><path class="bh" d="M654.361,234.462a.386.386,0,1,1-.387-.385A.386.386,0,0,1,654.361,234.462Z" transform="translate(-538.692 -124.842)"/><path class="bh" d="M636.586,203.005a.386.386,0,1,1-.387-.387A.386.386,0,0,1,636.586,203.005Z" transform="translate(-558.747 -160.336)"/><path class="bh" d="M629.641,220.045a.387.387,0,1,1-.387-.387A.389.389,0,0,1,629.641,220.045Z" transform="translate(-566.585 -141.111)"/><path class="bh" d="M638.454,196.565a.387.387,0,1,1-.387-.387A.387.387,0,0,1,638.454,196.565Z" transform="translate(-556.641 -167.602)"/><path class="bh" d="M636.123,213.409a.386.386,0,1,1-.385-.387A.385.385,0,0,1,636.123,213.409Z" transform="translate(-559.269 -148.598)"/><path class="bh" d="M654.28,228.832a.206.206,0,1,1-.206-.206A.207.207,0,0,1,654.28,228.832Z" transform="translate(-538.377 -130.992)"/><path class="bh" d="M659.078,237.579a.207.207,0,1,1-.206-.206A.206.206,0,0,1,659.078,237.579Z" transform="translate(-532.966 -121.124)"/><path class="bh" d="M658.343,209.029a.207.207,0,1,1-.206-.206A.208.208,0,0,1,658.343,209.029Z" transform="translate(-533.795 -153.335)"/><path class="bh" d="M662.75,217.036a.207.207,0,1,1-.206-.208A.207.207,0,0,1,662.75,217.036Z" transform="translate(-528.821 -144.305)"/><path class="bh" d="M659.941,217.851a.206.206,0,1,1-.206-.209A.207.207,0,0,1,659.941,217.851Z" transform="translate(-531.99 -143.385)"/><path class="bh" d="M630.351,198.289a.208.208,0,1,1-.208-.206A.207.207,0,0,1,630.351,198.289Z" transform="translate(-565.378 -165.453)"/><path class="bh" d="M660.723,199.073a.208.208,0,1,1-.208-.209A.209.209,0,0,1,660.723,199.073Z" transform="translate(-531.11 -164.571)"/><path class="bh" d="M634.851,198.11a.208.208,0,1,1-.206-.209A.208.208,0,0,1,634.851,198.11Z" transform="translate(-560.3 -165.658)"/><path class="bh" d="M649.663,237.482a.207.207,0,1,1-.209-.206A.207.207,0,0,1,649.663,237.482Z" transform="translate(-543.589 -121.233)"/><path class="bh" d="M639.431,230.376a.206.206,0,1,1-.206-.206A.207.207,0,0,1,639.431,230.376Z" transform="translate(-555.131 -129.25)"/><path class="bh" d="M627.3,214.83a.207.207,0,1,1-.206-.206A.207.207,0,0,1,627.3,214.83Z" transform="translate(-568.822 -146.79)"/><path class="bh" d="M650.984,223.821a.208.208,0,1,1-.206-.209A.208.208,0,0,1,650.984,223.821Z" transform="translate(-542.098 -136.649)"/><path class="bh" d="M653.9,203.058a.207.207,0,1,1-.206-.206A.205.205,0,0,1,653.9,203.058Z" transform="translate(-538.801 -160.072)"/><ellipse class="bh" cx="0.207" cy="0.207" rx="0.207" ry="0.207" transform="translate(74.344 91.238)"/><path class="bh" d="M634.03,199.637a.207.207,0,1,1-.209-.209A.208.208,0,0,1,634.03,199.637Z" transform="translate(-561.227 -163.935)"/><path class="bh" d="M654.184,209.029a.207.207,0,1,1-.206-.206A.208.208,0,0,1,654.184,209.029Z" transform="translate(-538.488 -153.335)"/><path class="bh" d="M636.492,210.043a.206.206,0,1,1-.206-.209A.205.205,0,0,1,636.492,210.043Z" transform="translate(-558.447 -152.195)"/><path class="bh" d="M654.621,224.013a.206.206,0,1,1-.207-.206A.205.205,0,0,1,654.621,224.013Z" transform="translate(-537.992 -136.429)"/><path class="bh" d="M632.345,229.578a.206.206,0,1,1-.206-.206A.205.205,0,0,1,632.345,229.578Z" transform="translate(-563.125 -130.151)"/><path class="bh" d="M630.061,225.257a.206.206,0,1,1-.206-.206A.205.205,0,0,1,630.061,225.257Z" transform="translate(-565.702 -135.026)"/><path class="bh" d="M635.849,206.711a.208.208,0,1,1-.207-.209A.208.208,0,0,1,635.849,206.711Z" transform="translate(-559.174 -155.954)"/><path class="bh" d="M630.862,212.751a.207.207,0,1,1-.206-.206A.205.205,0,0,1,630.862,212.751Z" transform="translate(-564.799 -149.136)"/><ellipse class="bh" cx="0.207" cy="0.207" rx="0.207" ry="0.207" transform="translate(118.278 63.615)"/><ellipse class="bh" cx="0.207" cy="0.207" rx="0.207" ry="0.207" transform="translate(69.904 72.882)"/><path class="bh" d="M626.918,201.954a.206.206,0,1,1-.206-.206A.205.205,0,0,1,626.918,201.954Z" transform="translate(-569.248 -161.318)"/><ellipse class="bh" cx="0.207" cy="0.207" rx="0.207" ry="0.207" transform="translate(81.425 115.835)"/><path class="bh" d="M659.845,228.361a.208.208,0,1,1-.206-.206A.207.207,0,0,1,659.845,228.361Z" transform="translate(-532.101 -131.524)"/><path class="bh" d="M641.249,236.623a.207.207,0,1,1-.207-.206A.207.207,0,0,1,641.249,236.623Z" transform="translate(-553.079 -122.202)"/><path class="bi" d="M614.166,238.766l16.653-9.681v-1.029l-8.132-3.858-16.877,8.715v1.029Z" transform="translate(-592.597 -135.989)"/><path class="a" d="M614.166,238.282l16.653-9.681-8.132-4.887-16.877,9.744Z" transform="translate(-592.597 -136.534)"/><path class="bj" d="M608.026,244.779l-.055-20.44a4.424,4.424,0,0,1,1.973-3.439l9.579-5.6c1.085-.634,1.973-.126,1.973,1.132v21l-12.382,7.83Z" transform="translate(-590.16 -146.339)"/><path class="bk" d="M608.508,245.26V224.34a4.425,4.425,0,0,1,1.973-3.439l9.579-5.6c1.085-.634,1.973-.126,1.973,1.132v21Z" transform="translate(-589.554 -146.339)"/><path class="bl" d="M610.481,220.9l9.579-5.6c1.085-.634,1.973-.126,1.973,1.132v16.545l-13.525,7.83V224.34A4.425,4.425,0,0,1,610.481,220.9Z" transform="translate(-589.554 -146.339)"/><path class="bm" d="M647.5,200.39h0a2.061,2.061,0,0,1,.67,1.522V236.2a4.4,4.4,0,0,1-1.979,3.429L602.72,264.806a2.172,2.172,0,0,1-1.928.157l-.309-.153a1.581,1.581,0,0,1-.881-1.42V228.508a4.39,4.39,0,0,1,1.979-3.429l43.078-24.994A2.415,2.415,0,0,1,647.5,200.39Z" transform="translate(-599.602 -163.562)"/><path class="e" d="M645.586,200.33c1.088-.63,1.979-.115,1.979,1.143v34.493a4.392,4.392,0,0,1-1.979,3.429l-43.468,25.1c-1.089.628-1.979.113-1.979-1.143V228.852a4.394,4.394,0,0,1,1.979-3.429Z" transform="translate(-598.996 -163.221)"/><path class="e" d="M644.723,201.57v26.118L601.1,252.651V226.3Z" transform="translate(-597.908 -161.519)"/><path class="a" d="M645.586,223.343l-43.468,25.1c-1.089.628-1.979.113-1.979-1.143v-5.548l47.426-27.461v5.627A4.392,4.392,0,0,1,645.586,223.343Z" transform="translate(-598.996 -147.17)"/><path class="bn" d="M614.469,208.613l-7.534,4.35v1.243l7.534-4.35Z" transform="translate(-591.328 -153.572)"/><path class="a" d="M632.863,204.016,609.015,217.9v1.243l23.848-13.885Z" transform="translate(-588.982 -158.759)"/><path class="a" d="M632.68,208.811,608.831,222.7v1.243l23.849-13.885Z" transform="translate(-589.19 -153.348)"/><path class="a" d="M632.882,213.347l-23.849,13.885v1.243l23.849-13.885Z" transform="translate(-588.961 -148.231)"/><path class="a" d="M612.123,211.052l-7.534,4.35v1.243l7.534-4.35Z" transform="translate(-593.975 -150.821)"/><path class="a" d="M609.266,212.623,605.7,214.7v1.243l3.563-2.073Z" transform="translate(-592.718 -149.047)"/><path class="bo" d="M610.235,216.761l-3.562,2.072v1.243L610.235,218Z" transform="translate(-591.624 -144.379)"/><path class="bp" d="M611.431,211.363l-3.563,2.072v1.243l3.563-2.073Z" transform="translate(-590.275 -150.469)"/><path class="a" d="M627.158,206.275l-16.632,9.586V217.1l16.632-9.586Z" transform="translate(-587.277 -156.21)"/><path class="a" d="M629.475,210.832l-16.632,9.586v1.243l16.632-9.586Z" transform="translate(-584.663 -151.069)"/><path class="a" d="M627.218,208.643l-16.632,9.586v1.243l16.632-9.586Z" transform="translate(-587.209 -153.538)"/><path class="a" d="M609.024,214.231l-4.435,2.552v1.243l4.435-2.552Z" transform="translate(-593.975 -147.234)"/><path class="bq" d="M607.181,215.587l-1.55.909v1.243l1.55-.909Z" transform="translate(-592.8 -145.704)"/><path class="br" d="M611.712,217.616l-1.55.91v1.243l1.55-.91Z" transform="translate(-587.687 -143.415)"/><path class="bs" d="M612.812,216.963l-1.55.909v1.243l1.55-.909Z" transform="translate(-586.446 -144.151)"/><path class="bt" d="M613.855,214.116l-1.55.909v1.243l1.55-.909Z" transform="translate(-585.27 -147.363)"/><path class="a" d="M614.132,213.4l-7.534,4.35v1.243l7.534-4.35Z" transform="translate(-591.709 -148.169)"/><path class="bu" d="M618.487,209.738l-7.534,4.35v1.243l7.534-4.35Z" transform="translate(-586.795 -152.303)"/><path class="a" d="M616.567,215.494l-7.534,4.35v1.243l7.534-4.35Z" transform="translate(-588.961 -145.809)"/><path class="a" d="M614.622,211.953l-7.534,4.35v1.243l7.534-4.35Z" transform="translate(-591.156 -149.804)"/><path class="a" d="M612.362,215.587l-7.534,4.35v1.243l7.534-4.35Z" transform="translate(-593.706 -145.704)"/><path class="a" d="M616.105,214.622l-7.534,4.35v1.243l7.534-4.35Z" transform="translate(-589.483 -146.793)"/><path class="a" d="M612.563,217.806l-7.534,4.35V223.4l7.534-4.35Z" transform="translate(-593.478 -143.2)"/><path class="a" d="M613.869,218.215l-7.534,4.35v1.243l7.534-4.35Z" transform="translate(-592.005 -142.739)"/><path class="a" d="M612.563,220.143l-7.534,4.35v1.243l7.534-4.35Z" transform="translate(-593.478 -140.564)"/><path class="a" d="M604,212.666l-1.288.744v1.243l1.288-.743Z" transform="translate(-596.092 -149)"/><path class="a" d="M604,213.834l-1.288.744v1.243l1.288-.744Z" transform="translate(-596.092 -147.682)"/><path class="a" d="M604,215l-1.288.743v1.243l1.288-.744Z" transform="translate(-596.092 -146.363)"/><path class="a" d="M604,216.171l-1.288.744v1.243l1.288-.744Z" transform="translate(-596.092 -145.045)"/><path class="a" d="M604,217.339l-1.288.744v1.243l1.288-.744Z" transform="translate(-596.092 -143.727)"/><path class="a" d="M604,218.508l-1.288.744v1.243l1.288-.744Z" transform="translate(-596.092 -142.408)"/><path class="a" d="M604,219.676l-1.288.744v1.243l1.288-.744Z" transform="translate(-596.092 -141.09)"/><path class="a" d="M604,220.845l-1.288.743v1.243l1.288-.744Z" transform="translate(-596.092 -139.772)"/><path class="a" d="M604,222.013l-1.288.743V224l1.288-.744Z" transform="translate(-596.092 -138.453)"/><path class="a" d="M604,223.181l-1.288.743v1.243l1.288-.744Z" transform="translate(-596.092 -137.135)"/><path class="a" d="M618.487,206.275l-7.534,4.35v1.243l7.534-4.35Z" transform="translate(-586.795 -156.21)"/><g class="bv" transform="translate(111.384 130.428)"><path class="bw" d="M692.654,245.246c0-1.079-.764-1.52-1.7-.981l-37.319,21.546a3.768,3.768,0,0,0-1.7,2.943v12.963c0,1.081.764,1.522,1.7.981l37.319-21.544a3.771,3.771,0,0,0,1.7-2.943Z" transform="translate(-651.938 -244.035)"/><path class="bx" d="M692.654,245.25c0-1.079-.764-1.522-1.7-.981l-37.319,21.544a3.772,3.772,0,0,0-1.7,2.943V281.39c0,1.079.764,1.522,1.7.981l37.319-21.544a3.771,3.771,0,0,0,1.7-2.943Z" transform="translate(-651.938 -244.031)"/><path class="by" d="M692.654,245.253c0-1.079-.764-1.522-1.7-.981l-37.319,21.544a3.771,3.771,0,0,0-1.7,2.943v12.3c0,1.079.764,1.52,1.7.981L690.955,260.5a3.768,3.768,0,0,0,1.7-2.943Z" transform="translate(-651.938 -244.028)"/><path class="bz" d="M692.654,245.256c0-1.079-.764-1.52-1.7-.981l-37.319,21.546a3.768,3.768,0,0,0-1.7,2.943v11.969c0,1.079.764,1.522,1.7.981l37.319-21.544a3.771,3.771,0,0,0,1.7-2.943Z" transform="translate(-651.938 -244.024)"/><path class="ca" d="M692.654,245.259c0-1.079-.764-1.52-1.7-.981l-37.319,21.546a3.768,3.768,0,0,0-1.7,2.943v11.639c0,1.079.764,1.52,1.7.981l37.319-21.547a3.768,3.768,0,0,0,1.7-2.943Z" transform="translate(-651.938 -244.02)"/><path class="cb" d="M692.654,245.264c0-1.081-.764-1.522-1.7-.981l-37.319,21.544a3.771,3.771,0,0,0-1.7,2.943v11.307c0,1.081.764,1.522,1.7.981l37.319-21.544a3.771,3.771,0,0,0,1.7-2.943Z" transform="translate(-651.938 -244.017)"/><path class="cc" d="M692.654,245.266c0-1.079-.764-1.522-1.7-.981L653.636,265.83a3.771,3.771,0,0,0-1.7,2.943v10.978c0,1.079.764,1.522,1.7.981l37.319-21.544a3.772,3.772,0,0,0,1.7-2.945Z" transform="translate(-651.938 -244.013)"/><path class="cd" d="M692.654,245.269c0-1.079-.764-1.52-1.7-.981l-37.319,21.546a3.765,3.765,0,0,0-1.7,2.943v10.646c0,1.079.764,1.52,1.7.981l37.319-21.546a3.768,3.768,0,0,0,1.7-2.943Z" transform="translate(-651.938 -244.009)"/><path class="ce" d="M692.654,245.272c0-1.079-.764-1.52-1.7-.981l-37.319,21.546a3.768,3.768,0,0,0-1.7,2.943v10.313c0,1.079.764,1.522,1.7.981l37.319-21.544a3.772,3.772,0,0,0,1.7-2.943Z" transform="translate(-651.938 -244.006)"/><path class="cf" d="M692.654,245.277c0-1.081-.764-1.522-1.7-.981L653.636,265.84a3.772,3.772,0,0,0-1.7,2.943v9.984c0,1.079.764,1.52,1.7.981L690.955,258.2a3.768,3.768,0,0,0,1.7-2.943Z" transform="translate(-651.938 -244.002)"/><path class="cg" d="M692.654,245.279c0-1.079-.764-1.522-1.7-.981l-37.319,21.544a3.772,3.772,0,0,0-1.7,2.943v9.652c0,1.081.764,1.522,1.7.981l37.319-21.544a3.771,3.771,0,0,0,1.7-2.943Z" transform="translate(-651.938 -243.998)"/><path class="ch" d="M692.654,245.282c0-1.079-.764-1.522-1.7-.981l-37.319,21.546a3.768,3.768,0,0,0-1.7,2.943v9.32c0,1.079.764,1.522,1.7.981l37.319-21.544a3.772,3.772,0,0,0,1.7-2.946Z" transform="translate(-651.938 -243.995)"/><path class="ci" d="M692.654,245.285c0-1.079-.764-1.52-1.7-.981L653.636,265.85a3.768,3.768,0,0,0-1.7,2.943v8.99c0,1.079.764,1.52,1.7.981l37.319-21.546a3.768,3.768,0,0,0,1.7-2.943Z" transform="translate(-651.938 -243.991)"/><path class="cj" d="M692.654,245.29c0-1.081-.764-1.522-1.7-.981l-37.319,21.544a3.772,3.772,0,0,0-1.7,2.943v8.658c0,1.079.764,1.522,1.7.981l37.319-21.544a3.772,3.772,0,0,0,1.7-2.943Z" transform="translate(-651.938 -243.987)"/><path class="ck" d="M692.654,245.292c0-1.079-.764-1.522-1.7-.981l-37.319,21.544a3.772,3.772,0,0,0-1.7,2.943v8.328c0,1.079.764,1.52,1.7.981l37.319-21.546a3.768,3.768,0,0,0,1.7-2.943Z" transform="translate(-651.938 -243.984)"/><path class="cl" d="M692.654,245.3c0-1.079-.764-1.522-1.7-.981l-37.319,21.544a3.772,3.772,0,0,0-1.7,2.945V276.8c0,1.081.764,1.522,1.7.981l37.319-21.544a3.771,3.771,0,0,0,1.7-2.943Z" transform="translate(-651.938 -243.98)"/><path class="cm" d="M692.654,245.3c0-1.079-.764-1.52-1.7-.981l-37.319,21.546a3.768,3.768,0,0,0-1.7,2.943v7.664c0,1.079.764,1.522,1.7.981l37.319-21.544a3.772,3.772,0,0,0,1.7-2.946Z" transform="translate(-651.938 -243.976)"/><path class="cn" d="M692.654,245.3c0-1.081-.764-1.522-1.7-.981l-37.319,21.544a3.771,3.771,0,0,0-1.7,2.943v7.334c0,1.079.764,1.52,1.7.981l37.319-21.546a3.768,3.768,0,0,0,1.7-2.943Z" transform="translate(-651.938 -243.973)"/><path class="co" d="M692.654,245.305c0-1.079-.764-1.522-1.7-.981l-37.319,21.544a3.771,3.771,0,0,0-1.7,2.943v7c0,1.079.764,1.522,1.7.981l37.319-21.544a3.771,3.771,0,0,0,1.7-2.943Z" transform="translate(-651.938 -243.969)"/><path class="cp" d="M692.654,245.308c0-1.079-.764-1.522-1.7-.981l-37.319,21.546a3.765,3.765,0,0,0-1.7,2.943v6.67c0,1.079.764,1.52,1.7.981l37.319-21.546a3.768,3.768,0,0,0,1.7-2.943Z" transform="translate(-651.938 -243.966)"/><path class="cq" d="M692.654,245.311c0-1.079-.764-1.52-1.7-.981l-37.319,21.546a3.768,3.768,0,0,0-1.7,2.943v6.338c0,1.081.764,1.522,1.7.981l37.319-21.544a3.771,3.771,0,0,0,1.7-2.943Z" transform="translate(-651.938 -243.962)"/><path class="cr" d="M692.654,245.313c0-1.079-.764-1.52-1.7-.979l-37.319,21.544a3.771,3.771,0,0,0-1.7,2.943v6.008c0,1.079.764,1.522,1.7.981l37.319-21.544a3.772,3.772,0,0,0,1.7-2.946Z" transform="translate(-651.938 -243.958)"/><path class="cs" d="M692.654,245.318c0-1.079-.764-1.522-1.7-.981l-37.319,21.544a3.772,3.772,0,0,0-1.7,2.943V274.5c0,1.079.764,1.52,1.7.981l37.319-21.547a3.768,3.768,0,0,0,1.7-2.943Z" transform="translate(-651.938 -243.954)"/><path class="ct" d="M692.654,245.321c0-1.079-.764-1.522-1.7-.981l-37.319,21.544a3.772,3.772,0,0,0-1.7,2.946v5.344c0,1.079.764,1.522,1.7.981l37.319-21.544a3.771,3.771,0,0,0,1.7-2.943Z" transform="translate(-651.938 -243.951)"/><path class="cu" d="M692.654,245.324c0-1.079-.764-1.52-1.7-.981l-37.319,21.547a3.768,3.768,0,0,0-1.7,2.943v5.014c0,1.079.764,1.52,1.7.981l37.319-21.546a3.768,3.768,0,0,0,1.7-2.943Z" transform="translate(-651.938 -243.947)"/><path class="cv" d="M692.654,245.327c0-1.079-.764-1.52-1.7-.981l-37.319,21.546a3.768,3.768,0,0,0-1.7,2.943v4.682c0,1.081.764,1.522,1.7.981l37.319-21.544a3.771,3.771,0,0,0,1.7-2.943Z" transform="translate(-651.938 -243.944)"/><path class="cw" d="M692.654,245.331c0-1.079-.764-1.522-1.7-.981l-37.319,21.544a3.771,3.771,0,0,0-1.7,2.943v4.352c0,1.079.764,1.522,1.7.981l37.319-21.544a3.772,3.772,0,0,0,1.7-2.946Z" transform="translate(-651.938 -243.94)"/><path class="cx" d="M692.654,245.334c0-1.079-.764-1.522-1.7-.981L653.636,265.9a3.771,3.771,0,0,0-1.7,2.943v4.022c0,1.079.764,1.52,1.7.981L690.955,252.3a3.768,3.768,0,0,0,1.7-2.943Z" transform="translate(-651.938 -243.936)"/><path class="cy" d="M692.654,245.337c0-1.079-.764-1.52-1.7-.981L653.636,265.9a3.768,3.768,0,0,0-1.7,2.943v3.688c0,1.079.764,1.522,1.7.981l37.319-21.544a3.771,3.771,0,0,0,1.7-2.943Z" transform="translate(-651.938 -243.932)"/><path class="cz" d="M692.654,245.34c0-1.079-.764-1.52-1.7-.981l-37.319,21.546a3.768,3.768,0,0,0-1.7,2.943v3.358c0,1.079.764,1.52,1.7.981l37.319-21.546a3.768,3.768,0,0,0,1.7-2.943Z" transform="translate(-651.938 -243.929)"/><path class="da" d="M692.654,245.344c0-1.079-.764-1.522-1.7-.981l-37.319,21.544a3.772,3.772,0,0,0-1.7,2.943v3.026c0,1.081.764,1.522,1.7.981l37.319-21.544a3.771,3.771,0,0,0,1.7-2.943Z" transform="translate(-651.938 -243.925)"/><path class="db" d="M692.654,245.347c0-1.079-.764-1.522-1.7-.981l-37.319,21.544a3.772,3.772,0,0,0-1.7,2.943v2.7c0,1.079.764,1.522,1.7.981l37.319-21.544a3.772,3.772,0,0,0,1.7-2.945Z" transform="translate(-651.938 -243.922)"/><path class="dc" d="M692.654,245.35c0-1.079-.764-1.52-1.7-.981l-37.319,21.546a3.768,3.768,0,0,0-1.7,2.943v2.365c0,1.079.764,1.52,1.7.981l37.319-21.546a3.768,3.768,0,0,0,1.7-2.943Z" transform="translate(-651.938 -243.918)"/><path class="dd" d="M692.654,245.353c0-1.079-.764-1.52-1.7-.981l-37.319,21.546a3.768,3.768,0,0,0-1.7,2.943v2.032c0,1.079.764,1.522,1.7.981l37.319-21.544a3.771,3.771,0,0,0,1.7-2.943Z" transform="translate(-651.938 -243.914)"/><path class="de" d="M692.654,245.357c0-1.079-.764-1.522-1.7-.981l-37.319,21.544a3.772,3.772,0,0,0-1.7,2.943v1.7c0,1.079.764,1.52,1.7.981L690.955,250a3.768,3.768,0,0,0,1.7-2.943Z" transform="translate(-651.938 -243.91)"/><path class="df" d="M692.654,245.36c0-1.079-.764-1.522-1.7-.981l-37.319,21.544a3.771,3.771,0,0,0-1.7,2.943v1.371c0,1.081.764,1.522,1.7.981l37.319-21.544a3.771,3.771,0,0,0,1.7-2.943Z" transform="translate(-651.938 -243.907)"/><path class="dg" d="M692.654,245.363c0-1.079-.764-1.52-1.7-.981l-37.319,21.546a3.765,3.765,0,0,0-1.7,2.943v1.039c0,1.079.764,1.522,1.7.981l37.319-21.544a3.772,3.772,0,0,0,1.7-2.945Z" transform="translate(-651.938 -243.903)"/><path class="dh" d="M692.654,245.366c0-1.079-.764-1.52-1.7-.981l-37.319,21.546a3.768,3.768,0,0,0-1.7,2.943v.709c0,1.079.764,1.52,1.7.981l37.319-21.546a3.768,3.768,0,0,0,1.7-2.943Z" transform="translate(-651.938 -243.9)"/><path class="di" d="M692.654,245.37c0-1.079-.764-1.522-1.7-.981l-37.319,21.544a3.771,3.771,0,0,0-1.7,2.943v.377c0,1.079.764,1.522,1.7.981l37.319-21.544a3.772,3.772,0,0,0,1.7-2.943Z" transform="translate(-651.938 -243.896)"/><path class="dj" d="M692.654,245.373c0-1.079-.764-1.522-1.7-.981l-37.319,21.544a3.771,3.771,0,0,0-1.7,2.943v.047c0,1.079.764,1.52,1.7.981l37.319-21.546a3.768,3.768,0,0,0,1.7-2.943Z" transform="translate(-651.938 -243.892)"/><path class="dk" d="M692.654,245.376c0-1.079-.764-1.52-1.7-.981l-37.319,21.546a3.768,3.768,0,0,0-1.7,2.943V268.6c0,1.081.764,1.522,1.7.981l37.319-21.544a3.771,3.771,0,0,0,1.7-2.943Z" transform="translate(-651.938 -243.888)"/><path class="e" d="M692.654,245.379c0-1.079-.764-1.52-1.7-.981l-37.319,21.546a3.768,3.768,0,0,0-1.7,2.943v-.617c0,1.079.764,1.522,1.7.981l37.319-21.544a3.772,3.772,0,0,0,1.7-2.946Z" transform="translate(-651.938 -243.885)"/></g><path class="e" d="M692.654,228.585c0-1.079-.764-1.522-1.7-.981l-37.319,21.544a3.771,3.771,0,0,0-1.7,2.943v29.659c0,1.079.764,1.52,1.7.981l37.319-21.546a3.768,3.768,0,0,0,1.7-2.943Z" transform="translate(-540.554 -132.405)"/><path class="a" d="M688.3,230.816c0-.922-.653-1.3-1.451-.836l-31.692,18.446a3.218,3.218,0,0,0-1.451,2.513v23.743c0,.922.654,1.3,1.451.839l31.692-18.448a3.218,3.218,0,0,0,1.451-2.513Z" transform="translate(-538.563 -129.688)"/><path class="bm" d="M653.311,282.536V252.877a3.774,3.774,0,0,1,1.7-2.943l37.317-21.544a1.871,1.871,0,0,1,.3-.14c-.147-.828-.841-1.124-1.671-.645l-37.319,21.544a3.772,3.772,0,0,0-1.7,2.943v29.659c0,.962.609,1.415,1.4,1.12A1.841,1.841,0,0,1,653.311,282.536Z" transform="translate(-540.554 -132.405)"/><path class="bf" d="M654.385,244.509l15.152-8.748v11.3l-15.152,8.748Z" transform="translate(-537.793 -122.943)"/><path class="dl" d="M654.385,256.129,686.566,237.5v1.659l-32.181,18.626Z" transform="translate(-537.793 -120.977)"/><path class="dl" d="M654.385,257.685l32.181-18.625v1.659l-32.181,18.626Z" transform="translate(-537.793 -119.221)"/><path class="dl" d="M654.385,255.034l18.444-10.687v1.659l-18.444,10.687Z" transform="translate(-537.793 -113.256)"/><path class="dl" d="M662.1,241.36l15.757-9.13v5.378l-15.757,9.13Z" transform="translate(-529.086 -126.926)"/><path class="e" d="M621.942,256.115l-.66-.189a3.656,3.656,0,0,0-3.143.541l-.69-.509-.7,1.617-3.388-.289.736,3.009a.558.558,0,0,0,.385.4l1.392.409a3.384,3.384,0,0,0,3.288-.8l3.086-2.939A.744.744,0,0,0,621.942,256.115Z" transform="translate(-584.078 -100.353)"/><path class="dm" d="M621.942,256.115l-.66-.189a3.656,3.656,0,0,0-3.143.541l-.69-.509-.7,1.617-3.388-.289.383,1.562a2,2,0,0,0,1.379,1.443l.594.175a3.383,3.383,0,0,0,3.288-.8l3.086-2.939a.723.723,0,0,0,.211-.377A.739.739,0,0,0,621.942,256.115Z" transform="translate(-584.078 -100.353)"/><path class="dn" d="M617.193,257.436a.937.937,0,0,0-.423-1.724,3.43,3.43,0,0,0-2.995.734.938.938,0,0,0,.423,1.724A3.424,3.424,0,0,0,617.193,257.436Z" transform="translate(-584.092 -100.54)"/><path class="do" d="M614.875,259.99a1.119,1.119,0,0,1-1.12-1.117v-4.31a1.118,1.118,0,0,1,2.237,0v4.31A1.117,1.117,0,0,1,614.875,259.99Z" transform="translate(-583.633 -102.989)"/><path class="dp" d="M615.214,272.66l-.079,0a1.757,1.757,0,0,1-1.677-1.835l.477-10.546-.477-16.875a1.757,1.757,0,0,1,1.7-1.807c.966-.034,2.875.736,2.9,1.707l-.615,17,0,.064-.481,10.611A1.756,1.756,0,0,1,615.214,272.66Z" transform="translate(-583.971 -116.361)"/><path class="e" d="M624.163,258.608l-.6-.343a3.661,3.661,0,0,0-3.182-.221l-.547-.66-1.066,1.4L615.55,257.7v3.1a.558.558,0,0,0,.279.483l1.254.728a3.389,3.389,0,0,0,3.384.008l3.7-2.122A.743.743,0,0,0,624.163,258.608Z" transform="translate(-581.608 -98.546)"/><path class="dm" d="M624.163,258.608l-.6-.343a3.661,3.661,0,0,0-3.182-.221l-.547-.66-1.066,1.4L615.55,257.7v1.607a2,2,0,0,0,1,1.73l.536.311a3.389,3.389,0,0,0,3.384.009l3.7-2.122a.718.718,0,0,0,.294-.315A.729.729,0,0,0,624.163,258.608Z" transform="translate(-581.608 -98.546)"/><path class="dn" d="M619.269,259.079a.937.937,0,0,0,0-1.775,3.439,3.439,0,0,0-3.086,0,.938.938,0,0,0,0,1.775A3.426,3.426,0,0,0,619.269,259.079Z" transform="translate(-581.609 -99.049)"/><path class="do" d="M617.164,261.33a1.119,1.119,0,0,1-1.119-1.119V255.9a1.118,1.118,0,0,1,2.237,0v4.31A1.119,1.119,0,0,1,617.164,261.33Z" transform="translate(-581.05 -101.48)"/><path class="dq" d="M616.772,253.231a1.274,1.274,0,0,1-1.107-.639l-2.311-4a9.6,9.6,0,0,1,2.49-12.406l.632-.481a1.278,1.278,0,1,1,1.549,2.033l-.632.481a7.033,7.033,0,0,0-1.826,9.094l2.311,4a1.277,1.277,0,0,1-1.107,1.915Z" transform="translate(-585.529 -123.301)"/><path class="dr" d="M613.581,248.257l-.124-4.382,7.025-2.7-.06,3.869a1.754,1.754,0,0,1,1.415,1.607l.966,15.353-.97,11.814a1.75,1.75,0,0,1-2.309,1.52,1.8,1.8,0,0,1-1.188-1.866l.943-11.5-1.62-10.386-3.16-1.8A1.82,1.82,0,0,1,613.581,248.257Z" transform="translate(-583.97 -116.833)"/><path class="ds" d="M618.448,244.622a1.76,1.76,0,0,0-1.864-1.643c-.04,0-.081.008-.119.013a1.759,1.759,0,0,1,1.515,1.63l.966,15.353-.968,11.814a1.753,1.753,0,0,1-1.516,1.59c.03,0,.058.015.087.017.049,0,.1.006.147.006a1.756,1.756,0,0,0,1.747-1.613l.971-11.814Z" transform="translate(-580.58 -114.803)"/><path class="dt" d="M613.165,245.2l.175-1.679a24.112,24.112,0,0,0,.213-3.48,6.887,6.887,0,0,0,.785,2.079l2.311,4a1.278,1.278,0,0,1-2.213,1.277Z" transform="translate(-584.299 -118.111)"/><path class="dq" d="M613.3,232.644l5.514,3.184a7.908,7.908,0,0,1,3.952,6.847v15.7c-2.239,1.569-8.264-.615-9.466-3.071l.36-3.437a23.974,23.974,0,0,0,.2-4.116Z" transform="translate(-584.149 -126.459)"/><path class="du" d="M0,0H6.5a0,0,0,0,1,0,0V5.876A1.627,1.627,0,0,1,4.871,7.5H0a0,0,0,0,1,0,0V0A0,0,0,0,1,0,0Z" transform="translate(31.29 102.144)"/><path class="du" d="M0,0H2.717a0,0,0,0,1,0,0V5.094a.34.34,0,0,1-.34.34H.34A.34.34,0,0,1,0,5.094V0A0,0,0,0,1,0,0Z" transform="translate(32.102 105.46)"/><path class="dt" d="M619.519,242.169a1.124,1.124,0,0,1-.719-.928l-.515-3.988a1.277,1.277,0,0,0-1.43-1.1c-.7.091-.734.826-.645,1.526l.055,3.895a3.677,3.677,0,0,0,2.6,3.079,3.741,3.741,0,0,0,.653.132Z" transform="translate(-580.904 -122.517)"/><path class="dq" d="M620.2,244.486a3.775,3.775,0,0,1-1.107-.168,3.675,3.675,0,0,1-2.6-3.08l-.515-3.988a1.278,1.278,0,0,1,2.535-.326l.515,3.988a1.162,1.162,0,0,0,2.026.617l3.7-4.205a1.278,1.278,0,0,1,1.92,1.688l-3.7,4.205A3.669,3.669,0,0,1,620.2,244.486Z" transform="translate(-581.135 -122.888)"/><path class="du" d="M619.811,237.445l.609-.694a1.278,1.278,0,0,1,1.92,1.688l-.741.843Z" transform="translate(-576.801 -122.315)"/><path class="du" d="M623.2,237.555a1.546,1.546,0,1,1-1.545-1.545A1.545,1.545,0,0,1,623.2,237.555Z" transform="translate(-576.465 -122.661)"/><path class="du" d="M622.8,235.787l-1.945,2.043a.34.34,0,0,1-.481.013l0,0a.342.342,0,0,1-.013-.481l1.947-2.043a.337.337,0,0,1,.479-.013l0,0A.34.34,0,0,1,622.8,235.787Z" transform="translate(-576.285 -123.564)"/><path d="M623.553,230.609c-1.124-1.33-3.748-.934-5.2-.468-1.792.575-4.037,1.243-4.361,3.409a11.119,11.119,0,0,0-.019,1.662,8.249,8.249,0,0,1-.862,3.7c-.813,1.637-1.2,2.679-.343,4.378.511,1,.838,2.571,1.881,3.188,1.073.634,3.348,1.03,4.373.251,1.432-1.085,2.154-3.714,2.024-5.4-.142-1.822-1.053-3.661-.5-5.4.347-1.092,1.813-2.316,2.643-3.082C623.923,232.163,624.3,231.49,623.553,230.609Z" transform="translate(-585.299 -129.779)"/><path class="dv" d="M621.1,230.606a3.541,3.541,0,0,0-2.988-.885,2.973,2.973,0,0,1,2.171.885c.745.881.37,1.554-.366,2.235-.83.766-2.3,1.99-2.643,3.082-.551,1.743.36,3.582.5,5.4.132,1.688-.589,4.316-2.022,5.4a2.464,2.464,0,0,1-1.29.409,3.143,3.143,0,0,0,2.1-.409c1.432-1.085,2.154-3.714,2.024-5.4-.142-1.822-1.054-3.661-.5-5.4.347-1.092,1.813-2.316,2.643-3.082C621.465,232.159,621.838,231.487,621.1,230.606Z" transform="translate(-582.842 -129.775)"/><path class="e" d="M649.759,269.012a3.169,3.169,0,0,1-3.156-3.16v-2.584a2.213,2.213,0,0,0-1.092-1.9l-2.379-1.388a.407.407,0,1,1,.411-.7l2.377,1.388a3.025,3.025,0,0,1,1.5,2.605v2.584a2.344,2.344,0,0,0,3.516,2.028l4.2-2.426a3.319,3.319,0,0,0,1.658-2.869V247.4a3.3,3.3,0,0,1,1.656-2.856l4.056-2.324a.407.407,0,0,1,.4.707l-4.057,2.322A2.491,2.491,0,0,0,657.6,247.4v15.185a4.137,4.137,0,0,1-2.062,3.573l-4.2,2.426A3.156,3.156,0,0,1,649.759,269.012Z" transform="translate(-550.717 -115.716)"/><path class="du" d="M660.753,244.176h0a.414.414,0,0,1-.585.013l-.832-.8a.416.416,0,0,1-.011-.587h0a.416.416,0,0,1,.587-.013l.83.8A.414.414,0,0,1,660.753,244.176Z" transform="translate(-532.351 -115.141)"/><path class="e" d="M668.993,265.111l-1.426-.836v-.641l-1.481-.213-3.346-1.939a1.138,1.138,0,0,1,.181-2.054h0a2.51,2.51,0,0,1,1.96.1l2.575,1.254,3.567,1.311-.075,1.3a1.818,1.818,0,0,1-1.815,1.717Z" transform="translate(-529.007 -96.411)"/><path class="dw" d="M669.546,264.564h-.138l-1.426-.834v-.641l-1.481-.215-3.345-1.939a1.13,1.13,0,0,1-.413-1.543,1.132,1.132,0,0,0,0,1.96l3.346,1.939,1.481.213v.641l1.426.836h.14a1.813,1.813,0,0,0,1.483-.773A1.794,1.794,0,0,1,669.546,264.564Z" transform="translate(-529.004 -96.281)"/><path class="e" d="M671.559,263.356l-1.426-.834v-.643l-1.481-.213-3.346-1.939a1.138,1.138,0,0,1,.181-2.054h0a2.51,2.51,0,0,1,1.96.1l2.575,1.251,3.567,1.311-.074,1.3a1.818,1.818,0,0,1-1.816,1.715Z" transform="translate(-526.112 -98.391)"/><path class="dw" d="M672.114,262.807h-.141l-1.426-.834v-.641l-1.481-.215-3.346-1.939a1.129,1.129,0,0,1-.413-1.541,1.13,1.13,0,0,0,0,1.958l3.346,1.939,1.481.213v.643l1.426.834h.14a1.816,1.816,0,0,0,1.484-.77A1.8,1.8,0,0,1,672.114,262.807Z" transform="translate(-526.109 -98.26)"/><path class="dx" d="M669.562,275.949c-1.034,0-1.873-.421-1.873-1.458l-1.043-27.767c0-1.034,1.881-1.873,2.916-1.873a1.873,1.873,0,0,1,1.875,1.873v27.767C671.437,275.528,670.6,275.949,669.562,275.949Z" transform="translate(-523.959 -112.686)"/><path class="dy" d="M667.057,279.226c-.966,0-1.786-.119-1.864-1.1l-1.053-16.245.011-.138,1.041-15.217a1.868,1.868,0,0,1,2-1.743c1.032.07,4.414.992,4.342,2.024l-3.146,15.077.543,15.943c.083,1.032-.685,1.311-1.717,1.394Q667.134,279.226,667.057,279.226Z" transform="translate(-526.788 -112.769)"/><path class="du" d="M664.867,249.9c-.264,0-.53-.009-.8-.028l-4.516-.225a1.25,1.25,0,1,1,.126-2.5l4.544.228a8.288,8.288,0,0,0,8.275-5.057l.856-2.041a1.25,1.25,0,1,1,2.3.966l-.856,2.039A10.77,10.77,0,0,1,664.867,249.9Z" transform="translate(-533.298 -118.704)"/><path class="dz" d="M679.559,239.937c-.257-1.777-1.918-2.939-3.5-2.086-.17.1-.338.2-.5.306a10.952,10.952,0,0,0-5.284,7.506,8.07,8.07,0,0,1-7.394,3.714l-1.718-.126a1.458,1.458,0,1,0-.215,2.907l1.72.126c.27.021.543.03.811.03a10.962,10.962,0,0,0,6.549-2.173l.053,2.167-.624,23.068c.343.228,2.484-.013,4.716-.545.2-.047.391-2.556.587-2.607s.377,2.36.564,2.307c1.981-.564,3.8-1.336,4.233-2.2l-.311-24.63A34.278,34.278,0,0,0,679.559,239.937Z" transform="translate(-531.911 -120.906)"/><path class="ea" d="M668.079,241.4a10.967,10.967,0,0,1-3.58,4.569l.028,1.066a10.949,10.949,0,0,0,3.4-5.1l.211-.675Z" transform="translate(-526.381 -116.737)"/><path class="du" d="M667.668,241.6h0a.917.917,0,0,1-.917-.917v-4.24h1.833v4.24A.917.917,0,0,1,667.668,241.6Z" transform="translate(-523.841 -122.173)"/><path class="du" d="M0,0H5.539a0,0,0,0,1,0,0V7.912a0,0,0,0,1,0,0H1.387A1.387,1.387,0,0,1,0,6.526V0A0,0,0,0,1,0,0Z" transform="translate(140.453 109.697)"/><path d="M673.921,239.231c-.008-.206-.015-.413-.011-.619a14.611,14.611,0,0,0-.04-2.4,3.09,3.09,0,0,0-1.573-2.437,4.227,4.227,0,0,0-1.784-.245q-1.842.01-3.688.023a2.844,2.844,0,0,0-1.594.332c-.87.589-.443,1.711.081,2.382a3.033,3.033,0,0,0,1.049.894c.4.192,1.079.032,1.339.438.357.558-.319,2.339.46,2.556.6.168.521-.455.617-.8a.559.559,0,0,1,.451-.449c.285-.013.473.3.526.579a5.506,5.506,0,0,1-.126,1.673,1.767,1.767,0,0,0,.407,1.566,1.669,1.669,0,0,0,.53.289c.557.2,1.577.449,2.092.045a2.87,2.87,0,0,0,1.279-2.111A13.5,13.5,0,0,0,673.921,239.231Z" transform="translate(-526.118 -125.463)"/></g></g></svg>