<svg xmlns="http://www.w3.org/2000/svg" xmlns:xlink="http://www.w3.org/1999/xlink" width="217.519" height="228.645" viewBox="0 0 217.519 228.645"><defs><style>.a{fill:#006241;}.b{fill:#f1f2f2;}.c{fill:url(#e);}.d{opacity:0.7;}.aa,.ab,.ac,.ad,.ae,.af,.ag,.ah,.ai,.aj,.ak,.al,.am,.an,.ao,.ap,.aq,.ar,.as,.at,.bi,.e,.f,.g,.h,.i,.j,.k,.l,.m,.n,.o,.p,.q,.r,.s,.t,.u,.v,.w,.x,.y,.z{fill:#3c5185;}.e{opacity:0;}.f{opacity:0.024;}.g{opacity:0.049;}.h{opacity:0.073;}.i{opacity:0.098;}.j{opacity:0.122;}.k{opacity:0.146;}.l{opacity:0.171;}.m{opacity:0.195;}.n{opacity:0.22;}.o{opacity:0.244;}.p{opacity:0.268;}.q{opacity:0.293;}.r{opacity:0.317;}.s{opacity:0.341;}.t{opacity:0.366;}.u{opacity:0.39;}.v{opacity:0.415;}.w{opacity:0.439;}.x{opacity:0.463;}.y{opacity:0.488;}.z{opacity:0.512;}.aa{opacity:0.537;}.ab{opacity:0.561;}.ac{opacity:0.585;}.ad{opacity:0.61;}.ae{opacity:0.634;}.af{opacity:0.659;}.ag{opacity:0.683;}.ah{opacity:0.707;}.ai{opacity:0.732;}.aj{opacity:0.756;}.ak{opacity:0.78;}.al{opacity:0.805;}.am{opacity:0.829;}.an{opacity:0.854;}.ao{opacity:0.878;}.ap{opacity:0.902;}.aq{opacity:0.927;}.ar{opacity:0.951;}.as{opacity:0.976;}.au{fill:url(#f);}.av{fill:#036635;}.aw{fill:#6ec1e0;}.ax{fill:url(#g);}.ay{fill:#fff;}.az{fill:#d1e1f2;}.ba,.bd{fill:#48486a;}.bb{fill:url(#h);}.bc{fill:url(#i);}.bd,.bi,.bm{opacity:0.3;}.be{fill:url(#j);}.bf{fill:#f2b1b5;}.bg{fill:#362414;}.bh{fill:#4f9472;}.bj{fill:url(#k);}.bk{fill:url(#l);}.bl{fill:#2e8057;}.bm{fill:#2d3d64;}.bn{fill:#ef9ea3;}.bo{fill:url(#m);}.bp{fill:url(#n);}.bq{fill:#ffcd39;}.br{fill:url(#o);}.bs{fill:url(#p);}.bt{fill:url(#q);}.bu{mix-blend-mode:multiply;isolation:isolate;fill:url(#r);}.bv{fill:#a7a9ac;}.bw{fill:#bcbec0;}.bx{fill:#2842a2;}.by,.ca{fill:#ffca38;}.by{opacity:0.83;}.bz{fill:#e6e7e8;opacity:0.49;}.cb{fill:url(#s);}.cc{fill:#609f80;}.cd{fill:#ffc927;}.ce{fill:url(#t);}.cf{filter:url(#c);}.cg{filter:url(#a);}</style><filter id="a" x="0" y="11.125" width="217.519" height="217.52" filterUnits="userSpaceOnUse"><feOffset dx="-1" input="SourceAlpha"/><feGaussianBlur stdDeviation="1" result="b"/><feFlood flood-opacity="0.102"/><feComposite operator="in" in2="b"/><feComposite in="SourceGraphic"/></filter><filter id="c" x="21.086" y="38.992" width="177.619" height="181.619" filterUnits="userSpaceOnUse"><feOffset dy="13" input="SourceAlpha"/><feGaussianBlur stdDeviation="3" result="d"/><feFlood flood-opacity="0.369"/><feComposite operator="in" in2="d"/><feComposite in="SourceGraphic"/></filter><linearGradient id="e" x1="41.248" y1="6.34" x2="43.953" y2="8.577" gradientUnits="objectBoundingBox"><stop offset="0" stop-color="#fff"/><stop offset="1" stop-color="#222221"/></linearGradient><linearGradient id="f" x1="-15.51" y1="0.5" x2="-14.51" y2="0.5" gradientUnits="objectBoundingBox"><stop offset="0" stop-color="#549776"/><stop offset="0.413" stop-color="#80b299"/><stop offset="0.795" stop-color="#a3c7b5"/><stop offset="1" stop-color="#b1d0c0"/></linearGradient><linearGradient id="g" x1="-11.182" y1="0.5" x2="-10.182" y2="0.5" gradientUnits="objectBoundingBox"><stop offset="0.004" stop-color="#a5cbef"/><stop offset="0.214" stop-color="#b2d2f1"/><stop offset="0.604" stop-color="#d5e6f7"/><stop offset="1" stop-color="#fff"/></linearGradient><linearGradient id="h" x1="1731.593" y1="0.5" x2="1732.593" y2="0.5" gradientUnits="objectBoundingBox"><stop offset="0" stop-color="#fff"/><stop offset="1" stop-color="#a8d9fb"/></linearGradient><linearGradient id="i" x1="1036.512" y1="0.5" x2="1037.512" y2="0.5" xlink:href="#h"/><linearGradient id="j" y1="0.5" x2="1" y2="0.5" gradientUnits="objectBoundingBox"><stop offset="0" stop-color="#036635"/><stop offset="0.06" stop-color="#0b6b3b"/><stop offset="0.498" stop-color="#438d69"/><stop offset="0.825" stop-color="#66a285"/><stop offset="1" stop-color="#74ab90"/></linearGradient><linearGradient id="k" x1="0" y1="0.5" x2="1" y2="0.5" xlink:href="#j"/><linearGradient id="l" x1="676.025" y1="22.092" x2="677.184" y2="22.092" gradientUnits="objectBoundingBox"><stop offset="0.15" stop-color="#ff9800"/><stop offset="1" stop-color="#ffc107"/></linearGradient><linearGradient id="m" x1="1207.855" y1="0.5" x2="1208.855" y2="0.5" xlink:href="#j"/><linearGradient id="n" x1="323.948" y1="1.352" x2="324.958" y2="1.352" xlink:href="#l"/><linearGradient id="o" y1="0.5" x2="1" y2="0.5" gradientUnits="objectBoundingBox"><stop offset="0" stop-color="#74ab90"/><stop offset="0.175" stop-color="#66a285"/><stop offset="0.502" stop-color="#438d69"/><stop offset="0.94" stop-color="#0b6b3b"/><stop offset="1" stop-color="#036635"/></linearGradient><linearGradient id="p" x1="1361.499" y1="0.953" x2="1360.701" y2="-0.031" xlink:href="#j"/><linearGradient id="q" x1="2469.917" y1="0.953" x2="2469.119" y2="-0.031" xlink:href="#j"/><radialGradient id="r" cx="0.5" cy="0.5" r="0.893" gradientTransform="matrix(-0.566, 0, 0, 0.507, 737.984, 457.031)" gradientUnits="objectBoundingBox"><stop offset="0" stop-color="#3c5185"/><stop offset="0.052" stop-color="#596b97"/><stop offset="0.141" stop-color="#8492b2"/><stop offset="0.235" stop-color="#aab3ca"/><stop offset="0.331" stop-color="#c9cfdd"/><stop offset="0.432" stop-color="#e0e4ec"/><stop offset="0.539" stop-color="#f1f3f6"/><stop offset="0.656" stop-color="#fbfcfd"/><stop offset="0.802" stop-color="#fff"/></radialGradient><linearGradient id="s" y1="0.5" x2="1" y2="0.5" gradientUnits="objectBoundingBox"><stop offset="0" stop-color="#3a8861"/><stop offset="0.451" stop-color="#6ea78b"/><stop offset="0.808" stop-color="#91bca7"/><stop offset="1" stop-color="#9fc5b2"/></linearGradient><linearGradient id="t" y1="0.5" x2="1" y2="0.5" gradientUnits="objectBoundingBox"><stop offset="0" stop-color="#ffc107"/><stop offset="0.261" stop-color="#fed136"/><stop offset="0.605" stop-color="#fee46e"/><stop offset="0.862" stop-color="#fef091"/><stop offset="0.999" stop-color="#fef59f"/></linearGradient></defs><g transform="translate(-15.11 -18.287)"><g transform="translate(16.34 11.954)"><g transform="translate(0)"><g class="cg" transform="matrix(1, 0, 0, 1, -1.23, 6.33)"><ellipse class="a" cx="105.76" cy="105.76" rx="105.76" ry="105.76" transform="translate(4 14.13)"/></g></g></g><g transform="translate(4.549 25.239)"><g class="cf" transform="matrix(1, 0, 0, 1, 10.56, -6.95)"><ellipse class="b" cx="79.81" cy="79.81" rx="79.81" ry="79.81" transform="translate(30.09 38.99)"/></g><g transform="translate(37.64 29.034)"><path class="c" d="M197.785,612.421a82.778,82.778,0,1,1,24.283-58.533A82.567,82.567,0,0,1,197.785,612.421ZM84.969,499.605a76.767,76.767,0,1,0,54.283-22.521A76.573,76.573,0,0,0,84.969,499.605Z" transform="translate(-56.435 -471.071)"/></g></g><g transform="translate(28.144 18.287)"><g transform="translate(0 11.032)"><g class="d" transform="translate(0 75.271)"><path class="e" d="M110.519,497.111,50.429,530.8a1.9,1.9,0,0,0-.008,3.318l93.561,52.98a7.883,7.883,0,0,0,7.723.016L211.8,553.425a1.9,1.9,0,0,0,.006-3.318l-93.559-52.98A7.883,7.883,0,0,0,110.519,497.111Z" transform="translate(-49.446 -496.108)"/><path class="f" d="M110.457,497.136,50.549,530.725a1.89,1.89,0,0,0-.006,3.308l93.273,52.82a7.862,7.862,0,0,0,7.7.016l59.908-33.589a1.89,1.89,0,0,0,.006-3.308l-93.273-52.82A7.862,7.862,0,0,0,110.457,497.136Z" transform="translate(-49.321 -496.079)"/><path class="g" d="M110.394,497.162,50.669,530.648a1.884,1.884,0,0,0-.006,3.3l92.99,52.659a7.835,7.835,0,0,0,7.677.016l59.723-33.486a1.883,1.883,0,0,0,.008-3.3l-92.99-52.659A7.836,7.836,0,0,0,110.394,497.162Z" transform="translate(-49.197 -496.051)"/><path class="h" d="M110.332,497.187,50.79,530.573a1.876,1.876,0,0,0-.006,3.286l92.7,52.5a7.811,7.811,0,0,0,7.653.016l59.542-33.384a1.878,1.878,0,0,0,.008-3.288l-92.7-52.5A7.814,7.814,0,0,0,110.332,497.187Z" transform="translate(-49.072 -496.022)"/><path class="i" d="M110.271,497.214,50.91,530.495a1.871,1.871,0,0,0-.006,3.276l92.421,52.337a7.784,7.784,0,0,0,7.629.016l59.359-33.283a1.872,1.872,0,0,0,.008-3.276L117.9,497.23A7.785,7.785,0,0,0,110.271,497.214Z" transform="translate(-48.947 -495.992)"/><path class="j" d="M110.209,497.239,51.033,530.418a1.864,1.864,0,0,0-.008,3.266L143.16,585.86a7.763,7.763,0,0,0,7.607.016L209.943,552.7a1.866,1.866,0,0,0,.008-3.266l-92.138-52.174A7.759,7.759,0,0,0,110.209,497.239Z" transform="translate(-48.822 -495.963)"/><path class="k" d="M110.146,497.265,51.152,530.341a1.862,1.862,0,0,0-.008,3.258L143,585.612a7.742,7.742,0,0,0,7.583.016l58.993-33.078a1.86,1.86,0,0,0,.008-3.256l-91.852-52.014A7.737,7.737,0,0,0,110.146,497.265Z" transform="translate(-48.697 -495.934)"/><path class="l" d="M110.083,497.29l-58.81,32.974a1.856,1.856,0,0,0-.008,3.248l91.567,51.853a7.726,7.726,0,0,0,7.561.016L209.2,552.4a1.854,1.854,0,0,0,.006-3.246l-91.567-51.853A7.712,7.712,0,0,0,110.083,497.29Z" transform="translate(-48.572 -495.906)"/><path class="m" d="M110.021,497.315,51.393,530.188a1.849,1.849,0,0,0-.008,3.236l91.284,51.692a7.7,7.7,0,0,0,7.536.016l58.628-32.873a1.848,1.848,0,0,0,.006-3.236l-91.282-51.692A7.7,7.7,0,0,0,110.021,497.315Z" transform="translate(-48.448 -495.877)"/><path class="n" d="M109.958,497.341l-58.445,32.77a1.842,1.842,0,0,0-.006,3.226l91,51.531a7.675,7.675,0,0,0,7.512.016l58.447-32.771a1.842,1.842,0,0,0,.006-3.226l-91-51.531A7.674,7.674,0,0,0,109.958,497.341Z" transform="translate(-48.323 -495.847)"/><path class="o" d="M109.9,497.368,51.634,530.034a1.837,1.837,0,0,0-.006,3.216l90.713,51.371a7.65,7.65,0,0,0,7.488.016l58.264-32.668a1.837,1.837,0,0,0,.006-3.216l-90.713-51.37A7.644,7.644,0,0,0,109.9,497.368Z" transform="translate(-48.198 -495.819)"/><path class="p" d="M109.836,497.393,51.755,529.957a1.831,1.831,0,0,0-.006,3.206l90.427,51.21a7.622,7.622,0,0,0,7.466.014l58.079-32.563a1.83,1.83,0,0,0,.008-3.206L117.3,497.407A7.618,7.618,0,0,0,109.836,497.393Z" transform="translate(-48.073 -495.79)"/><path class="q" d="M109.773,497.419l-57.9,32.461a1.825,1.825,0,0,0-.006,3.2l90.144,51.049a7.6,7.6,0,0,0,7.442.014l57.9-32.461a1.825,1.825,0,0,0,.008-3.2l-90.144-51.047A7.591,7.591,0,0,0,109.773,497.419Z" transform="translate(-47.949 -495.761)"/><path class="r" d="M109.711,497.444,52,529.8a1.819,1.819,0,0,0-.008,3.185l89.859,50.886a7.575,7.575,0,0,0,7.42.014l57.713-32.359a1.82,1.82,0,0,0,.008-3.185L117.129,497.46A7.571,7.571,0,0,0,109.711,497.444Z" transform="translate(-47.824 -495.732)"/><path class="s" d="M109.648,497.469l-57.53,32.258a1.813,1.813,0,0,0-.008,3.175l89.575,50.725a7.549,7.549,0,0,0,7.4.014l57.53-32.256a1.814,1.814,0,0,0,.008-3.175l-89.575-50.725A7.554,7.554,0,0,0,109.648,497.469Z" transform="translate(-47.699 -495.702)"/><path class="t" d="M109.586,497.5,52.239,529.65a1.807,1.807,0,0,0-.008,3.165l89.29,50.565a7.524,7.524,0,0,0,7.372.014l57.349-32.154a1.808,1.808,0,0,0,.006-3.165l-89.29-50.565A7.524,7.524,0,0,0,109.586,497.5Z" transform="translate(-47.574 -495.674)"/><path class="u" d="M109.525,497.522,52.358,529.573a1.8,1.8,0,0,0-.006,3.155l89,50.4a7.5,7.5,0,0,0,7.348.014l57.167-32.051a1.8,1.8,0,0,0,.006-3.155l-89-50.4A7.5,7.5,0,0,0,109.525,497.522Z" transform="translate(-47.449 -495.645)"/><path class="v" d="M109.462,497.547,52.479,529.5a1.8,1.8,0,0,0-.006,3.145l88.721,50.241a7.468,7.468,0,0,0,7.323.016L205.5,550.949a1.8,1.8,0,0,0,.006-3.145l-88.721-50.241A7.467,7.467,0,0,0,109.462,497.547Z" transform="translate(-47.324 -495.616)"/><path class="w" d="M109.4,497.572,52.6,529.418a1.793,1.793,0,0,0-.006,3.137l88.436,50.078a7.451,7.451,0,0,0,7.3.016l56.8-31.846a1.791,1.791,0,0,0,.006-3.135L116.7,497.588A7.456,7.456,0,0,0,109.4,497.572Z" transform="translate(-47.199 -495.586)"/><path class="x" d="M109.337,497.6,52.72,529.343a1.785,1.785,0,0,0-.006,3.125l88.152,49.918a7.431,7.431,0,0,0,7.277.016l56.616-31.743a1.785,1.785,0,0,0,.008-3.125l-88.152-49.919A7.43,7.43,0,0,0,109.337,497.6Z" transform="translate(-47.075 -495.558)"/><path class="y" d="M109.275,497.623,52.84,529.266a1.78,1.78,0,0,0-.006,3.115L140.7,582.138a7.4,7.4,0,0,0,7.253.016l56.435-31.641a1.781,1.781,0,0,0,.008-3.117L116.53,497.639A7.408,7.408,0,0,0,109.275,497.623Z" transform="translate(-46.95 -495.529)"/><path class="z" d="M109.213,497.65l-56.25,31.539a1.773,1.773,0,0,0-.008,3.105l87.584,49.6a7.379,7.379,0,0,0,7.229.016l56.252-31.539a1.775,1.775,0,0,0,.008-3.107l-87.584-49.6A7.378,7.378,0,0,0,109.213,497.65Z" transform="translate(-46.825 -495.5)"/><path class="aa" d="M109.152,497.675,53.083,529.111a1.768,1.768,0,0,0-.008,3.1l87.3,49.435a7.357,7.357,0,0,0,7.207.016l56.069-31.438a1.766,1.766,0,0,0,.008-3.093l-87.3-49.437A7.358,7.358,0,0,0,109.152,497.675Z" transform="translate(-46.701 -495.471)"/><path class="ab" d="M109.09,497.7,53.2,529.034a1.762,1.762,0,0,0-.008,3.085l87.015,49.274a7.332,7.332,0,0,0,7.183.016l55.886-31.336a1.762,1.762,0,0,0,.006-3.085l-87.013-49.274A7.332,7.332,0,0,0,109.09,497.7Z" transform="translate(-46.576 -495.442)"/><path class="ac" d="M109.027,497.726l-55.7,31.233a1.754,1.754,0,0,0-.006,3.073l86.728,49.114a7.311,7.311,0,0,0,7.161.016l55.7-31.233a1.757,1.757,0,0,0,.006-3.075l-86.727-49.112A7.31,7.31,0,0,0,109.027,497.726Z" transform="translate(-46.451 -495.413)"/><path class="ad" d="M108.964,497.751,53.444,528.882a1.751,1.751,0,0,0-.006,3.065L139.882,580.9a7.285,7.285,0,0,0,7.137.016l55.521-31.131a1.751,1.751,0,0,0,.006-3.065L116.1,497.767A7.285,7.285,0,0,0,108.964,497.751Z" transform="translate(-46.326 -495.384)"/><path class="ae" d="M108.9,497.778,53.564,528.8a1.745,1.745,0,0,0-.006,3.055l86.159,48.79a7.263,7.263,0,0,0,7.114.016l55.338-31.028a1.746,1.746,0,0,0,.006-3.055l-86.159-48.79A7.258,7.258,0,0,0,108.9,497.778Z" transform="translate(-46.201 -495.355)"/><path class="af" d="M108.839,497.8,53.684,528.727a1.74,1.74,0,0,0-.006,3.044L139.554,580.4a7.233,7.233,0,0,0,7.088.016L201.8,549.492a1.739,1.739,0,0,0,.008-3.045L115.93,497.818A7.237,7.237,0,0,0,108.839,497.8Z" transform="translate(-46.076 -495.326)"/><path class="ag" d="M108.779,497.829,53.8,528.65a1.734,1.734,0,0,0-.006,3.035l85.59,48.469a7.212,7.212,0,0,0,7.066.016l54.972-30.823a1.734,1.734,0,0,0,.008-3.035l-85.59-48.469A7.217,7.217,0,0,0,108.779,497.829Z" transform="translate(-45.951 -495.297)"/><path class="ah" d="M108.716,497.854,53.927,528.575a1.726,1.726,0,0,0-.008,3.022l85.307,48.308a7.187,7.187,0,0,0,7.042.016L201.057,549.2a1.728,1.728,0,0,0,.008-3.025l-85.307-48.308A7.191,7.191,0,0,0,108.716,497.854Z" transform="translate(-45.827 -495.268)"/><path class="ai" d="M108.654,497.88,54.048,528.5a1.72,1.72,0,0,0-.008,3.013l85.021,48.147a7.169,7.169,0,0,0,7.02.016l54.606-30.618a1.721,1.721,0,0,0,.006-3.015L115.672,497.9A7.161,7.161,0,0,0,108.654,497.88Z" transform="translate(-45.702 -495.239)"/><path class="aj" d="M108.591,497.905,54.168,528.421a1.715,1.715,0,0,0-.006,3L138.9,579.409a7.139,7.139,0,0,0,7,.014l54.423-30.514a1.716,1.716,0,0,0,.006-3l-84.736-47.984A7.139,7.139,0,0,0,108.591,497.905Z" transform="translate(-45.577 -495.21)"/><path class="ak" d="M108.529,497.932l-54.24,30.411a1.71,1.71,0,0,0-.006,2.995l84.451,47.823a7.114,7.114,0,0,0,6.972.014l54.242-30.411a1.71,1.71,0,0,0,.006-2.994L115.5,497.946A7.114,7.114,0,0,0,108.529,497.932Z" transform="translate(-45.452 -495.181)"/><path class="al" d="M108.467,497.957,54.409,528.266a1.7,1.7,0,0,0-.006,2.984l84.167,47.663a7.093,7.093,0,0,0,6.948.014l54.059-30.309a1.7,1.7,0,0,0,.006-2.984l-84.167-47.663A7.1,7.1,0,0,0,108.467,497.957Z" transform="translate(-45.328 -495.152)"/><path class="am" d="M108.406,497.983,54.53,528.189a1.7,1.7,0,0,0-.006,2.975l83.882,47.5a7.071,7.071,0,0,0,6.926.014l53.877-30.206a1.7,1.7,0,0,0,.006-2.974L115.33,498A7.067,7.067,0,0,0,108.406,497.983Z" transform="translate(-45.203 -495.123)"/><path class="an" d="M108.343,498.008,54.65,528.114a1.692,1.692,0,0,0-.006,2.962l83.6,47.341a7.046,7.046,0,0,0,6.9.014l53.692-30.1a1.694,1.694,0,0,0,.008-2.964l-83.6-47.341A7.046,7.046,0,0,0,108.343,498.008Z" transform="translate(-45.078 -495.094)"/><path class="ao" d="M108.281,498.033l-53.511,30a1.686,1.686,0,0,0-.006,2.952l83.313,47.18a7.024,7.024,0,0,0,6.879.014l53.509-30a1.688,1.688,0,0,0,.008-2.954l-83.315-47.178A7.021,7.021,0,0,0,108.281,498.033Z" transform="translate(-44.953 -495.065)"/><path class="ap" d="M108.218,498.061l-53.328,29.9a1.683,1.683,0,0,0-.006,2.944l83.03,47.017a7,7,0,0,0,6.855.014l53.326-29.9a1.682,1.682,0,0,0,.008-2.944l-83.03-47.017A6.993,6.993,0,0,0,108.218,498.061Z" transform="translate(-44.828 -495.036)"/><path class="aq" d="M108.156,498.086l-53.143,29.8A1.677,1.677,0,0,0,55,530.816l82.744,46.857a6.973,6.973,0,0,0,6.831.014l53.145-29.8a1.676,1.676,0,0,0,.006-2.934L114.987,498.1A6.972,6.972,0,0,0,108.156,498.086Z" transform="translate(-44.703 -495.007)"/><path class="ar" d="M108.1,498.111,55.133,527.8a1.67,1.67,0,0,0-.006,2.924l82.459,46.7a6.947,6.947,0,0,0,6.807.014l52.962-29.7a1.668,1.668,0,0,0,.006-2.922l-82.459-46.7A6.947,6.947,0,0,0,108.1,498.111Z" transform="translate(-44.578 -494.978)"/><path class="as" d="M108.033,498.136,55.254,527.73a1.663,1.663,0,0,0-.006,2.912l82.175,46.535a6.922,6.922,0,0,0,6.783.014L196.985,547.6a1.664,1.664,0,0,0,.006-2.914l-82.175-46.535A6.922,6.922,0,0,0,108.033,498.136Z" transform="translate(-44.454 -494.949)"/><path class="at" d="M107.97,498.162l-52.6,29.491a1.657,1.657,0,0,0-.006,2.9l81.89,46.374a6.9,6.9,0,0,0,6.761.014l52.6-29.491a1.658,1.658,0,0,0,.006-2.9l-81.89-46.374A6.905,6.905,0,0,0,107.97,498.162Z" transform="translate(-44.329 -494.92)"/></g><path class="au" d="M193.381,510.291,102.626,458.9a1.84,1.84,0,0,0-2.759,1.562L82.985,527.547a3.905,3.905,0,0,0,2,3.394l90.755,51.395c1.228.693,2.181.113,2.759-1.564l16.884-67.085A3.913,3.913,0,0,0,193.381,510.291Z" transform="translate(-15.581 -458.655)"/><path class="av" d="M192.8,510.674l-90.755-51.393a1.839,1.839,0,0,0-2.759,1.562L82.4,527.927a3.909,3.909,0,0,0,2,3.4l90.755,51.393c1.226.7,2.359-.653,2.759-1.562L194.8,514.07A3.906,3.906,0,0,0,192.8,510.674Z" transform="translate(-16.171 -458.269)"/><path class="aw" d="M187.042,511.555,100.419,462.36,84.756,524.281l86.638,49.231Z" transform="translate(-13.793 -454.913)"/><path class="ax" d="M109.788,497.093,51.671,527.162s-.322,4.452.92,5.153l89.043,50.426a7.506,7.506,0,0,0,7.352.014l57.191-32.065c2.365-1.439.935-5.163.935-5.163l-89.971-48.418A7.5,7.5,0,0,0,109.788,497.093Z" transform="translate(-47.238 -420.807)"/><path class="ay" d="M109.774,495.375,52.583,527.441a1.8,1.8,0,0,0-.006,3.157l89.043,50.424a7.5,7.5,0,0,0,7.352.016l57.191-32.065a1.8,1.8,0,0,0,.006-3.157l-89.043-50.424A7.5,7.5,0,0,0,109.774,495.375Z" transform="translate(-47.223 -422.54)"/><path class="az" d="M85.744,515.683,70.67,524.133a.476.476,0,0,0,0,.832l23.472,13.292a1.98,1.98,0,0,0,1.937,0l15.075-8.453a.475.475,0,0,0,0-.832l-23.47-13.29A1.974,1.974,0,0,0,85.744,515.683Z" transform="translate(-28.265 -401.327)"/><path class="az" d="M85.33,497.375l4.928,2.791a.285.285,0,0,1,0,.5l-2.448,1.381a.646.646,0,0,1-.633,0l-4.928-2.792a.285.285,0,0,1,0-.5l2.448-1.381A.649.649,0,0,1,85.33,497.375Z" transform="translate(-16.474 -419.642)"/><path class="az" d="M88.922,499.476l4.928,2.789a.287.287,0,0,1,0,.5L91.4,504.144a.65.65,0,0,1-.635,0l-4.928-2.792a.285.285,0,0,1,0-.5l2.448-1.381A.641.641,0,0,1,88.922,499.476Z" transform="translate(-12.847 -417.522)"/><path class="az" d="M92.528,501.462l4.928,2.789a.286.286,0,0,1,0,.5l-2.448,1.381a.64.64,0,0,1-.633,0l-4.928-2.789a.287.287,0,0,1,0-.5l2.448-1.379A.649.649,0,0,1,92.528,501.462Z" transform="translate(-9.206 -415.515)"/><path class="az" d="M96.242,503.514l4.928,2.792a.284.284,0,0,1,0,.5l-2.448,1.381a.65.65,0,0,1-.635,0l-4.926-2.792a.284.284,0,0,1,0-.5l2.448-1.381A.646.646,0,0,1,96.242,503.514Z" transform="translate(-5.455 -413.443)"/><path class="az" d="M99.812,505.465l4.926,2.79a.286.286,0,0,1,0,.5l-2.448,1.381a.641.641,0,0,1-.633,0l-4.928-2.789a.287.287,0,0,1,0-.5l2.448-1.379A.65.65,0,0,1,99.812,505.465Z" transform="translate(-1.852 -411.473)"/><path class="az" d="M103.28,507.564l4.928,2.789a.286.286,0,0,1,0,.5l-2.448,1.381a.64.64,0,0,1-.633,0l-4.928-2.789a.287.287,0,0,1,0-.5l2.448-1.379A.65.65,0,0,1,103.28,507.564Z" transform="translate(1.651 -409.354)"/><path class="az" d="M106.912,509.528l4.928,2.792a.285.285,0,0,1,0,.5l-2.446,1.381a.649.649,0,0,1-.635,0l-4.928-2.791a.285.285,0,0,1,0-.5l2.446-1.381A.65.65,0,0,1,106.912,509.528Z" transform="translate(5.318 -407.371)"/><path class="az" d="M110.49,511.618l4.928,2.789a.286.286,0,0,1,0,.5l-2.446,1.381a.645.645,0,0,1-.635,0l-4.928-2.789a.287.287,0,0,1,0-.5l2.448-1.379A.65.65,0,0,1,110.49,511.618Z" transform="translate(8.931 -405.26)"/><path class="az" d="M114.01,513.656l4.926,2.789a.284.284,0,0,1,0,.5l-2.448,1.381a.645.645,0,0,1-.633,0l-4.928-2.792a.284.284,0,0,1,0-.5l2.448-1.381A.645.645,0,0,1,114.01,513.656Z" transform="translate(12.483 -403.204)"/><path class="az" d="M117.718,515.752l4.928,2.79a.286.286,0,0,1,0,.5L120.2,520.42a.645.645,0,0,1-.633,0l-4.928-2.791a.285.285,0,0,1,0-.5l2.448-1.381A.644.644,0,0,1,117.718,515.752Z" transform="translate(16.229 -401.088)"/><path class="az" d="M121.32,517.733l4.928,2.792a.285.285,0,0,1,0,.5L123.8,522.4a.645.645,0,0,1-.635,0l-4.926-2.789a.284.284,0,0,1,0-.5l2.448-1.381A.645.645,0,0,1,121.32,517.733Z" transform="translate(19.866 -399.086)"/><g transform="translate(58.49 80.887)"><path class="az" d="M78.894,501.008l3.338-1.917a1.414,1.414,0,0,1,1.4,0l3.262,1.845a.676.676,0,0,1,.016,1.172l-3.244,1.952a1.416,1.416,0,0,1-1.427.02L78.9,502.186A.674.674,0,0,1,78.894,501.008Z" transform="translate(-78.55 -498.902)"/><path class="az" d="M82.613,503.107l3.338-1.917a1.418,1.418,0,0,1,1.4,0l3.26,1.847a.674.674,0,0,1,.016,1.17l-3.242,1.951a1.419,1.419,0,0,1-1.429.02l-3.344-1.889A.674.674,0,0,1,82.613,503.107Z" transform="translate(-74.795 -496.783)"/><path class="az" d="M86.224,505.093l3.338-1.917a1.42,1.42,0,0,1,1.4,0l3.262,1.847a.674.674,0,0,1,.016,1.17L91,508.142a1.42,1.42,0,0,1-1.427.018l-3.344-1.889A.674.674,0,0,1,86.224,505.093Z" transform="translate(-71.149 -494.776)"/><path class="az" d="M90.065,507.145,93.4,505.23a1.424,1.424,0,0,1,1.4-.006l3.26,1.847a.674.674,0,0,1,.016,1.17l-3.242,1.954a1.424,1.424,0,0,1-1.429.02l-3.344-1.889A.676.676,0,0,1,90.065,507.145Z" transform="translate(-67.27 -492.704)"/><path class="az" d="M93.45,509.1l3.338-1.917a1.414,1.414,0,0,1,1.4,0l3.262,1.847a.674.674,0,0,1,.014,1.17l-3.242,1.953a1.42,1.42,0,0,1-1.427.018l-3.344-1.889A.674.674,0,0,1,93.45,509.1Z" transform="translate(-63.852 -490.735)"/><path class="az" d="M96.888,511.185l3.338-1.917a1.423,1.423,0,0,1,1.4,0l3.26,1.847a.674.674,0,0,1,.016,1.17l-3.242,1.953a1.424,1.424,0,0,1-1.429.018l-3.344-1.889A.674.674,0,0,1,96.888,511.185Z" transform="translate(-60.381 -488.626)"/><path class="az" d="M100.561,513.159l3.34-1.917a1.425,1.425,0,0,1,1.4,0l3.262,1.847a.674.674,0,0,1,.014,1.17l-3.242,1.954a1.42,1.42,0,0,1-1.427.02l-3.344-1.889A.677.677,0,0,1,100.561,513.159Z" transform="translate(-56.67 -486.632)"/><path class="az" d="M104.157,515.16l3.338-1.917a1.419,1.419,0,0,1,1.4,0l3.26,1.847a.673.673,0,0,1,.016,1.17l-3.242,1.951a1.415,1.415,0,0,1-1.427.02l-3.346-1.889A.676.676,0,0,1,104.157,515.16Z" transform="translate(-53.04 -484.613)"/><path class="az" d="M107.694,517.287l3.338-1.917a1.418,1.418,0,0,1,1.4,0l3.26,1.845a.676.676,0,0,1,.016,1.172l-3.242,1.951a1.425,1.425,0,0,1-1.429.02l-3.344-1.889A.674.674,0,0,1,107.694,517.287Z" transform="translate(-49.47 -482.465)"/><path class="az" d="M111.546,519.512l3.338-1.917a1.418,1.418,0,0,1,1.4,0l3.26,1.847a.674.674,0,0,1,.016,1.17l-3.244,1.951a1.415,1.415,0,0,1-1.427.02l-3.344-1.889A.674.674,0,0,1,111.546,519.512Z" transform="translate(-45.58 -480.218)"/><path class="az" d="M115.029,521.364l3.338-1.917a1.428,1.428,0,0,1,1.4,0l3.26,1.847a.674.674,0,0,1,.016,1.17l-3.242,1.953a1.429,1.429,0,0,1-1.429.02l-3.344-1.891A.674.674,0,0,1,115.029,521.364Z" transform="translate(-42.064 -478.347)"/></g><g transform="translate(51.052 84.854)"><path class="az" d="M75.193,502.98l3.338-1.915a1.415,1.415,0,0,1,1.4,0l3.262,1.845a.676.676,0,0,1,.016,1.172l-3.244,1.951a1.421,1.421,0,0,1-1.427.02L75.2,504.16A.676.676,0,0,1,75.193,502.98Z" transform="translate(-74.849 -500.876)"/><path class="az" d="M78.912,505.081l3.338-1.917a1.418,1.418,0,0,1,1.4,0L86.915,505a.676.676,0,0,1,.016,1.172l-3.244,1.951a1.416,1.416,0,0,1-1.427.02l-3.344-1.889A.674.674,0,0,1,78.912,505.081Z" transform="translate(-71.094 -498.757)"/><path class="az" d="M82.523,507.068l3.338-1.917a1.42,1.42,0,0,1,1.4,0l3.262,1.847a.674.674,0,0,1,.016,1.17L87.3,510.116a1.42,1.42,0,0,1-1.427.018l-3.344-1.889A.674.674,0,0,1,82.523,507.068Z" transform="translate(-67.448 -496.75)"/><path class="az" d="M86.363,509.119,89.7,507.2a1.428,1.428,0,0,1,1.4,0l3.26,1.847a.674.674,0,0,1,.016,1.17l-3.242,1.953a1.424,1.424,0,0,1-1.429.02L86.367,510.3A.677.677,0,0,1,86.363,509.119Z" transform="translate(-63.569 -494.678)"/><path class="az" d="M89.749,511.071l3.338-1.917a1.414,1.414,0,0,1,1.4,0L97.749,511a.673.673,0,0,1,.016,1.17l-3.242,1.951a1.416,1.416,0,0,1-1.427.02l-3.344-1.889A.674.674,0,0,1,89.749,511.071Z" transform="translate(-60.151 -492.709)"/><path class="az" d="M93.187,513.159l3.338-1.917a1.423,1.423,0,0,1,1.4,0l3.26,1.847a.674.674,0,0,1,.016,1.17l-3.242,1.953a1.429,1.429,0,0,1-1.429.02l-3.344-1.891A.674.674,0,0,1,93.187,513.159Z" transform="translate(-56.68 -490.6)"/><path class="az" d="M96.86,515.133l3.34-1.917a1.425,1.425,0,0,1,1.4,0l3.262,1.847a.674.674,0,0,1,.014,1.17l-3.242,1.953a1.426,1.426,0,0,1-1.427.02l-3.344-1.889A.677.677,0,0,1,96.86,515.133Z" transform="translate(-52.969 -488.606)"/><path class="az" d="M100.456,517.134l3.338-1.917a1.418,1.418,0,0,1,1.4,0l3.26,1.847a.673.673,0,0,1,.016,1.169l-3.242,1.951a1.416,1.416,0,0,1-1.427.02l-3.346-1.889A.675.675,0,0,1,100.456,517.134Z" transform="translate(-49.339 -486.587)"/><path class="az" d="M103.993,519.261l3.338-1.917a1.418,1.418,0,0,1,1.4,0l3.26,1.845a.676.676,0,0,1,.016,1.172l-3.242,1.951a1.424,1.424,0,0,1-1.429.02L104,520.438A.674.674,0,0,1,103.993,519.261Z" transform="translate(-45.769 -484.439)"/><path class="az" d="M107.845,521.486l3.338-1.917a1.418,1.418,0,0,1,1.4,0l3.26,1.845a.676.676,0,0,1,.016,1.172l-3.242,1.951a1.419,1.419,0,0,1-1.429.02l-3.344-1.889A.674.674,0,0,1,107.845,521.486Z" transform="translate(-41.879 -482.192)"/><path class="az" d="M111.328,523.339l3.338-1.917a1.424,1.424,0,0,1,1.4,0l3.26,1.847a.674.674,0,0,1,.016,1.169l-3.242,1.954a1.424,1.424,0,0,1-1.429.018l-3.344-1.889A.674.674,0,0,1,111.328,523.339Z" transform="translate(-38.363 -480.321)"/></g><g transform="translate(43.614 88.821)"><path class="az" d="M71.492,504.956l3.338-1.917a1.42,1.42,0,0,1,1.4-.006l3.262,1.847a.674.674,0,0,1,.016,1.17L76.267,508a1.42,1.42,0,0,1-1.427.02L71.5,506.134A.674.674,0,0,1,71.492,504.956Z" transform="translate(-71.148 -502.85)"/><path class="az" d="M75.211,507.055l3.338-1.917a1.418,1.418,0,0,1,1.4,0l3.26,1.845a.676.676,0,0,1,.016,1.172L79.988,510.1a1.419,1.419,0,0,1-1.429.02l-3.344-1.889A.674.674,0,0,1,75.211,507.055Z" transform="translate(-67.393 -500.731)"/><path class="az" d="M78.822,509.042l3.338-1.917a1.42,1.42,0,0,1,1.4,0l3.262,1.847a.674.674,0,0,1,.016,1.17L83.6,512.088a1.416,1.416,0,0,1-1.427.02l-3.344-1.889A.674.674,0,0,1,78.822,509.042Z" transform="translate(-63.747 -498.724)"/><path class="az" d="M82.663,511.093,86,509.178a1.423,1.423,0,0,1,1.4-.006l3.26,1.847a.674.674,0,0,1,.016,1.17l-3.242,1.953a1.421,1.421,0,0,1-1.427.02l-3.346-1.889A.676.676,0,0,1,82.663,511.093Z" transform="translate(-59.868 -496.652)"/><path class="az" d="M86.048,513.045l3.338-1.917a1.415,1.415,0,0,1,1.4,0l3.262,1.847a.675.675,0,0,1,.016,1.17l-3.244,1.951a1.416,1.416,0,0,1-1.427.02l-3.344-1.889A.674.674,0,0,1,86.048,513.045Z" transform="translate(-56.45 -494.683)"/><path class="az" d="M89.486,515.133l3.338-1.917a1.423,1.423,0,0,1,1.4,0l3.26,1.847a.674.674,0,0,1,.016,1.17l-3.242,1.953a1.424,1.424,0,0,1-1.429.018L89.49,516.31A.674.674,0,0,1,89.486,515.133Z" transform="translate(-52.979 -492.574)"/><path class="az" d="M93.159,517.107,96.5,515.19a1.428,1.428,0,0,1,1.4,0l3.262,1.847a.675.675,0,0,1,.016,1.17l-3.244,1.953a1.421,1.421,0,0,1-1.427.02l-3.344-1.889A.677.677,0,0,1,93.159,517.107Z" transform="translate(-49.268 -490.579)"/><path class="az" d="M96.755,519.108l3.338-1.917a1.418,1.418,0,0,1,1.4,0l3.26,1.847a.673.673,0,0,1,.016,1.169l-3.242,1.951a1.415,1.415,0,0,1-1.427.02l-3.346-1.889A.676.676,0,0,1,96.755,519.108Z" transform="translate(-45.638 -488.561)"/><path class="az" d="M100.292,521.235l3.338-1.917a1.419,1.419,0,0,1,1.4,0l3.26,1.845a.676.676,0,0,1,.016,1.172l-3.242,1.951a1.424,1.424,0,0,1-1.429.02l-3.344-1.889A.674.674,0,0,1,100.292,521.235Z" transform="translate(-42.068 -486.413)"/><path class="az" d="M104.144,523.46l3.338-1.917a1.419,1.419,0,0,1,1.4,0l3.26,1.845a.676.676,0,0,1,.016,1.172l-3.242,1.951a1.419,1.419,0,0,1-1.429.02l-3.344-1.889A.674.674,0,0,1,104.144,523.46Z" transform="translate(-38.178 -484.166)"/><path class="az" d="M107.627,525.312l3.338-1.917a1.423,1.423,0,0,1,1.4,0l3.26,1.847a.674.674,0,0,1,.016,1.17l-3.242,1.953a1.424,1.424,0,0,1-1.429.018l-3.344-1.889A.674.674,0,0,1,107.627,525.312Z" transform="translate(-34.662 -482.295)"/></g><g transform="translate(36.176 92.788)"><path class="az" d="M67.791,506.928l3.338-1.915a1.42,1.42,0,0,1,1.4-.006l3.262,1.847a.674.674,0,0,1,.016,1.17l-3.244,1.953a1.42,1.42,0,0,1-1.427.02l-3.344-1.889A.676.676,0,0,1,67.791,506.928Z" transform="translate(-67.447 -504.824)"/><path class="az" d="M71.51,509.029l3.338-1.917a1.418,1.418,0,0,1,1.4,0l3.26,1.845a.676.676,0,0,1,.016,1.172l-3.242,1.951a1.42,1.42,0,0,1-1.429.02l-3.344-1.889A.674.674,0,0,1,71.51,509.029Z" transform="translate(-63.692 -502.705)"/><path class="az" d="M75.121,511.016l3.338-1.917a1.414,1.414,0,0,1,1.4,0l3.262,1.847a.674.674,0,0,1,.016,1.17L79.9,514.063a1.416,1.416,0,0,1-1.427.02l-3.344-1.889A.674.674,0,0,1,75.121,511.016Z" transform="translate(-60.046 -500.698)"/><path class="az" d="M78.961,513.067,82.3,511.15a1.428,1.428,0,0,1,1.4,0l3.26,1.847a.673.673,0,0,1,.016,1.17l-3.242,1.953a1.42,1.42,0,0,1-1.427.02l-3.346-1.889A.677.677,0,0,1,78.961,513.067Z" transform="translate(-56.167 -498.626)"/><path class="az" d="M82.663,515.234,86,513.317a1.423,1.423,0,0,1,1.4,0l16.972,9.615a.676.676,0,0,1,.016,1.172l-3.242,1.951a1.42,1.42,0,0,1-1.429.02l-17.056-9.659A.674.674,0,0,1,82.663,515.234Z" transform="translate(-52.43 -496.438)"/><path class="az" d="M93.054,521.082l3.338-1.917a1.418,1.418,0,0,1,1.4,0l3.26,1.847a.674.674,0,0,1,.016,1.17l-3.242,1.951a1.416,1.416,0,0,1-1.427.02l-3.344-1.889A.675.675,0,0,1,93.054,521.082Z" transform="translate(-41.936 -490.535)"/><path class="az" d="M96.591,523.209l3.338-1.917a1.423,1.423,0,0,1,1.4-.006l3.26,1.847a.676.676,0,0,1,.016,1.172l-3.242,1.951a1.419,1.419,0,0,1-1.429.02l-3.344-1.889A.674.674,0,0,1,96.591,523.209Z" transform="translate(-38.367 -488.387)"/><path class="az" d="M100.443,525.434l3.338-1.917a1.418,1.418,0,0,1,1.4,0l3.26,1.845a.675.675,0,0,1,.016,1.172l-3.242,1.952a1.42,1.42,0,0,1-1.429.02l-3.344-1.889A.674.674,0,0,1,100.443,525.434Z" transform="translate(-34.477 -486.14)"/><path class="az" d="M103.926,527.286l3.338-1.917a1.423,1.423,0,0,1,1.4,0l3.26,1.847a.674.674,0,0,1,.016,1.17l-3.242,1.953a1.419,1.419,0,0,1-1.429.018l-3.344-1.889A.674.674,0,0,1,103.926,527.286Z" transform="translate(-30.961 -484.269)"/></g></g><g transform="translate(29.843 88.603)"><g transform="translate(0 14.207)"><path class="av" d="M70.123,527.47a1.724,1.724,0,0,1-1.614-1.1l-3.77-9.944a6.9,6.9,0,0,1,1.123-6.8l3.829-4.675a1.748,1.748,0,0,1,2.42-.255,1.666,1.666,0,0,1,.261,2.372l-3.829,4.673a3.558,3.558,0,0,0-.579,3.511l3.772,9.946a1.682,1.682,0,0,1-1.015,2.17A1.734,1.734,0,0,1,70.123,527.47Z" transform="translate(-64.296 -504.322)"/></g><path class="at" d="M73.393,543.749l2.042-1.174v-.9l2.124-.3,4.8-2.725a1.588,1.588,0,0,0-.259-2.888h0a3.678,3.678,0,0,0-2.812.143l-3.69,1.76-5.111,1.843.1,1.829a2.588,2.588,0,0,0,2.6,2.414Z" transform="translate(-58.048 -458.586)"/><path class="ba" d="M72.3,542.99h.2l2.042-1.176v-.9l2.122-.3,4.8-2.725a1.572,1.572,0,0,0,.591-2.168,1.576,1.576,0,0,1,.006,2.755l-4.8,2.725-2.124.3v.9L73.1,543.575h-.2a2.615,2.615,0,0,1-2.128-1.085A2.623,2.623,0,0,0,72.3,542.99Z" transform="translate(-57.756 -458.412)"/><path class="at" d="M69.5,541.137l2.044-1.174v-.9l2.122-.3,4.8-2.727a1.586,1.586,0,0,0-.259-2.886h0a3.655,3.655,0,0,0-2.81.143L71.7,535.052,66.588,536.9l.1,1.829a2.588,2.588,0,0,0,2.6,2.414Z" transform="translate(-61.981 -461.224)"/><path class="ba" d="M68.408,540.376h.2l2.042-1.174v-.9l2.124-.3,4.8-2.725a1.572,1.572,0,0,0,.591-2.169,1.575,1.575,0,0,1,.006,2.753l-4.8,2.727-2.122.3v.9l-2.044,1.174h-.2a2.621,2.621,0,0,1-2.128-1.085A2.621,2.621,0,0,0,68.408,540.376Z" transform="translate(-61.689 -461.05)"/><g transform="translate(4.607 33.8)"><path class="bb" d="M69.275,557.791c1.483,0,2.685-.595,2.685-2.05l1.493-39.035c0-1.455-2.7-2.635-4.178-2.635a2.661,2.661,0,0,0-2.687,2.635v39.035C66.588,557.2,67.79,557.791,69.275,557.791Z" transform="translate(-66.588 -514.071)"/></g><g transform="translate(8.524 33.582)"><path class="bc" d="M74.95,562.388c1.387,0,2.562-.167,2.675-1.545l2.369-22.835-.014-.2-2.353-21.391a2.662,2.662,0,0,0-2.864-2.45c-1.479.1-6.327,1.395-6.224,2.846l4.508,21.192-.778,22.415c-.119,1.449.985,1.841,2.464,1.958C74.805,562.386,74.877,562.388,74.95,562.388Z" transform="translate(-68.537 -513.963)"/></g><g transform="translate(3.316 14.207)"><path class="bd" d="M66.877,511.738l3.829-4.673a1.666,1.666,0,0,0-.261-2.372,1.747,1.747,0,0,0-2.42.255l-2.06,2.516a44.956,44.956,0,0,0,.227,5.706A3.544,3.544,0,0,1,66.877,511.738Z" transform="translate(-65.945 -504.322)"/><path class="bd" d="M66.58,520.625a1.741,1.741,0,0,0,2.213.995,1.682,1.682,0,0,0,1.015-2.17l-3.579-9.436c.052.386.088.613.088.613l-.111,9.01Z" transform="translate(-65.682 -498.575)"/></g><path class="be" d="M66.561,506.559c.368-2.5,2.749-4.13,5.012-2.93h0c.243.137.484.279.719.428,6.491,4.064,7.973,9.349,7.973,15.061l-.121,4.831.894,17.284c-.458.3-5.179-1.162-8.135-1.809-.494-.108-1.5-4.574-1.5-4.574s-.939,3.971-1.4,3.835c-2.6-.774-2.87-.6-3.449-1.726l.448-19.48S65.952,510.7,66.561,506.559Z" transform="translate(-62.199 -491.22)"/><path class="bf" d="M69.852,508.8h0a1.3,1.3,0,0,0,1.312-1.288v-5.959H68.538v5.959A1.3,1.3,0,0,0,69.852,508.8Z" transform="translate(-60.012 -492.908)"/><path class="bf" d="M67.647,509.52h0c4.385,0,7.938-1.8,7.938-6.1V498.4H67.647Z" transform="translate(-60.912 -496.098)"/><path class="bg" d="M66.383,505.272c.012-.289.02-.579.014-.868a20.386,20.386,0,0,1,.058-3.378,4.341,4.341,0,0,1,2.253-3.427,6.224,6.224,0,0,1,2.556-.346q2.644.018,5.286.034a4.145,4.145,0,0,1,2.287.468c1.246.826.633,2.406-.115,3.348a4.341,4.341,0,0,1-1.507,1.256c-.573.269-1.546.044-1.917.615-.51.784.458,3.29-.659,3.6-.862.235-.748-.643-.884-1.131a.79.79,0,0,0-.647-.629c-.406-.018-.677.42-.752.812a7.475,7.475,0,0,0,.181,2.353,2.451,2.451,0,0,1-.587,2.2,2.377,2.377,0,0,1-.758.406c-.8.285-2.259.631-3,.062a4.01,4.01,0,0,1-1.833-2.966A18.516,18.516,0,0,1,66.383,505.272Z" transform="translate(-62.243 -497.253)"/><path class="bd" d="M76.175,521.327,76.3,516.5a19.414,19.414,0,0,0-1.393-7.772l-1.654-2.211a1.742,1.742,0,0,0-2.406-.362c-.766.551-.645,1.015-.084,1.766l3.8,6.047a6.1,6.1,0,0,1,.649,6.3c-.7,1.469-1.479,2.9-2.042,4.423l-1.29,3.495c-.615.709,1.955-.209,2.355-.667l2.036-2.78Z" transform="translate(-58.229 -488.598)"/><path class="bf" d="M75.122,518.17A2.019,2.019,0,1,1,73.1,516.19,2,2,0,0,1,75.122,518.17Z" transform="translate(-57.441 -478.131)"/><path class="bf" d="M74.228,517.689a.878.878,0,1,1-.878-.86A.869.869,0,0,1,74.228,517.689Z" transform="translate(-56.041 -477.486)"/><g transform="translate(12.53 17.492)"><path class="bf" d="M74.378,528.668a1.666,1.666,0,0,1-.874-.245,1.6,1.6,0,0,1-.523-2.235l3.5-5.478a5.872,5.872,0,0,0-.826-7.374l-4.648-4.622a1.6,1.6,0,0,1,.016-2.291,1.675,1.675,0,0,1,2.335.016l4.648,4.624A9.052,9.052,0,0,1,79.28,522.43l-3.5,5.481A1.662,1.662,0,0,1,74.378,528.668Z" transform="translate(-70.53 -505.956)"/></g><path class="bh" d="M73.4,525.473l3.119-4.357a6.113,6.113,0,0,0-.86-7.681l-4.843-4.817a1.665,1.665,0,0,1,.016-2.386,1.743,1.743,0,0,1,2.434.016l4.843,4.817a9.433,9.433,0,0,1,1.328,11.845l-2.1,3.975C77.009,527.4,72.893,526.261,73.4,525.473Z" transform="translate(-58.215 -488.678)"/></g><path class="bi" d="M101.634,528.48c-.318,0-.637-.01-.955-.024l-13.252-.426a2.934,2.934,0,0,1-2.908-2.359,7.581,7.581,0,0,1,2.351-.131,3.871,3.871,0,0,1-.746-2.273l.32-1.274a4.141,4.141,0,0,1,2.3-.6l3.473.11-.629-1.194a1.424,1.424,0,0,1,2.482-1.32l1.381,2.619,6.544.211a19.109,19.109,0,0,0,16.709-8.774l4.6-7.259,1.515-5.161a9.824,9.824,0,0,1,4.265-5.483c-.04-.287-.08-.575-.123-.862a6.5,6.5,0,0,0-.243-1.154l-.113-.066a.91.91,0,0,1-.44-.86,7.282,7.282,0,0,1-.549-.673,4.6,4.6,0,0,1-.482-2.812,71.207,71.207,0,0,0,.37-8.481c-.141-2-1.4-4.47-.82-6.526a6.912,6.912,0,0,1,2.456-3.489l.06-.4a7.522,7.522,0,0,1,1.037-2.773l24.919,14.11a20.686,20.686,0,0,0-.466,2.805,28.043,28.043,0,0,0,1.009,8.517,47.507,47.507,0,0,0,1.76,5.567c.517,1.33,1.182,2.595,1.706,3.923a22.461,22.461,0,0,1-1.051,17.856,6.382,6.382,0,0,1-1.769,2.422,5,5,0,0,1-2.757.919,5.483,5.483,0,0,1-.627.016c-1.071,13.1-3.794,29.467-4.325,32.582l-2.359-1.395-6.3-3.724h0l-22.1-13.057c.4-1.334.812-2.643,1.246-3.845,1.361-3.774.834-8.113.452-11.934A27.708,27.708,0,0,1,101.634,528.48Z" transform="translate(-14.033 -439.149)"/><g transform="translate(67.634 21.005)"><g transform="translate(35.163)"><path class="bj" d="M100.6,471.362h2.327v-.444a4.942,4.942,0,0,1,2.52-4.319,5.141,5.141,0,0,1,5.073-.056l1.133-1.994a7.5,7.5,0,0,0-7.386.082,7.2,7.2,0,0,0-3.668,6.286Z" transform="translate(-100.596 -463.617)"/></g><path class="bk" d="M115.409,476.547a27.2,27.2,0,0,0-1.473-3.3,20.1,20.1,0,0,0-3.206-5.065c-3.519-3.678-10.455-1.1-11.045,3.891-.251,2.12,1.338,4.652,1.777,6.708a78.872,78.872,0,0,1,.918,8.728,5.455,5.455,0,0,0,.89,2.89c.3.388.7.7,1,1.091a5.242,5.242,0,0,1,.723,1.734q.69,2.46,1.383,4.922c.585,2.082,1.24,4.281,2.864,5.742s4.55,1.74,5.852,0a5.333,5.333,0,0,0,.768-1.8,34.814,34.814,0,0,0,.975-13.674C116.353,484.663,116.634,480.1,115.409,476.547Z" transform="translate(-66.381 -460.761)"/><g transform="translate(0 38.689)"><path class="bf" d="M100.314,511.979a22.482,22.482,0,0,0,20.644-13.21l4.994-11.1a3.4,3.4,0,0,0-1.783-4.514,3.519,3.519,0,0,0-4.6,1.748L114.573,496a15.528,15.528,0,0,1-14.91,9.116l-12.933-.364a3.423,3.423,0,1,0-.281,6.839l12.935.366C99.695,511.973,100.006,511.979,100.314,511.979Z" transform="translate(-83.1 -482.868)"/></g><path class="bl" d="M102.169,520.864c.93-4.8-1.065-10.485-1.961-14.938a7.627,7.627,0,0,1-.76-7.227l2.5-6.057.768-5.882A8.7,8.7,0,0,1,116.452,481l11.892,8.6c2.792,2.022,3.177,5.394,3.8,8.742,2.359,12.577,2.058,40.763,2,45.01l-32.608-18.53C101.721,523.45,101.928,522.1,102.169,520.864Z" transform="translate(-67.177 -447.747)"/><path class="bf" d="M106.281,505.884s-5.559-8.188,0-22.441c.75-1.921,3.716-7.378,3.716-7.378l8.272,1.045-1.433,10.9C116.541,490.253,113.11,505.541,106.281,505.884Z" transform="translate(-62.187 -451.047)"/><path class="bm" d="M117.544,504.066c-9.757-4.805-6.791-6.753-7.971-6.942-2.57-.416-2.47.74-7.38-1.632a5.909,5.909,0,0,1-3.183-5.372v1.753a6.162,6.162,0,0,0,3.183,5.37l4.027,1.724a29.133,29.133,0,0,1,4.441,2.374l6.881,4.478a3.816,3.816,0,0,0,5.7-3.252v-1.753A3.845,3.845,0,0,1,117.544,504.066Z" transform="translate(-67.035 -436.856)"/><path class="bn" d="M116.647,485.1l-.705-8.214-6.515-.824s-2.966,5.456-3.716,7.378c-.293.75-1.1,3.2-1.334,3.921l.032,0a12.062,12.062,0,0,0,5.225-.336l7.014-1.929Z" transform="translate(-61.616 -451.047)"/><path class="bf" d="M112.7,523.274a79.239,79.239,0,0,0,.054-12.846l-1.33-17.245a3.489,3.489,0,0,1,6.958-.516l1.33,17.243a86.061,86.061,0,0,1-.056,13.937l-.669,7.824-6.678-3.8Z" transform="translate(-54.515 -437.482)"/><path class="bf" d="M119.776,492.624l-8.143-1.031c-8.975-1.133-11.232-8.676-10.075-17.479h0a6.4,6.4,0,0,1,7.193-5.444l13.941,1.764Z" transform="translate(-64.745 -458.568)"/><g transform="translate(55.421 50.609)"><path class="bo" d="M115.773,508.1a4.2,4.2,0,0,1-3.833-3.658L110.7,493.421a4.227,4.227,0,0,1,8.4-.949l1.238,11.023a4.166,4.166,0,0,1-3.716,4.594A4.335,4.335,0,0,1,115.773,508.1Z" transform="translate(-110.676 -488.799)"/></g><path class="bp" d="M129.242,491.906a32.859,32.859,0,0,1-2.259-8.756c-.344-4.964,1.923-9.884-2.311-13.891-3.045-2.884-7.705-3.175-11.94-3.217-2.836-.026-9.956-1.347-11.465,2.14a3.22,3.22,0,0,0-.161,1.491,11.219,11.219,0,0,0,2.779,7.157c1.208,1.244,2.91,2.012,4.029,3.332,1.322,1.56.9,3.822,2.054,5.547a25.139,25.139,0,0,0,4.99,5.846c4.369,3.5,3.714,6.019,3.678,11.415-.034,4.793.239,10.266,4.013,13.31A9.852,9.852,0,0,1,124,517.424a10.749,10.749,0,0,1,1.192,2.269,7.141,7.141,0,0,0,5.977,3.815,4.43,4.43,0,0,0,3.183-.981,5.442,5.442,0,0,0,1.353-2.5,24.543,24.543,0,0,0-1.666-18.375c-.707-1.365-1.543-2.661-2.247-4.028A58.854,58.854,0,0,1,129.242,491.906Z" transform="translate(-64.936 -461.439)"/><path class="bq" d="M101.267,468.18c.995-2.3,4.419-2.506,7.456-2.373-2.386.084-4.626.607-5.4,2.39a3.222,3.222,0,0,0-.159,1.491,11.219,11.219,0,0,0,2.779,7.157c1.206,1.246,2.91,2.014,4.03,3.332,1.322,1.561.9,3.824,2.054,5.547a25.1,25.1,0,0,0,4.99,5.846c4.369,3.5,3.714,6.019,3.676,11.415-.032,4.793.241,10.266,4.015,13.312a9.441,9.441,0,0,1,1.347,1.143,10.617,10.617,0,0,1,1.194,2.269,7.152,7.152,0,0,0,5.081,3.714,5.8,5.8,0,0,1-1.162.082,7.141,7.141,0,0,1-5.977-3.814A10.748,10.748,0,0,0,124,517.422a9.839,9.839,0,0,0-1.349-1.144c-3.774-3.045-4.048-8.517-4.013-13.31.036-5.4.691-7.918-3.678-11.415a25.187,25.187,0,0,1-4.99-5.846c-1.154-1.724-.732-3.987-2.054-5.547-1.119-1.32-2.822-2.088-4.029-3.332a11.219,11.219,0,0,1-2.779-7.157A3.221,3.221,0,0,1,101.267,468.18Z" transform="translate(-64.936 -461.438)"/><g transform="translate(45.083 0.932)"><path class="br" d="M113.155,489.1h2.325V478.8a16.813,16.813,0,0,0-8.815-14.719l-1.133,1.994a14.538,14.538,0,0,1,7.623,12.726Z" transform="translate(-105.532 -464.081)"/></g><g transform="translate(39.08 28.094)"><path class="av" d="M106.788,482.15a3.669,3.669,0,0,0,1.815-.474l5.9-3.338-.436-.742-5.9,3.338a2.814,2.814,0,0,1-2.755,0l-2.43-1.377-.436.742,2.43,1.377A3.667,3.667,0,0,0,106.788,482.15Z" transform="translate(-102.545 -477.596)"/></g><g transform="translate(49.076 16.744)"><path class="av" d="M112.31,472.586c2.637-1.493,4.793-.271,4.793,2.713a10.388,10.388,0,0,1-4.793,8.141c-2.635,1.493-4.791.271-4.791-2.713A10.388,10.388,0,0,1,112.31,472.586Z" transform="translate(-107.519 -471.949)"/><path class="bs" d="M112.31,472.582c1.566-.886,2.948-.8,3.824.032a3.978,3.978,0,0,0-2.556.589,10.394,10.394,0,0,0-4.791,8.141,3.574,3.574,0,0,0,.967,2.683c-1.336-.207-2.235-1.385-2.235-3.3A10.388,10.388,0,0,1,112.31,472.582Z" transform="translate(-107.519 -471.944)"/><path class="av" d="M111.546,473.964c1.451-.822,2.641-.149,2.641,1.5a5.729,5.729,0,0,1-2.641,4.486c-1.453.822-2.641.149-2.641-1.5A5.724,5.724,0,0,1,111.546,473.964Z" transform="translate(-106.12 -470.268)"/><path class="bt" d="M111.546,473.962a1.716,1.716,0,0,1,2.106.018,2.186,2.186,0,0,0-1.407.326,5.721,5.721,0,0,0-2.641,4.486,1.972,1.972,0,0,0,.533,1.477c-.738-.115-1.232-.764-1.232-1.821A5.724,5.724,0,0,1,111.546,473.962Z" transform="translate(-106.12 -470.266)"/></g><g transform="translate(37.498 29.079)"><path class="av" d="M104.381,481.2a1.168,1.168,0,0,0,1.009-.571,1.13,1.13,0,0,0-.426-1.56l-1.461-.826a1.174,1.174,0,0,0-1.59.418,1.129,1.129,0,0,0,.426,1.557l1.461.828A1.189,1.189,0,0,0,104.381,481.2Z" transform="translate(-101.758 -478.086)"/></g><path class="bf" d="M90.539,498.351h0a1.269,1.269,0,0,0,.406-1.771l-2.432-3.766a1.325,1.325,0,0,0-1.807-.4h0a1.267,1.267,0,0,0-.4,1.771l2.43,3.766A1.325,1.325,0,0,0,90.539,498.351Z" transform="translate(-80.072 -434.74)"/></g><g transform="translate(57.564 46.024)"><path class="bu" d="M100.688,491.443c-4.841-2.743-12.766-2.743-17.609,0s-4.841,7.229,0,9.972,12.768,2.741,17.609,0S105.532,494.184,100.688,491.443Z" transform="translate(-76.717 -462.617)"/><path class="bv" d="M85.578,495.917l.5.412h4.383l.474-.43a6.624,6.624,0,0,0,2.2-4.918V489.11h-10v1.68A6.634,6.634,0,0,0,85.578,495.917Z" transform="translate(-72.993 -462.895)"/><path class="bw" d="M86.038,494.072h1.634a1.441,1.441,0,0,0,1.455-1.427H84.583A1.441,1.441,0,0,0,86.038,494.072Z" transform="translate(-71.532 -459.326)"/><path class="bx" d="M84.606,488.532a7.974,7.974,0,0,1,7.062,0c1.943,1.1,1.943,2.9,0,4a7.96,7.96,0,0,1-7.062,0C82.664,491.432,82.664,489.634,84.606,488.532Z" transform="translate(-72.98 -464.311)"/><path class="by" d="M90.219,479.951a9.058,9.058,0,0,1,9.144,8.969,8.918,8.918,0,0,1-4.146,7.506v2.028h0a2.534,2.534,0,0,1-1.489,1.929,7.981,7.981,0,0,1-7.038-.012,2.443,2.443,0,0,1-1.439-1.917h-.032v-2.028a8.918,8.918,0,0,1-4.146-7.506A9.059,9.059,0,0,1,90.219,479.951Z" transform="translate(-75.076 -472.143)"/><path class="ay" d="M92.224,489.1a5.922,5.922,0,0,0-5.981-5.864c-3.057,0-2.82-2.5,1.077-2.5a6.988,6.988,0,0,1,7.056,6.92C94.377,490.084,92.224,491.157,92.224,489.1Z" transform="translate(-71.968 -471.348)"/><path class="bz" d="M84.607,491.465a7.981,7.981,0,0,0,7.038.012,2.534,2.534,0,0,0,1.489-1.929v.671a2.531,2.531,0,0,1-1.489,1.93,7.974,7.974,0,0,1-7.038-.012,2.44,2.44,0,0,1-1.439-1.917h-.032v-.671h.032A2.443,2.443,0,0,0,84.607,491.465Z" transform="translate(-72.993 -462.453)"/><path class="bz" d="M84.477,492.024a7.985,7.985,0,0,0,7.04.012,3.338,3.338,0,0,0,1.2-1.079,6.674,6.674,0,0,1-.506,1.256,3.988,3.988,0,0,1-.7.494,7.979,7.979,0,0,1-7.04-.012,3.745,3.745,0,0,1-.575-.4,6.458,6.458,0,0,1-.611-1.373A3.091,3.091,0,0,0,84.477,492.024Z" transform="translate(-72.837 -461.061)"/><path class="ca" d="M92.519,482.4l-.028-5.6a.739.739,0,0,1,.742-.734h0a.739.739,0,0,1,.746.728l.028,5.6a.738.738,0,0,1-.744.733h0A.738.738,0,0,1,92.519,482.4ZM87.8,484.555a.749.749,0,0,0,.376-.1.722.722,0,0,0,.267-1l-2.886-4.837a.754.754,0,0,0-1.019-.261.725.725,0,0,0-.267,1l2.886,4.835A.75.75,0,0,0,87.8,484.555Zm-4,3.915a.747.747,0,0,0,.649-.37.725.725,0,0,0-.279-1L79.2,484.336a.751.751,0,0,0-1.015.275.723.723,0,0,0,.279,1l4.966,2.767A.76.76,0,0,0,83.8,488.47Zm18.827-.07a.753.753,0,0,0,.382-.1l4.9-2.876a.725.725,0,0,0,.257-1,.754.754,0,0,0-1.023-.251l-4.9,2.876a.725.725,0,0,0-.257,1A.751.751,0,0,0,102.628,488.4ZM98.6,484.515a.75.75,0,0,0,.651-.376l2.775-4.9a.723.723,0,0,0-.289-.993.752.752,0,0,0-1.013.283l-2.775,4.9a.724.724,0,0,0,.289.995A.758.758,0,0,0,98.6,484.515Z" transform="translate(-78.089 -476.066)"/></g><g transform="translate(12.608 57.862)"><path class="cb" d="M67.316,483.5c6.379,3.614,11.6,12.478,11.6,19.7a9.8,9.8,0,0,1-1.409,5.456l.432,2.82a.632.632,0,0,1-.888.659l-2.591-1.144c-1.974.641-4.452.3-7.143-1.224-6.377-3.613-11.6-12.478-11.6-19.7S60.939,479.886,67.316,483.5Z" transform="translate(-55.72 -481.956)"/><path class="cc" d="M74.839,509.851a9.813,9.813,0,0,0,1.407-5.456c0-7.225-5.217-16.09-11.6-19.7-3.049-1.724-5.822-1.937-7.9-.914,2.1-2.231,5.589-2.508,9.522-.281,6.379,3.614,11.6,12.478,11.6,19.7a9.8,9.8,0,0,1-1.409,5.456l.432,2.819a.632.632,0,0,1-.888.659l-.878-.388Z" transform="translate(-54.678 -481.954)"/><g transform="translate(6.415 9.077)"><path class="ay" d="M66.081,492.667a1.88,1.88,0,0,1-.808.738c-.251.155-.519.3-.784.454a2.007,2.007,0,0,0-.547.432.9.9,0,0,0-.07.5l-1.761-.657a4,4,0,0,1-.086-1.035c.121-.834,1-.989,1.467-1.375a1.076,1.076,0,0,0,.392-1.152,3.184,3.184,0,0,0-.131-.464,2.4,2.4,0,0,0-1.449-1.5.852.852,0,0,0-1.178.3,1.687,1.687,0,0,0-.143.579,2.941,2.941,0,0,0,.058.5l-2.13-1.5a5.147,5.147,0,0,1,.209-1.035c.609-1.55,2.512-.824,3-.647a6.844,6.844,0,0,1,1.572.806,5.739,5.739,0,0,1,2.482,3.555A2.709,2.709,0,0,1,66.081,492.667Zm-3.37,5.442-.553-2.822,2.189.8.551,2.82Z" transform="translate(-58.912 -486.473)"/></g></g><g transform="translate(118.981)"><path class="cd" d="M111.941,454.756,108.7,470.3a2.034,2.034,0,0,0,.971,2.283l2.315,1.471,1.475,5.2c.068.772.937,1.123,1.793.725l3.529-2.074,20.164,11.271a2.052,2.052,0,0,0,2.759-1.409L144.995,472a2.034,2.034,0,0,0-.971-2.283l-29.336-16.373A2.057,2.057,0,0,0,111.941,454.756Z" transform="translate(-108.649 -453.165)"/><g transform="translate(3.88 0.002)"><path class="ce" d="M138.441,488.372l3.286-15.772a2.034,2.034,0,0,0-.971-2.283L111.42,453.943a1.473,1.473,0,0,0-.84-.169,1.932,1.932,0,0,1,2.158-.434l29.336,16.373a2.034,2.034,0,0,1,.971,2.283l-3.286,15.772a2.155,2.155,0,0,1-1.905,1.584A1.886,1.886,0,0,0,138.441,488.372Z" transform="translate(-110.58 -453.166)"/></g><path class="ay" d="M138.783,470.716l-27.5-15.281-.381,1.828,27.5,15.281Z" transform="translate(-106.37 -450.873)"/><path class="ay" d="M138.291,473.079,110.8,457.8l-.381,1.828,27.5,15.281Z" transform="translate(-106.867 -448.488)"/><path class="ay" d="M131.872,472.193l-15.7-8.816-.381,1.828,15.7,8.816Z" transform="translate(-101.437 -442.854)"/></g></g></g></svg>