<svg xmlns="http://www.w3.org/2000/svg" xmlns:xlink="http://www.w3.org/1999/xlink" width="222.813" height="254.437" viewBox="0 0 222.813 254.437"><defs><style>.a,.dw,.e{fill:#fff;}.b{fill:#ffc627;}.c{fill:#f1f2f2;}.d{fill:url(#e);}.br,.e{opacity:0;}.f{fill:#fbfbfd;}.bs,.f{opacity:0.02;}.g{fill:#f7f8fb;}.bt,.g{opacity:0.039;}.h{fill:#f2f4fa;}.bu,.h{opacity:0.059;}.i{fill:#eef0f8;}.bv,.i{opacity:0.078;}.j{fill:#eaecf6;}.bw,.j{opacity:0.098;}.k{fill:#e6e9f4;}.bx,.k{opacity:0.118;}.l{fill:#e1e5f2;}.by,.l{opacity:0.137;}.m{fill:#dde1f0;}.bz,.m{opacity:0.157;}.n{fill:#d9deef;}.ca,.n{opacity:0.176;}.o{fill:#d5daed;}.cb,.o{opacity:0.196;}.p{fill:#d1d6eb;}.cc,.p{opacity:0.216;}.q{fill:#ccd3e9;}.cd,.q{opacity:0.235;}.r{fill:#c8cfe7;}.ce,.r{opacity:0.255;}.s{fill:#c4cbe5;}.cf,.s{opacity:0.275;}.t{fill:#c0c7e4;}.cg,.t{opacity:0.294;}.u{fill:#bcc4e2;}.ch,.u{opacity:0.314;}.v{fill:#b7c0e0;}.ci,.v{opacity:0.333;}.w{fill:#b3bcde;}.cj,.w{opacity:0.353;}.x{fill:#afb9dc;}.ck,.x{opacity:0.373;}.y{fill:#abb5db;}.cl,.y{opacity:0.392;}.z{fill:#a6b1d9;}.cm,.z{opacity:0.412;}.aa{fill:#a2add7;}.aa,.cn{opacity:0.431;}.ab{fill:#9eaad5;}.ab,.co{opacity:0.451;}.ac{fill:#9aa6d3;}.ac,.cp{opacity:0.471;}.ad{fill:#96a2d1;}.ad,.cq{opacity:0.49;}.ae{fill:#919fd0;}.ae,.cr{opacity:0.51;}.af{fill:#8d9bce;}.af,.cs{opacity:0.529;}.ag{fill:#8997cc;}.ag,.ct{opacity:0.549;}.ah{fill:#8594ca;}.ah,.cu{opacity:0.569;}.ai{fill:#8190c8;}.ai,.cv{opacity:0.588;}.aj{fill:#7c8cc6;}.aj,.cw{opacity:0.608;}.ak{fill:#7888c5;}.ak,.cx{opacity:0.627;}.al{fill:#7485c3;}.al,.cy{opacity:0.647;}.am{fill:#7081c1;}.am,.cz{opacity:0.667;}.an{fill:#6b7dbf;}.an,.da{opacity:0.686;}.ao{fill:#677abd;}.ao,.db{opacity:0.706;}.ap{fill:#6376bc;}.ap,.dc{opacity:0.725;}.aq{fill:#5f72ba;}.aq,.dd{opacity:0.745;}.ar{fill:#5b6eb8;}.ar,.de{opacity:0.765;}.as{fill:#566bb6;}.as,.df{opacity:0.784;}.at{fill:#5267b4;}.at,.dg{opacity:0.804;}.au{fill:#4e63b2;}.au,.dh{opacity:0.824;}.av{fill:#4a60b1;}.av,.di{opacity:0.843;}.aw{fill:#465caf;}.aw,.dj{opacity:0.863;}.ax{fill:#4158ad;}.ax,.dk{opacity:0.882;}.ay{fill:#3d55ab;}.ay,.dl{opacity:0.902;}.az{fill:#3951a9;}.az,.dm{opacity:0.922;}.ba{fill:#354da7;}.ba,.dn{opacity:0.941;}.bb{fill:#3049a6;}.bb,.do{opacity:0.961;}.bc{fill:#2c46a4;}.bc,.dp{opacity:0.98;}.bd{fill:#2842a2;}.be{fill:#ffc107;}.bf{fill:#ffad33;}.bg{fill:#ffcd39;}.bh{fill:#ff9800;}.bi{fill:url(#f);}.bj{fill:url(#g);}.bk{fill:url(#h);}.bl{fill:url(#i);}.bm{fill:#c9e0f5;}.bn{fill:url(#k);}.bo{fill:url(#m);}.bp{fill:url(#n);}.bq,.ef{opacity:0.2;}.bq{mix-blend-mode:multiply;isolation:isolate;}.br,.bs,.bt,.bu,.bv,.bw,.bx,.by,.bz,.ca,.cb,.cc,.cd,.ce,.cf,.cg,.ch,.ci,.cj,.ck,.cl,.cm,.cn,.co,.cp,.cq,.cr,.cs,.ct,.cu,.cv,.cw,.cx,.cy,.cz,.da,.db,.dc,.dd,.de,.df,.dg,.dh,.di,.dj,.dk,.dl,.dm,.dn,.do,.dp,.dq,.es,.et,.eu,.ev,.ew,.ex,.ey,.ez,.fa,.fb,.fc,.fd,.fe,.ff,.fg,.fh,.fi,.fj,.fk,.fl,.fm,.fn,.fo,.fp,.fq,.fr,.fs,.ft,.fu,.fv,.fw,.fx,.fy,.fz,.ga,.gb,.gc,.gd,.ge,.gf{fill:#006241;}.dr{fill:#00422c;}.ds{fill:#6ec1e0;}.dt{fill:#d1e1f2;}.du{fill:#edf3fa;}.dv{fill:url(#o);}.dw,.ec{opacity:0.3;}.dx{fill:#7ea7df;}.dy{fill:#ef9ea3;}.dz{fill:url(#p);}.ea{fill:#8c1d40;}.eb{fill:url(#q);}.ec{fill:#231f20;}.ed{fill:#f2b1b5;}.ee{fill:url(#r);}.ef{fill:#fec55e;}.eg{fill:url(#s);}.eh{fill:url(#t);}.ei{fill:url(#u);}.ej{fill:#ffca38;}.ek{fill:url(#v);}.el{fill:#a14662;}.em{fill:#a8536e;}.en{fill:#6cadde;}.eo{fill:#1281af;}.ep{fill:#00a3e0;}.eq{fill:#2f8063;}.er{fill:#007152;}.es{opacity:0.024;}.et{opacity:0.049;}.eu{opacity:0.073;}.ev{opacity:0.098;}.ew{opacity:0.122;}.ex{opacity:0.146;}.ey{opacity:0.171;}.ez{opacity:0.195;}.fa{opacity:0.22;}.fb{opacity:0.244;}.fc{opacity:0.268;}.fd{opacity:0.293;}.fe{opacity:0.317;}.ff{opacity:0.341;}.fg{opacity:0.366;}.fh{opacity:0.39;}.fi{opacity:0.415;}.fj{opacity:0.439;}.fk{opacity:0.463;}.fl{opacity:0.488;}.fm{opacity:0.512;}.fn{opacity:0.537;}.fo{opacity:0.561;}.fp{opacity:0.585;}.fq{opacity:0.61;}.fr{opacity:0.634;}.fs{opacity:0.659;}.ft{opacity:0.683;}.fu{opacity:0.707;}.fv{opacity:0.732;}.fw{opacity:0.756;}.fx{opacity:0.78;}.fy{opacity:0.805;}.fz{opacity:0.829;}.ga{opacity:0.854;}.gb{opacity:0.878;}.gc{opacity:0.902;}.gd{opacity:0.927;}.ge{opacity:0.951;}.gf{opacity:0.976;}.gg{fill:url(#w);}.gh{filter:url(#c);}.gi{filter:url(#a);}</style><filter id="a" x="0" y="20.374" width="222.813" height="222.813" filterUnits="userSpaceOnUse"><feOffset dx="-1" input="SourceAlpha"/><feGaussianBlur stdDeviation="1" result="b"/><feFlood flood-opacity="0.102"/><feComposite operator="in" in2="b"/><feComposite in="SourceGraphic"/></filter><filter id="c" x="21.739" y="48.863" width="181.614" height="185.614" filterUnits="userSpaceOnUse"><feOffset dy="13" input="SourceAlpha"/><feGaussianBlur stdDeviation="3" result="d"/><feFlood flood-opacity="0.369"/><feComposite operator="in" in2="d"/><feComposite in="SourceGraphic"/></filter><linearGradient id="e" x1="40.938" y1="9.684" x2="43.643" y2="11.92" gradientUnits="objectBoundingBox"><stop offset="0" stop-color="#fff"/><stop offset="1" stop-color="#222221"/></linearGradient><linearGradient id="f" y1="0.5" x2="1" y2="0.5" gradientUnits="objectBoundingBox"><stop offset="0.004" stop-color="#3c5185"/><stop offset="0.193" stop-color="#465f97"/><stop offset="0.472" stop-color="#536fac"/><stop offset="0.744" stop-color="#5a79b9"/><stop offset="1" stop-color="#5d7dbe"/></linearGradient><linearGradient id="g" x1="-0.001" y1="0.501" x2="0.999" y2="0.501" xlink:href="#f"/><linearGradient id="h" y1="0.5" x2="1" y2="0.5" gradientUnits="objectBoundingBox"><stop offset="0" stop-color="#fff"/><stop offset="0.205" stop-color="#fafdfe"/><stop offset="0.425" stop-color="#edf7fe"/><stop offset="0.65" stop-color="#d8eefd"/><stop offset="0.879" stop-color="#bae1fb"/><stop offset="1" stop-color="#a8d9fb"/></linearGradient><linearGradient id="i" x1="0.001" x2="1" xlink:href="#h"/><linearGradient id="k" x1="0.001" y1="0.5" x2="1" y2="0.5" xlink:href="#f"/><linearGradient id="m" x1="0.001" x2="1" xlink:href="#h"/><linearGradient id="n" x1="-0.001" y1="0.498" x2="0.999" y2="0.498" xlink:href="#h"/><linearGradient id="o" y1="0.5" x2="1" y2="0.5" gradientUnits="objectBoundingBox"><stop offset="0" stop-color="#ffc107"/><stop offset="0.85" stop-color="#ff9800"/></linearGradient><linearGradient id="p" x1="2417.038" y1="0.5" x2="2418.037" y2="0.5" gradientUnits="objectBoundingBox"><stop offset="0" stop-color="#fff"/><stop offset="1" stop-color="#a8d9fb"/></linearGradient><linearGradient id="q" x1="1312.812" y1="0.5" x2="1313.812" y2="0.5" xlink:href="#p"/><linearGradient id="r" x1="826.654" y1="0.5" x2="827.654" y2="0.5" gradientUnits="objectBoundingBox"><stop offset="0" stop-color="#ff9800"/><stop offset="0.626" stop-color="#ffb004"/><stop offset="1" stop-color="#ffc107"/></linearGradient><linearGradient id="s" y1="0.5" x2="1" y2="0.5" gradientUnits="objectBoundingBox"><stop offset="0" stop-color="#3c5185"/><stop offset="0.128" stop-color="#41578d"/><stop offset="0.695" stop-color="#5572b0"/><stop offset="1" stop-color="#5d7dbe"/></linearGradient><linearGradient id="t" x1="0" y1="0.5" x2="1" y2="0.5" xlink:href="#s"/><linearGradient id="u" x1="0" y1="0.5" x2="1" y2="0.5" xlink:href="#s"/><linearGradient id="v" y1="0.5" x2="1" y2="0.5" gradientUnits="objectBoundingBox"><stop offset="0.004" stop-color="#a5cbef"/><stop offset="0.214" stop-color="#b2d2f1"/><stop offset="0.604" stop-color="#d5e6f7"/><stop offset="1" stop-color="#fff"/></linearGradient><linearGradient id="w" y1="0.5" x2="1" y2="0.5" gradientUnits="objectBoundingBox"><stop offset="0.004" stop-color="#a5cbef"/><stop offset="0.442" stop-color="#cee2f6"/><stop offset="1" stop-color="#fff"/></linearGradient></defs><g transform="translate(-10.926)"><path class="a" d="M577.991,737H456.177l13.674-109.458L456.177,493.8H577.991Z" transform="translate(-384.943 -482.562)"/><g transform="translate(14.688 2.403)"><g transform="translate(0)"><g class="gi" transform="matrix(1, 0, 0, 1, -3.76, -2.4)"><ellipse class="b" cx="108.407" cy="108.406" rx="108.407" ry="108.406" transform="translate(4 23.37)"/></g></g></g><g transform="translate(0 16.15)"><g class="gh" transform="matrix(1, 0, 0, 1, 10.93, -16.15)"><ellipse class="c" cx="81.807" cy="81.807" rx="81.807" ry="81.807" transform="translate(30.74 48.86)"/></g><g transform="translate(38.582 29.632)"><path class="d" d="M571.574,653.455a84.849,84.849,0,1,1,24.89-60A84.622,84.622,0,0,1,571.574,653.455ZM455.936,537.817a78.688,78.688,0,1,0,55.641-23.085A78.491,78.491,0,0,0,455.936,537.817Z" transform="translate(-426.687 -508.57)"/></g></g><g transform="translate(64.549 0)"><g transform="translate(80.788 144.039)"><path class="e" d="M506.812,561.958c-6.832-3.944-18.009-3.944-24.841,0s-6.832,10.4,0,14.342,18.009,3.944,24.841,0S513.644,565.9,506.812,561.958Z" transform="translate(-476.848 -549.929)"/><path class="f" d="M506.47,561.986c-6.723-3.88-17.726-3.88-24.449,0s-6.723,10.235,0,14.117,17.726,3.882,24.449,0S513.193,565.867,506.47,561.986Z" transform="translate(-476.701 -549.844)"/><path class="g" d="M506.124,562.016c-6.615-3.82-17.439-3.82-24.054,0s-6.615,10.069,0,13.887,17.439,3.82,24.054,0S512.74,565.834,506.124,562.016Z" transform="translate(-476.552 -549.759)"/><ellipse class="h" cx="16.731" cy="9.659" rx="16.731" ry="9.659" transform="translate(0.814 9.541)"/><path class="i" d="M505.436,562.073c-6.4-3.695-16.869-3.695-23.266,0s-6.4,9.739,0,13.431,16.869,3.695,23.266,0S511.835,565.766,505.436,562.073Z" transform="translate(-476.258 -549.588)"/><path class="j" d="M505.092,562.1c-6.291-3.631-16.583-3.631-22.875,0s-6.289,9.575,0,13.206,16.583,3.631,22.875,0S511.381,565.734,505.092,562.1Z" transform="translate(-476.111 -549.503)"/><path class="k" d="M504.747,562.13c-6.181-3.569-16.3-3.569-22.479,0s-6.182,9.409,0,12.978,16.3,3.569,22.479,0S510.929,565.7,504.747,562.13Z" transform="translate(-475.963 -549.418)"/><path class="l" d="M504.4,562.159c-6.074-3.507-16.013-3.507-22.087,0s-6.072,9.245,0,12.75,16.013,3.507,22.087,0S510.475,565.666,504.4,562.159Z" transform="translate(-475.815 -549.333)"/><path class="m" d="M504.058,562.186c-5.966-3.444-15.726-3.444-21.691,0s-5.966,9.081,0,12.525,15.726,3.444,21.691,0S510.023,565.632,504.058,562.186Z" transform="translate(-475.668 -549.248)"/><ellipse class="n" cx="15.06" cy="8.695" rx="15.06" ry="8.695" transform="translate(2.485 10.506)"/><path class="o" d="M503.369,562.243c-5.749-3.318-15.155-3.318-20.9,0s-5.748,8.749,0,12.069,15.155,3.318,20.9,0S509.118,565.563,503.369,562.243Z" transform="translate(-475.373 -549.077)"/><path class="p" d="M503.026,562.273c-5.642-3.256-14.87-3.256-20.51,0s-5.642,8.583,0,11.839,14.868,3.258,20.51,0S508.666,565.529,503.026,562.273Z" transform="translate(-475.226 -548.992)"/><path class="q" d="M502.681,562.3c-5.531-3.194-14.585-3.194-20.116,0s-5.531,8.419,0,11.614,14.585,3.195,20.116,0S508.212,565.5,502.681,562.3Z" transform="translate(-475.078 -548.907)"/><path class="r" d="M502.338,562.329c-5.425-3.131-14.3-3.131-19.723,0s-5.425,8.255,0,11.388,14.3,3.131,19.723,0S507.76,565.462,502.338,562.329Z" transform="translate(-474.931 -548.823)"/><path class="s" d="M501.992,562.358c-5.314-3.069-14.012-3.069-19.329,0s-5.314,8.089,0,11.158,14.015,3.069,19.329,0S507.306,565.427,501.992,562.358Z" transform="translate(-474.783 -548.737)"/><path class="t" d="M501.647,562.386c-5.206-3-13.727-3-18.933,0s-5.208,7.926,0,10.933,13.727,3.005,18.933,0S506.854,565.393,501.647,562.386Z" transform="translate(-474.636 -548.652)"/><path class="u" d="M501.3,562.415c-5.1-2.943-13.442-2.943-18.541,0s-5.1,7.759,0,10.7,13.442,2.946,18.541,0S506.4,565.359,501.3,562.415Z" transform="translate(-474.488 -548.566)"/><path class="v" d="M500.958,562.444c-4.989-2.882-13.155-2.882-18.145,0s-4.991,7.6,0,10.478,13.157,2.881,18.145,0S505.949,565.325,500.958,562.444Z" transform="translate(-474.341 -548.482)"/><path class="w" d="M500.615,562.473c-4.882-2.82-12.872-2.82-17.754,0s-4.882,7.43,0,10.25,12.872,2.818,17.754,0S505.5,565.291,500.615,562.473Z" transform="translate(-474.194 -548.397)"/><ellipse class="x" cx="12.275" cy="7.087" rx="12.275" ry="7.087" transform="translate(5.27 12.114)"/><path class="y" d="M499.926,562.529c-4.665-2.692-12.3-2.692-16.967,0s-4.665,7.1,0,9.8,12.3,2.692,16.967,0S504.591,565.223,499.926,562.529Z" transform="translate(-473.899 -548.226)"/><path class="z" d="M499.58,562.558c-4.557-2.631-12.014-2.631-16.571,0s-4.557,6.936,0,9.566,12.014,2.633,16.571,0S504.139,565.188,499.58,562.558Z" transform="translate(-473.751 -548.141)"/><path class="aa" d="M499.238,562.586c-4.45-2.569-11.729-2.569-16.179,0s-4.448,6.772,0,9.341,11.729,2.569,16.179,0S503.686,565.155,499.238,562.586Z" transform="translate(-473.604 -548.057)"/><path class="ab" d="M498.892,562.616c-4.34-2.507-11.444-2.507-15.783,0s-4.342,6.606,0,9.113,11.444,2.505,15.783,0S503.234,565.121,498.892,562.616Z" transform="translate(-473.456 -547.971)"/><path class="ac" d="M498.549,562.643a17.076,17.076,0,0,0-15.391,0c-4.231,2.443-4.231,6.442,0,8.885a17.075,17.075,0,0,0,15.391,0C502.78,569.086,502.78,565.087,498.549,562.643Z" transform="translate(-473.309 -547.886)"/><ellipse class="ad" cx="10.604" cy="6.122" rx="10.604" ry="6.122" transform="translate(6.941 13.078)"/><path class="ae" d="M497.86,562.7a16.2,16.2,0,0,0-14.6,0c-4.016,2.318-4.016,6.112,0,8.43a16.189,16.189,0,0,0,14.6,0C501.876,568.813,501.876,565.018,497.86,562.7Z" transform="translate(-473.013 -547.715)"/><path class="af" d="M497.515,562.729a15.761,15.761,0,0,0-14.208,0c-3.908,2.256-3.908,5.948,0,8.2a15.759,15.759,0,0,0,14.208,0C501.422,568.677,501.422,564.985,497.515,562.729Z" transform="translate(-472.866 -547.631)"/><path class="ag" d="M497.171,562.758a15.318,15.318,0,0,0-13.815,0c-3.8,2.192-3.8,5.783,0,7.974a15.318,15.318,0,0,0,13.815,0C500.97,568.541,500.97,564.951,497.171,562.758Z" transform="translate(-472.718 -547.545)"/><ellipse class="ah" cx="9.49" cy="5.479" rx="9.49" ry="5.479" transform="translate(8.054 13.722)"/><path class="ai" d="M496.483,562.815a14.448,14.448,0,0,0-13.027,0c-3.584,2.069-3.584,5.453,0,7.519a14.449,14.449,0,0,0,13.027,0C500.065,568.268,500.065,564.884,496.483,562.815Z" transform="translate(-472.424 -547.375)"/><path class="aj" d="M496.137,562.843a14.02,14.02,0,0,0-12.633,0c-3.473,2.007-3.473,5.289,0,7.293a14.006,14.006,0,0,0,12.633,0C499.611,568.132,499.611,564.85,496.137,562.843Z" transform="translate(-472.276 -547.29)"/><path class="ak" d="M495.794,562.871a13.579,13.579,0,0,0-12.24,0c-3.367,1.945-3.367,5.125,0,7.068a13.578,13.578,0,0,0,12.24,0C499.159,568,499.159,564.817,495.794,562.871Z" transform="translate(-472.129 -547.205)"/><path class="al" d="M495.448,562.9a13.136,13.136,0,0,0-11.846,0c-3.256,1.881-3.256,4.959,0,6.838a13.137,13.137,0,0,0,11.846,0C498.707,567.86,498.707,564.782,495.448,562.9Z" transform="translate(-471.981 -547.12)"/><path class="am" d="M495.1,562.929a12.7,12.7,0,0,0-11.45,0c-3.15,1.82-3.15,4.795,0,6.612a12.7,12.7,0,0,0,11.45,0C498.253,567.724,498.253,564.748,495.1,562.929Z" transform="translate(-471.834 -547.034)"/><path class="an" d="M494.761,562.958a12.266,12.266,0,0,0-11.058,0c-3.041,1.756-3.041,4.629,0,6.383a12.267,12.267,0,0,0,11.058,0C497.8,567.587,497.8,564.714,494.761,562.958Z" transform="translate(-471.687 -546.949)"/><path class="ao" d="M494.415,562.986a11.835,11.835,0,0,0-10.663,0c-2.933,1.694-2.933,4.465,0,6.157a11.821,11.821,0,0,0,10.663,0C497.347,567.451,497.347,564.68,494.415,562.986Z" transform="translate(-471.539 -546.864)"/><path class="ap" d="M494.072,563.015a11.4,11.4,0,0,0-10.271,0c-2.824,1.63-2.824,4.3,0,5.929a11.4,11.4,0,0,0,10.271,0C496.9,567.312,496.9,564.645,494.072,563.015Z" transform="translate(-471.392 -546.779)"/><path class="aq" d="M493.726,563.044a10.95,10.95,0,0,0-9.875,0c-2.716,1.568-2.716,4.133,0,5.7a10.951,10.951,0,0,0,9.875,0C496.442,567.177,496.442,564.612,493.726,563.044Z" transform="translate(-471.244 -546.694)"/><path class="ar" d="M493.383,563.071a10.526,10.526,0,0,0-9.483,0c-2.607,1.507-2.607,3.969,0,5.476a10.526,10.526,0,0,0,9.483,0C495.99,567.04,495.99,564.578,493.383,563.071Z" transform="translate(-471.097 -546.609)"/><ellipse class="as" cx="6.426" cy="3.71" rx="6.426" ry="3.71" transform="translate(11.118 15.49)"/><path class="at" d="M492.694,563.128a9.657,9.657,0,0,0-8.7,0c-2.39,1.381-2.39,3.639,0,5.021a9.643,9.643,0,0,0,8.7,0C495.084,566.768,495.084,564.51,492.694,563.128Z" transform="translate(-470.802 -546.438)"/><path class="au" d="M492.349,563.159a9.2,9.2,0,0,0-8.3,0c-2.284,1.317-2.284,3.473,0,4.793a9.21,9.21,0,0,0,8.3,0C494.633,566.632,494.633,564.476,492.349,563.159Z" transform="translate(-470.655 -546.354)"/><path class="av" d="M492.006,563.186a8.772,8.772,0,0,0-7.909,0c-2.173,1.256-2.173,3.31,0,4.565a8.773,8.773,0,0,0,7.909,0C494.179,566.5,494.179,564.442,492.006,563.186Z" transform="translate(-470.507 -546.268)"/><ellipse class="aw" cx="5.313" cy="3.067" rx="5.313" ry="3.067" transform="translate(12.232 16.133)"/><path class="ax" d="M491.317,563.243a7.9,7.9,0,0,0-7.119,0c-1.958,1.13-1.958,2.979,0,4.11a7.9,7.9,0,0,0,7.119,0C493.274,566.223,493.274,564.373,491.317,563.243Z" transform="translate(-470.212 -546.098)"/><path class="ay" d="M490.972,563.271a7.471,7.471,0,0,0-6.725,0c-1.849,1.068-1.849,2.816,0,3.884a7.456,7.456,0,0,0,6.725,0C492.821,566.087,492.821,564.339,490.972,563.271Z" transform="translate(-470.065 -546.013)"/><path class="az" d="M490.628,563.3a7.013,7.013,0,0,0-6.332,0c-1.741,1-1.741,2.65,0,3.654a7.016,7.016,0,0,0,6.332,0C492.369,565.951,492.369,564.306,490.628,563.3Z" transform="translate(-469.917 -545.928)"/><path class="ba" d="M490.283,563.329a6.586,6.586,0,0,0-5.938,0c-1.633.943-1.633,2.486,0,3.429a6.586,6.586,0,0,0,5.938,0C491.915,565.815,491.915,564.272,490.283,563.329Z" transform="translate(-469.77 -545.843)"/><path class="bb" d="M489.938,563.358a6.14,6.14,0,0,0-5.542,0c-1.526.879-1.526,2.32,0,3.2a6.155,6.155,0,0,0,5.542,0C491.464,565.678,491.464,564.237,489.938,563.358Z" transform="translate(-469.622 -545.757)"/><path class="bc" d="M489.594,563.386a5.716,5.716,0,0,0-5.15,0c-1.415.817-1.415,2.156,0,2.973a5.717,5.717,0,0,0,5.15,0C491.009,565.542,491.009,564.2,489.594,563.386Z" transform="translate(-469.475 -545.672)"/><ellipse class="bd" cx="3.363" cy="1.942" rx="3.363" ry="1.942" transform="translate(14.181 17.259)"/><path class="be" d="M502.469,564.084h-1.134a7.829,7.829,0,0,0-2.075-1.681,17.252,17.252,0,0,0-15.557,0,7.828,7.828,0,0,0-2.075,1.681H480.52v2.379h.009c-.206,1.769.845,3.578,3.173,4.923a17.265,17.265,0,0,0,15.557,0c2.328-1.345,3.38-3.154,3.175-4.923h.034Z" transform="translate(-472.723 -548.181)"/><path class="bf" d="M483.627,560.958c-.372.126-.736.266-1.085.417v10.114c.349.153.713.292,1.085.417Z" transform="translate(-470.423 -547.72)"/><path class="bf" d="M481.522,562.132v7.587a9.066,9.066,0,0,0,1.03.7l.055.028v-9.041l-.055.03A8.762,8.762,0,0,0,481.522,562.132Z" transform="translate(-471.574 -547.214)"/><path class="bf" d="M484.645,560.695c-.366.068-.728.149-1.083.238v11.59q.533.138,1.083.241Z" transform="translate(-469.272 -548.017)"/><path class="bf" d="M489.68,561.657v7.979a7.258,7.258,0,0,0,1.083-.951V562.6A7.472,7.472,0,0,0,489.68,561.657Z" transform="translate(-462.369 -546.931)"/><path class="bf" d="M490.7,566.362a3.831,3.831,0,0,0,.232-1.773h.034V562.21H490.7Z" transform="translate(-461.22 -546.307)"/><path class="bf" d="M488.725,561.079q-.53-.169-1.085-.3V572.5c.37-.087.732-.189,1.085-.3Z" transform="translate(-464.671 -547.926)"/><path class="bf" d="M481.588,567.786V562.21H480.52v2.379h.009A4.2,4.2,0,0,0,481.588,567.786Z" transform="translate(-472.723 -546.307)"/><path class="bf" d="M489.745,561.614q-.52-.278-1.085-.511v10.33q.565-.233,1.085-.511Z" transform="translate(-463.52 -547.556)"/><path class="bf" d="M485.667,560.569c-.364.023-.726.057-1.086.1v12.4c.36.045.721.079,1.086.1Z" transform="translate(-468.122 -548.159)"/><path class="bf" d="M486.686,573.21V560.575c-.362-.019-.724-.026-1.085-.023v12.682C485.963,573.236,486.325,573.227,486.686,573.21Z" transform="translate(-466.971 -548.179)"/><path class="bf" d="M487.7,560.75c-.358-.06-.719-.109-1.083-.149v12.467c.364-.038.726-.087,1.083-.149Z" transform="translate(-465.82 -548.123)"/><path class="bg" d="M499.265,560.922a17.252,17.252,0,0,0-15.557,0c-4.28,2.471-4.28,6.513,0,8.983a17.252,17.252,0,0,0,15.557,0C503.545,567.435,503.545,563.393,499.265,560.922Z" transform="translate(-472.729 -549.851)"/><path class="bf" d="M497.91,560.94a15.538,15.538,0,0,0-14.008,0c-3.852,2.224-3.852,5.863,0,8.087a15.54,15.54,0,0,0,14.008,0C501.762,566.8,501.762,563.164,497.91,560.94Z" transform="translate(-472.148 -549.622)"/><ellipse class="bg" cx="8.69" cy="4.927" rx="8.69" ry="4.927" transform="translate(10.067 10.345)"/><path class="bh" d="M488.342,565.735h-3.056c-.7,0-1.275-.332-1.275-.74v-.381h1.815v.066h2.516c.485,0,.877-.228.877-.509,0-.183-.255-.332-.57-.332H486.4c-1.315,0-2.386-.623-2.386-1.388v-.192c0-.864,1.209-1.564,2.692-1.564h3.056c.7,0,1.275.332,1.275.741v.432h-1.815v-.119H486.7c-.483,0-.877.23-.877.511v.192c0,.183.255.332.57.332h2.252c1.315,0,2.386.621,2.386,1.388C491.034,565.032,489.828,565.735,488.342,565.735Z" transform="translate(-468.765 -548.017)"/><rect class="bh" width="1.815" height="6.214" transform="translate(17.85 12.165)"/><path class="be" d="M502.469,561.92h-1.134a7.832,7.832,0,0,0-2.075-1.681,17.252,17.252,0,0,0-15.557,0,7.831,7.831,0,0,0-2.075,1.681H480.52V564.3h.009c-.206,1.769.845,3.578,3.173,4.923a17.265,17.265,0,0,0,15.557,0c2.328-1.345,3.38-3.154,3.175-4.923h.034Z" transform="translate(-472.723 -550.623)"/><path class="bf" d="M483.627,558.794c-.372.126-.736.266-1.085.417v10.113c.349.153.713.292,1.085.417Z" transform="translate(-470.423 -550.161)"/><path class="bf" d="M481.522,559.968v7.587a9.067,9.067,0,0,0,1.03.7l.055.027v-9.041l-.055.03A8.74,8.74,0,0,0,481.522,559.968Z" transform="translate(-471.574 -549.656)"/><path class="bf" d="M484.645,558.531c-.366.068-.728.149-1.083.238v11.59c.355.092.717.17,1.083.241Z" transform="translate(-469.272 -550.458)"/><path class="bf" d="M489.68,559.493v7.979a7.265,7.265,0,0,0,1.083-.951V560.44A7.468,7.468,0,0,0,489.68,559.493Z" transform="translate(-462.369 -549.373)"/><path class="bf" d="M490.7,564.2a3.832,3.832,0,0,0,.232-1.773h.034v-2.379H490.7Z" transform="translate(-461.22 -548.749)"/><path class="bf" d="M488.725,558.913c-.353-.111-.715-.213-1.085-.3v11.727c.37-.087.732-.189,1.085-.3Z" transform="translate(-464.671 -550.368)"/><path class="bf" d="M481.588,565.622v-5.576H480.52v2.379h.009A4.2,4.2,0,0,0,481.588,565.622Z" transform="translate(-472.723 -548.749)"/><path class="bf" d="M489.745,559.45q-.52-.278-1.085-.511V569.27q.565-.233,1.085-.511Z" transform="translate(-463.52 -549.998)"/><path class="bf" d="M485.667,558.405c-.364.023-.726.057-1.086.1v12.4q.539.067,1.086.1Z" transform="translate(-468.122 -550.6)"/><path class="bf" d="M486.686,571.046V558.411c-.362-.019-.724-.026-1.085-.023v12.682Q486.144,571.073,486.686,571.046Z" transform="translate(-466.971 -550.621)"/><path class="bf" d="M487.7,558.586c-.358-.06-.719-.109-1.083-.149V570.9c.364-.038.726-.087,1.083-.149Z" transform="translate(-465.82 -550.564)"/><ellipse class="bg" cx="11.002" cy="6.352" rx="11.002" ry="6.352" transform="translate(7.756 4.606)"/><path class="bf" d="M497.91,558.776a15.539,15.539,0,0,0-14.008,0c-3.852,2.224-3.852,5.864,0,8.087a15.539,15.539,0,0,0,14.008,0C501.762,564.64,501.762,561,497.91,558.776Z" transform="translate(-472.148 -552.063)"/><path class="bg" d="M496.406,558.875a13.845,13.845,0,0,0-12.289,0c-3.38,1.915-3.38,5.05,0,6.968a13.859,13.859,0,0,0,12.289,0C499.786,563.926,499.786,560.791,496.406,558.875Z" transform="translate(-471.505 -551.692)"/><path class="bh" d="M488.342,563.571h-3.056c-.7,0-1.275-.332-1.275-.74v-.381h1.815v.066h2.516c.485,0,.877-.228.877-.509,0-.183-.255-.332-.57-.332H486.4c-1.315,0-2.386-.624-2.386-1.388V560.1c0-.864,1.209-1.564,2.692-1.564h3.056c.7,0,1.275.332,1.275.741v.432h-1.815v-.119H486.7c-.483,0-.877.23-.877.511v.192c0,.183.255.332.57.332h2.252c1.315,0,2.386.621,2.386,1.388C491.034,562.868,489.828,563.571,488.342,563.571Z" transform="translate(-468.765 -550.458)"/><rect class="bh" width="1.815" height="6.214" transform="translate(17.85 7.559)"/><path class="be" d="M502.469,559.756h-1.134a7.826,7.826,0,0,0-2.075-1.682,17.253,17.253,0,0,0-15.557,0,7.825,7.825,0,0,0-2.075,1.682H480.52v2.379h.009c-.206,1.769.845,3.578,3.173,4.923a17.266,17.266,0,0,0,15.557,0c2.328-1.345,3.38-3.154,3.175-4.923h.034Z" transform="translate(-472.723 -553.064)"/><path class="bf" d="M483.627,556.63c-.372.126-.736.266-1.085.417v10.114c.349.153.713.292,1.085.417Z" transform="translate(-470.423 -552.603)"/><path class="bf" d="M481.522,557.8v7.587a9.058,9.058,0,0,0,1.03.7l.055.028v-9.041l-.055.03A8.748,8.748,0,0,0,481.522,557.8Z" transform="translate(-471.574 -552.098)"/><path class="bf" d="M484.645,556.367c-.366.068-.728.149-1.083.238V568.2c.355.092.717.17,1.083.241Z" transform="translate(-469.272 -552.9)"/><path class="bf" d="M489.68,557.329v7.979a7.257,7.257,0,0,0,1.083-.951v-6.08A7.469,7.469,0,0,0,489.68,557.329Z" transform="translate(-462.369 -551.814)"/><path class="bf" d="M490.7,562.034a3.831,3.831,0,0,0,.232-1.773h.034v-2.379H490.7Z" transform="translate(-461.22 -551.19)"/><path class="bf" d="M488.725,556.749c-.353-.111-.715-.213-1.085-.3v11.727c.37-.087.732-.19,1.085-.3Z" transform="translate(-464.671 -552.809)"/><path class="bf" d="M481.588,563.458v-5.576H480.52v2.379h.009A4.2,4.2,0,0,0,481.588,563.458Z" transform="translate(-472.723 -551.19)"/><path class="bf" d="M489.745,557.286q-.52-.278-1.085-.511v10.331q.565-.233,1.085-.511Z" transform="translate(-463.52 -552.439)"/><path class="bf" d="M485.667,556.241c-.364.023-.726.057-1.086.1v12.4c.36.045.721.079,1.086.1Z" transform="translate(-468.122 -553.042)"/><path class="bf" d="M486.686,568.882V556.247c-.362-.019-.724-.026-1.085-.023v12.682C485.963,568.907,486.325,568.9,486.686,568.882Z" transform="translate(-466.971 -553.062)"/><path class="bf" d="M487.7,556.422q-.536-.089-1.083-.149V568.74c.364-.038.726-.087,1.083-.149Z" transform="translate(-465.82 -553.006)"/><ellipse class="bg" cx="11.002" cy="6.352" rx="11.002" ry="6.352" transform="translate(7.756)"/><path class="bf" d="M497.91,556.612a15.539,15.539,0,0,0-14.008,0c-3.852,2.224-3.852,5.863,0,8.087a15.539,15.539,0,0,0,14.008,0C501.762,562.476,501.762,558.836,497.91,556.612Z" transform="translate(-472.148 -554.505)"/><path class="bg" d="M496.406,556.711a13.844,13.844,0,0,0-12.289,0c-3.38,1.916-3.38,5.05,0,6.968a13.859,13.859,0,0,0,12.289,0C499.786,561.762,499.786,558.627,496.406,556.711Z" transform="translate(-471.505 -554.134)"/><path class="bh" d="M488.342,561.407h-3.056c-.7,0-1.275-.332-1.275-.741v-.381h1.815v.066h2.516c.485,0,.877-.228.877-.509,0-.185-.255-.332-.57-.332H486.4c-1.315,0-2.386-.623-2.386-1.387v-.192c0-.864,1.209-1.564,2.692-1.564h3.056c.7,0,1.275.332,1.275.741v.43h-1.815v-.117H486.7c-.483,0-.877.23-.877.511v.192c0,.183.255.332.57.332h2.252c1.315,0,2.386.621,2.386,1.387C491.034,560.7,489.828,561.407,488.342,561.407Z" transform="translate(-468.765 -552.9)"/><rect class="bh" width="1.815" height="6.214" transform="translate(17.85 2.953)"/></g><path class="bi" d="M515.349,580.2l-.143-70.245a3.228,3.228,0,0,0-.17-.939,6.414,6.414,0,0,0-3.1-3.663l-29.679-16.2v70.381a6.791,6.791,0,0,0,3.359,5.859l31.747,18.616A4.608,4.608,0,0,1,515.349,580.2Z" transform="translate(-389.954 -484.696)"/><path class="bj" d="M498.769,533.731l-.015-.009a4.4,4.4,0,0,0,.547.321Z" transform="translate(-371.343 -434.41)"/><path class="bk" d="M491.316,488.46a11.1,11.1,0,0,0-4.457-1.373,6.208,6.208,0,0,0-3.577.641c-4.665,2.692-8.483,9.3-8.483,14.691v81.063l3.22,1.833-8.711,19.075,26.684,15.647.532.313a4.607,4.607,0,0,0,2.241.479l1.909-.075a18.043,18.043,0,0,0,10.86-16.364h0v-.023c0-.057.008-.113.008-.17V520.1a18.168,18.168,0,0,1,8.381-12.193c2.133-1.232,4.082-1.434,5.576-.783Z" transform="translate(-404.566 -487.058)"/><path class="bl" d="M495.711,496.486l.7.379A4,4,0,0,0,495.711,496.486Z" transform="translate(-374.777 -476.421)"/><path class="bm" d="M474.719,491.209l26.923,15.544v2.322l-26.923-15.544Z" transform="translate(-398.461 -482.376)"/><path class="bm" d="M474.719,494.647l26.923,15.544v2.322L474.719,496.97Z" transform="translate(-398.461 -478.496)"/><path class="bm" d="M474.719,498.086l26.923,15.544v2.322l-26.923-15.544Z" transform="translate(-398.461 -474.616)"/><path class="bm" d="M474.719,501.525l26.923,15.544v2.322l-26.923-15.544Z" transform="translate(-398.461 -470.737)"/><path class="bm" d="M474.719,504.963l26.923,15.544v2.322l-26.923-15.544Z" transform="translate(-398.461 -466.857)"/><path class="bm" d="M474.719,508.4l26.923,15.544v2.322l-26.923-15.544Z" transform="translate(-398.461 -462.977)"/><path class="bm" d="M474.719,511.84l26.923,15.544v2.322l-26.923-15.544Z" transform="translate(-398.461 -459.098)"/><path class="bm" d="M474.719,515.279l26.923,15.544v2.322L474.719,517.6Z" transform="translate(-398.461 -455.218)"/><path class="bm" d="M474.719,518.718l26.923,15.544v2.322L474.719,521.04Z" transform="translate(-398.461 -451.338)"/><path class="bm" d="M474.719,522.156,501.642,537.7v2.322l-26.923-15.544Z" transform="translate(-398.461 -447.459)"/><path class="bm" d="M474.719,525.6l26.923,15.544v2.322l-26.923-15.544Z" transform="translate(-398.461 -443.579)"/><path class="bm" d="M474.719,529.525l26.923,15.544v2.322l-26.923-15.544Z" transform="translate(-398.461 -439.145)"/><path class="bm" d="M474.719,533.454,501.642,549v2.322l-26.923-15.544Z" transform="translate(-398.461 -434.712)"/><path class="bm" d="M474.719,537.384l26.923,15.544v2.322l-26.923-15.544Z" transform="translate(-398.461 -430.278)"/><path class="bi" d="M498.434,603.776l-.143-84.883a3.252,3.252,0,0,0-.17-.938,6.424,6.424,0,0,0-3.1-3.663l-29.681-16.2v85.017a6.8,6.8,0,0,0,3.358,5.861l31.747,18.616A4.621,4.621,0,0,1,498.434,603.776Z" transform="translate(-409.038 -474.613)"/><path class="bn" d="M481.854,549.546l-.015-.009a4.508,4.508,0,0,0,.547.321Z" transform="translate(-390.428 -416.566)"/><path class="bk" d="M472.042,497.676a11.169,11.169,0,0,0-4.15-1.345,6.458,6.458,0,0,0-3.884.613c-4.665,2.692-8.483,9.3-8.483,14.691v75.542a5.16,5.16,0,0,0,2.609,4.486l33.714,19.188,2.379,1.4a4.618,4.618,0,0,1-1.967-3.163V529.347a18.176,18.176,0,0,1,8.39-12.225c2.13-1.232,4.082-1.434,5.576-.783Z" transform="translate(-420.118 -476.66)"/><path class="bo" d="M479.347,505.7l.7.379A4,4,0,0,0,479.347,505.7Z" transform="translate(-393.239 -466.023)"/><path class="bp" d="M473.724,550.775l-.015-.008a4.677,4.677,0,0,0,.547.321Z" transform="translate(-399.6 -415.179)"/><path class="bm" d="M457.905,503.042l26.923,15.544v2.322l-26.923-15.544Z" transform="translate(-417.431 -469.024)"/><path class="bm" d="M457.905,506.481l26.923,15.544v2.322L457.905,508.8Z" transform="translate(-417.431 -465.145)"/><path class="bm" d="M457.905,509.919l26.923,15.544v2.322l-26.923-15.544Z" transform="translate(-417.431 -461.265)"/><path class="bm" d="M457.905,513.358,484.828,528.9v2.322L457.905,515.68Z" transform="translate(-417.431 -457.386)"/><path class="bm" d="M457.905,516.8l26.923,15.544v2.322l-26.923-15.544Z" transform="translate(-417.431 -453.506)"/><path class="bm" d="M457.905,520.235l26.923,15.544V538.1l-26.923-15.544Z" transform="translate(-417.431 -449.626)"/><path class="bm" d="M457.905,523.674l26.923,15.544v2.322L457.905,526Z" transform="translate(-417.431 -445.747)"/><path class="bm" d="M457.905,527.113l26.923,15.544v2.322l-26.923-15.544Z" transform="translate(-417.431 -441.867)"/><path class="bm" d="M457.905,530.551,484.828,546.1v2.322l-26.923-15.544Z" transform="translate(-417.431 -437.987)"/><path class="bm" d="M457.905,533.99l26.923,15.544v2.322l-26.923-15.544Z" transform="translate(-417.431 -434.107)"/><path class="bm" d="M457.905,537.429l26.923,15.544v2.322l-26.923-15.544Z" transform="translate(-417.431 -430.228)"/><g transform="translate(5.828 41.781)"><g class="bq" transform="translate(0 94.314)"><path class="br" d="M468.157,551.005l-26.531,14.914,40.27,23.25,26.535-14.911Z" transform="translate(-441.626 -551.005)"/><path class="bs" d="M467.892,551.005,441.86,565.639l40.27,23.25,26.036-14.632Z" transform="translate(-441.361 -551.005)"/><path class="bt" d="M467.628,551.005,442.095,565.36l40.27,23.249L507.9,574.258Z" transform="translate(-441.097 -551.005)"/><path class="bu" d="M467.363,551.005l-25.034,14.075L482.6,588.33l25.039-14.072Z" transform="translate(-440.833 -551.005)"/><path class="bv" d="M467.1,551.005l-24.535,13.8,40.27,23.25,24.54-13.793Z" transform="translate(-440.568 -551.005)"/><path class="bw" d="M466.834,551.005,442.8,564.521l40.27,23.25,24.041-13.514Z" transform="translate(-440.303 -551.005)"/><path class="bx" d="M466.57,551.005l-23.537,13.237,40.27,23.25,23.542-13.235Z" transform="translate(-440.039 -551.005)"/><path class="by" d="M466.305,551.005l-23.038,12.957,40.27,23.25,23.043-12.955Z" transform="translate(-439.775 -551.005)"/><path class="bz" d="M466.041,551.005,443.5,563.683l40.27,23.25,22.544-12.675Z" transform="translate(-439.51 -551.005)"/><path class="ca" d="M465.776,551.005l-22.04,12.4,40.27,23.25,22.045-12.4Z" transform="translate(-439.246 -551.005)"/><path class="cb" d="M465.512,551.005,443.97,563.124l40.27,23.25,21.546-12.116Z" transform="translate(-438.981 -551.005)"/><path class="cc" d="M465.247,551.005,444.2,562.845l40.27,23.25,21.048-11.837Z" transform="translate(-438.717 -551.005)"/><path class="cd" d="M464.983,551.005l-20.544,11.56,40.27,23.25,20.549-11.557Z" transform="translate(-438.452 -551.005)"/><path class="ce" d="M464.718,551.005l-20.045,11.28,40.27,23.25,20.05-11.278Z" transform="translate(-438.188 -551.005)"/><path class="cf" d="M464.454,551.005l-19.546,11,40.27,23.25,19.551-11Z" transform="translate(-437.923 -551.005)"/><path class="cg" d="M464.189,551.005l-19.047,10.722,40.27,23.25,19.052-10.719Z" transform="translate(-437.659 -551.005)"/><path class="ch" d="M463.925,551.005l-18.548,10.442,40.27,23.249L504.2,574.258Z" transform="translate(-437.394 -551.005)"/><path class="ci" d="M463.66,551.005l-18.049,10.163,40.27,23.25,18.054-10.16Z" transform="translate(-437.13 -551.005)"/><path class="cj" d="M463.4,551.005l-17.55,9.883,40.27,23.25,17.555-9.88Z" transform="translate(-436.865 -551.005)"/><path class="ck" d="M463.132,551.005l-17.052,9.6,40.27,23.25,17.056-9.6Z" transform="translate(-436.601 -551.005)"/><path class="cl" d="M462.867,551.005l-16.553,9.324,40.27,23.25,16.557-9.322Z" transform="translate(-436.336 -551.005)"/><path class="cm" d="M462.6,551.005l-16.054,9.045,40.27,23.25,16.059-9.042Z" transform="translate(-436.072 -551.005)"/><path class="cn" d="M462.338,551.005l-15.555,8.765,40.27,23.25,15.56-8.763Z" transform="translate(-435.807 -551.005)"/><path class="co" d="M462.074,551.005l-15.056,8.486,40.27,23.25,15.061-8.483Z" transform="translate(-435.543 -551.005)"/><path class="cp" d="M461.809,551.005l-14.557,8.206,40.27,23.25,14.562-8.2Z" transform="translate(-435.278 -551.005)"/><path class="cq" d="M461.545,551.005l-14.058,7.927,40.27,23.25,14.063-7.924Z" transform="translate(-435.014 -551.005)"/><path class="cr" d="M461.28,551.005l-13.559,7.647,40.27,23.25,13.564-7.645Z" transform="translate(-434.749 -551.005)"/><path class="cs" d="M461.016,551.005l-13.06,7.368,40.27,23.25,13.065-7.365Z" transform="translate(-434.485 -551.005)"/><path class="ct" d="M460.751,551.005l-12.562,7.089,40.27,23.25,12.566-7.086Z" transform="translate(-434.221 -551.005)"/><path class="cu" d="M460.487,551.005l-12.063,6.809,40.27,23.25,12.067-6.806Z" transform="translate(-433.956 -551.005)"/><path class="cv" d="M460.222,551.005l-11.564,6.53,40.27,23.25,11.568-6.527Z" transform="translate(-433.692 -551.005)"/><path class="cw" d="M459.958,551.005l-11.065,6.25,40.27,23.25,11.07-6.247Z" transform="translate(-433.427 -551.005)"/><path class="cx" d="M459.693,551.005l-10.566,5.971,40.27,23.25,10.571-5.968Z" transform="translate(-433.163 -551.005)"/><path class="cy" d="M459.429,551.005,449.362,556.7l40.27,23.25,10.072-5.688Z" transform="translate(-432.898 -551.005)"/><path class="cz" d="M459.164,551.005l-9.568,5.412,40.27,23.25,9.573-5.409Z" transform="translate(-432.634 -551.005)"/><path class="da" d="M458.9,551.005l-9.069,5.132,40.27,23.25,9.074-5.129Z" transform="translate(-432.369 -551.005)"/><path class="db" d="M458.635,551.005l-8.57,4.853,40.27,23.25,8.575-4.85Z" transform="translate(-432.105 -551.005)"/><path class="dc" d="M458.371,551.005l-8.071,4.573,40.27,23.25,8.076-4.57Z" transform="translate(-431.84 -551.005)"/><path class="dd" d="M458.106,551.005l-7.573,4.294,40.27,23.25,7.577-4.291Z" transform="translate(-431.576 -551.005)"/><path class="de" d="M457.842,551.005l-7.074,4.014,40.27,23.25,7.078-4.012Z" transform="translate(-431.311 -551.005)"/><path class="df" d="M457.577,551.005,451,554.74l40.27,23.25,6.579-3.732Z" transform="translate(-431.047 -551.005)"/><path class="dg" d="M457.313,551.005l-6.076,3.455,40.27,23.25,6.081-3.453Z" transform="translate(-430.782 -551.005)"/><path class="dh" d="M457.049,551.005l-5.577,3.176,40.27,23.25,5.582-3.173Z" transform="translate(-430.518 -551.005)"/><path class="di" d="M456.784,551.005l-5.078,2.9,40.27,23.25,5.083-2.894Z" transform="translate(-430.253 -551.005)"/><path class="dj" d="M456.52,551.005l-4.579,2.617,40.27,23.25,4.584-2.614Z" transform="translate(-429.989 -551.005)"/><path class="dk" d="M456.255,551.005l-4.08,2.337,40.27,23.25,4.085-2.335Z" transform="translate(-429.724 -551.005)"/><path class="dl" d="M455.991,551.005l-3.581,2.058,40.27,23.25,3.586-2.055Z" transform="translate(-429.46 -551.005)"/><path class="dm" d="M455.726,551.005l-3.083,1.778,40.27,23.25L496,574.258Z" transform="translate(-429.195 -551.005)"/><path class="dn" d="M455.461,551.005l-2.583,1.5,40.27,23.25,2.588-1.5Z" transform="translate(-428.931 -551.005)"/><path class="do" d="M455.2,551.005l-2.085,1.219,40.27,23.25,2.089-1.217Z" transform="translate(-428.666 -551.005)"/><path class="dp" d="M454.933,551.005l-1.586.94,40.27,23.25,1.591-.937Z" transform="translate(-428.402 -551.005)"/><path class="dq" d="M454.668,551.005l-1.087.66,40.27,23.25,1.092-.658Z" transform="translate(-428.137 -551.005)"/></g><g transform="translate(23.183)"><path class="dr" d="M453.9,508.18l-.443,2.194c-.538.372-.581,2.773-.581,3.427l.7,83.187c0,4.01,2.1,6.94,5.578,8.945l29.742,17.543c.492.283,1.09,1.583,1.626,1.4l2.826.585a7.4,7.4,0,0,0,4.948-6.979V535.685a14.011,14.011,0,0,0-6.317-10.939l-28.2-16.264C460.263,506.458,457.233,505.873,453.9,508.18Z" transform="translate(-452.114 -506.69)"/><path class="dq" d="M458.836,508.026c-3.475-2-6.317-.364-6.317,3.646v84.36a14.019,14.019,0,0,0,6.317,10.939l30.6,17.667c3.473,2,6.314.364,6.314-3.648V536.632a14.015,14.015,0,0,0-6.314-10.939Z" transform="translate(-452.519 -506.147)"/><path class="ds" d="M459.11,510.368c-3.043-1.758-5.533-.319-5.533,3.2v20.027a12.275,12.275,0,0,0,5.533,9.586l26.818,15.483c3.045,1.758,5.536.321,5.536-3.195V535.438a12.278,12.278,0,0,0-5.536-9.588Z" transform="translate(-451.325 -503.387)"/><g transform="translate(12.906 64.426)"><path class="dt" d="M465.305,540.559a1.194,1.194,0,0,0-.6-1.034l-4.3-2.48a.627.627,0,0,0-.555-.036h0a.69.69,0,0,0-.119.062l-.922.472.632.609v4.41a1.191,1.191,0,0,0,.6,1.032l4.012,2.318-.062.613.738-.372a.649.649,0,0,0,.4-.2h0a.624.624,0,0,0,.172-.432Z" transform="translate(-458.32 -536.961)"/><path class="du" d="M458.583,537.87v4.959a1.193,1.193,0,0,0,.6,1.032l4.295,2.482a.643.643,0,0,0,.964-.557v-4.959a1.192,1.192,0,0,0-.6-1.034l-4.295-2.48A.643.643,0,0,0,458.583,537.87Z" transform="translate(-458.583 -536.664)"/></g><g transform="translate(22.464 69.887)"><path class="dt" d="M469.8,543.125a1.2,1.2,0,0,0-.6-1.034l-4.295-2.479a.628.628,0,0,0-.556-.036h0a.57.57,0,0,0-.119.062l-.924.473.634.609v4.41a1.193,1.193,0,0,0,.6,1.032l4.014,2.318-.062.613.736-.372a.653.653,0,0,0,.4-.2h0a.632.632,0,0,0,.17-.432Z" transform="translate(-462.812 -539.527)"/><path class="du" d="M463.074,540.436v4.959a1.188,1.188,0,0,0,.6,1.032l4.295,2.479a.641.641,0,0,0,.964-.555v-4.959a1.2,1.2,0,0,0-.6-1.034l-4.295-2.479A.643.643,0,0,0,463.074,540.436Z" transform="translate(-463.074 -539.23)"/></g><g transform="translate(32.02 75.348)"><path class="dt" d="M474.286,545.691a1.194,1.194,0,0,0-.6-1.034l-4.295-2.479a.632.632,0,0,0-.558-.036h0a.723.723,0,0,0-.119.062l-.922.473.634.609v4.41a1.189,1.189,0,0,0,.6,1.032l4.012,2.318-.062.613.739-.372a.647.647,0,0,0,.4-.2h0a.624.624,0,0,0,.172-.432Z" transform="translate(-467.301 -542.093)"/><path class="du" d="M467.564,543v4.959a1.193,1.193,0,0,0,.6,1.032l4.295,2.481a.643.643,0,0,0,.964-.558v-4.959a1.2,1.2,0,0,0-.6-1.034l-4.295-2.479A.643.643,0,0,0,467.564,543Z" transform="translate(-467.564 -541.796)"/></g><g transform="translate(12.906 52.589)"><path class="dt" d="M465.305,535a1.193,1.193,0,0,0-.6-1.032l-4.3-2.479a.628.628,0,0,0-.555-.038h0a.7.7,0,0,0-.119.062l-.922.472.632.611V537a1.192,1.192,0,0,0,.6,1.034l4.012,2.315-.062.613.738-.373a.634.634,0,0,0,.4-.2h0a.63.63,0,0,0,.172-.434Z" transform="translate(-458.32 -531.4)"/><path class="du" d="M458.583,532.307v4.959a1.194,1.194,0,0,0,.6,1.034l4.295,2.48a.643.643,0,0,0,.964-.558v-4.959a1.189,1.189,0,0,0-.6-1.032l-4.295-2.479A.642.642,0,0,0,458.583,532.307Z" transform="translate(-458.583 -531.102)"/></g><g transform="translate(22.464 58.05)"><path class="dt" d="M469.8,537.563a1.194,1.194,0,0,0-.6-1.032l-4.295-2.479a.629.629,0,0,0-.556-.038h0a.585.585,0,0,0-.119.062l-.924.473.634.611v4.407a1.194,1.194,0,0,0,.6,1.034l4.014,2.316-.062.613.736-.372a.64.64,0,0,0,.4-.2h0a.638.638,0,0,0,.17-.434Z" transform="translate(-462.812 -533.966)"/><path class="du" d="M463.074,534.873v4.961a1.189,1.189,0,0,0,.6,1.032l4.295,2.479a.643.643,0,0,0,.964-.558v-4.959a1.193,1.193,0,0,0-.6-1.032l-4.295-2.479A.642.642,0,0,0,463.074,534.873Z" transform="translate(-463.074 -533.668)"/></g><g transform="translate(32.02 63.511)"><path class="dt" d="M474.286,540.129a1.193,1.193,0,0,0-.6-1.032l-4.295-2.479a.633.633,0,0,0-.558-.038h0a.714.714,0,0,0-.119.062l-.922.475.634.609v4.408a1.19,1.19,0,0,0,.6,1.034l4.012,2.316-.062.613.739-.372a.635.635,0,0,0,.4-.2h0a.63.63,0,0,0,.172-.434Z" transform="translate(-467.301 -536.532)"/><path class="du" d="M467.564,537.439V542.4a1.194,1.194,0,0,0,.6,1.034l4.295,2.479a.643.643,0,0,0,.964-.557v-4.959a1.188,1.188,0,0,0-.6-1.032l-4.295-2.48A.643.643,0,0,0,467.564,537.439Z" transform="translate(-467.564 -536.234)"/></g><g transform="translate(12.906 76.407)"><path class="dt" d="M465.305,546.188a1.193,1.193,0,0,0-.6-1.032l-4.3-2.48a.62.62,0,0,0-.555-.036h0a.678.678,0,0,0-.119.06l-.922.474.632.609v4.41a1.191,1.191,0,0,0,.6,1.032l4.012,2.318-.062.611.738-.37a.648.648,0,0,0,.4-.2h0a.628.628,0,0,0,.172-.432Z" transform="translate(-458.32 -542.591)"/><path class="du" d="M458.583,543.5v4.961a1.193,1.193,0,0,0,.6,1.032l4.295,2.479a.642.642,0,0,0,.964-.555v-4.961a1.189,1.189,0,0,0-.6-1.032l-4.295-2.479A.643.643,0,0,0,458.583,543.5Z" transform="translate(-458.583 -542.293)"/></g><g transform="translate(22.464 81.868)"><path class="dt" d="M469.8,548.754a1.193,1.193,0,0,0-.6-1.032l-4.295-2.479a.621.621,0,0,0-.556-.036h0a.575.575,0,0,0-.119.06l-.924.475.634.609v4.41a1.193,1.193,0,0,0,.6,1.032l4.014,2.315-.062.613.736-.37a.653.653,0,0,0,.4-.2h0a.631.631,0,0,0,.17-.432Z" transform="translate(-462.812 -545.157)"/><path class="du" d="M463.074,546.066v4.959a1.188,1.188,0,0,0,.6,1.032l4.295,2.479a.642.642,0,0,0,.964-.555V549.02a1.193,1.193,0,0,0-.6-1.032l-4.295-2.479A.643.643,0,0,0,463.074,546.066Z" transform="translate(-463.074 -544.859)"/></g><g transform="translate(12.906 88.388)"><path class="dt" d="M465.305,551.818a1.193,1.193,0,0,0-.6-1.032l-4.3-2.482a.635.635,0,0,0-.555-.036h0a.721.721,0,0,0-.119.062l-.922.473.632.611v4.408a1.194,1.194,0,0,0,.6,1.034l4.012,2.316-.062.613.738-.372a.635.635,0,0,0,.4-.2h0a.629.629,0,0,0,.172-.434Z" transform="translate(-458.32 -548.221)"/><path class="du" d="M458.583,549.128v4.959a1.194,1.194,0,0,0,.6,1.034l4.295,2.479a.643.643,0,0,0,.964-.558v-4.959a1.189,1.189,0,0,0-.6-1.032l-4.295-2.479A.642.642,0,0,0,458.583,549.128Z" transform="translate(-458.583 -547.923)"/></g><g transform="translate(3.235 59.774)"><path class="dt" d="M460.761,538.373a1.194,1.194,0,0,0-.6-1.034l-4.295-2.479a.638.638,0,0,0-.558-.036h0a.725.725,0,0,0-.119.062l-.922.473.634.609v4.41a1.19,1.19,0,0,0,.6,1.033l4.012,2.317-.062.613.739-.372a.637.637,0,0,0,.4-.2h0a.624.624,0,0,0,.172-.432Z" transform="translate(-453.776 -534.776)"/><path class="du" d="M454.039,535.684v4.959a1.2,1.2,0,0,0,.6,1.034l4.295,2.479a.644.644,0,0,0,.966-.558V538.64a1.191,1.191,0,0,0-.6-1.032L455,535.126A.643.643,0,0,0,454.039,535.684Z" transform="translate(-454.039 -534.478)"/></g><g transform="translate(3.235 47.937)"><path class="dt" d="M460.761,532.811a1.192,1.192,0,0,0-.6-1.032L455.87,529.3a.632.632,0,0,0-.558-.038h0a.706.706,0,0,0-.119.062l-.922.474.634.609v4.407a1.189,1.189,0,0,0,.6,1.034l4.012,2.316-.062.613.739-.373a.635.635,0,0,0,.4-.2h0a.63.63,0,0,0,.172-.434Z" transform="translate(-453.776 -529.214)"/><path class="du" d="M454.039,530.121v4.961a1.193,1.193,0,0,0,.6,1.032l4.295,2.479a.644.644,0,0,0,.966-.556v-4.961a1.191,1.191,0,0,0-.6-1.032L455,529.565A.643.643,0,0,0,454.039,530.121Z" transform="translate(-454.039 -528.916)"/></g><g transform="translate(3.235 71.755)"><path class="dt" d="M460.761,544a1.193,1.193,0,0,0-.6-1.032l-4.295-2.479a.633.633,0,0,0-.558-.036h0a.908.908,0,0,0-.119.06l-.922.475.634.609v4.41a1.189,1.189,0,0,0,.6,1.032l4.012,2.318-.062.613.739-.372a.649.649,0,0,0,.4-.2h0a.625.625,0,0,0,.172-.432Z" transform="translate(-453.776 -540.405)"/><path class="du" d="M454.039,541.314v4.959a1.193,1.193,0,0,0,.6,1.032l4.295,2.48a.644.644,0,0,0,.966-.556V544.27a1.192,1.192,0,0,0-.6-1.035L455,540.756A.643.643,0,0,0,454.039,541.314Z" transform="translate(-454.039 -540.108)"/></g><g transform="translate(3.235 83.736)"><path class="dt" d="M460.761,549.632a1.193,1.193,0,0,0-.6-1.032l-4.295-2.479a.633.633,0,0,0-.558-.038h0a.706.706,0,0,0-.119.062l-.922.473.634.611v4.408a1.19,1.19,0,0,0,.6,1.034l4.012,2.316-.062.613.739-.373a.635.635,0,0,0,.4-.2h0a.629.629,0,0,0,.172-.434Z" transform="translate(-453.776 -546.035)"/><path class="du" d="M454.039,546.942V551.9a1.193,1.193,0,0,0,.6,1.032l4.295,2.479a.644.644,0,0,0,.966-.555V549.9a1.19,1.19,0,0,0-.6-1.032L455,546.386A.643.643,0,0,0,454.039,546.942Z" transform="translate(-454.039 -545.737)"/></g><g transform="translate(22.464 93.849)"><path class="dt" d="M469.8,554.384a1.193,1.193,0,0,0-.6-1.032l-4.295-2.479a.628.628,0,0,0-.556-.038h0a.57.57,0,0,0-.119.062l-.924.472.634.611v4.408a1.2,1.2,0,0,0,.6,1.034l4.014,2.315-.062.613.736-.373a.64.64,0,0,0,.4-.2h0a.638.638,0,0,0,.17-.434Z" transform="translate(-462.812 -550.787)"/><path class="du" d="M463.074,551.694v4.961a1.189,1.189,0,0,0,.6,1.032l4.295,2.479a.643.643,0,0,0,.964-.558V554.65a1.193,1.193,0,0,0-.6-1.032l-4.295-2.479A.642.642,0,0,0,463.074,551.694Z" transform="translate(-463.074 -550.489)"/></g><g transform="translate(32.02 99.311)"><path class="dt" d="M474.286,556.95a1.193,1.193,0,0,0-.6-1.032l-4.295-2.479a.633.633,0,0,0-.558-.038h0a.71.71,0,0,0-.119.062l-.922.472.634.611v4.408a1.19,1.19,0,0,0,.6,1.034l4.012,2.316-.062.613.739-.372a.636.636,0,0,0,.4-.2h0a.63.63,0,0,0,.172-.434Z" transform="translate(-467.301 -553.353)"/><path class="du" d="M467.564,554.26v4.961a1.193,1.193,0,0,0,.6,1.032l4.295,2.48a.643.643,0,0,0,.964-.558v-4.959a1.189,1.189,0,0,0-.6-1.032l-4.295-2.479A.642.642,0,0,0,467.564,554.26Z" transform="translate(-467.564 -553.055)"/></g><g transform="translate(32.02 87.354)"><path class="dv" d="M474.286,551.332a1.193,1.193,0,0,0-.6-1.032L469.4,547.82a.632.632,0,0,0-.558-.038h0a.714.714,0,0,0-.119.062l-.922.472.634.611v16.364a1.19,1.19,0,0,0,.6,1.034l4.012,2.315-.062.613.739-.372a.635.635,0,0,0,.4-.2h0a.63.63,0,0,0,.172-.434Z" transform="translate(-467.301 -547.735)"/><path class="b" d="M467.564,548.642v16.917a1.193,1.193,0,0,0,.6,1.032l4.295,2.48a.643.643,0,0,0,.964-.558V551.6a1.189,1.189,0,0,0-.6-1.032l-4.295-2.479A.643.643,0,0,0,467.564,548.642Z" transform="translate(-467.564 -547.437)"/></g><g transform="translate(2.677 6.238)"><path class="dw" d="M457.913,510.972l28.525,44.27a6.192,6.192,0,0,0,.134-1.3V535.928l-8.628-13.391Z" transform="translate(-449.111 -508.097)"/><path class="dw" d="M457.563,509.793a2.942,2.942,0,0,0-3.786,1.564L483.4,557.326l2.3,1.33a4.032,4.032,0,0,0,3.665.5Z" transform="translate(-453.777 -509.621)"/></g></g></g><path class="dq" d="M458.585,569.608l-.738-.213a4.084,4.084,0,0,0-3.514.606l-.77-.57-.783,1.807-3.788-.321.824,3.365a.62.62,0,0,0,.43.449l1.558.458a3.782,3.782,0,0,0,3.675-.892l3.452-3.288A.832.832,0,0,0,458.585,569.608Z" transform="translate(-427.489 -394.343)"/><path class="dx" d="M458.585,569.608l-.738-.213a4.084,4.084,0,0,0-3.514.606l-.77-.57-.783,1.807-3.788-.321.428,1.745a2.239,2.239,0,0,0,1.543,1.615l.664.194a3.782,3.782,0,0,0,3.675-.892l3.452-3.286a.8.8,0,0,0,.234-.421A.82.82,0,0,0,458.585,569.608Z" transform="translate(-427.489 -394.343)"/><path class="dq" d="M453.276,571.084a1.047,1.047,0,0,0-.473-1.928,3.842,3.842,0,0,0-3.35.822,1.05,1.05,0,0,0,.473,1.928A3.836,3.836,0,0,0,453.276,571.084Z" transform="translate(-427.504 -394.55)"/><path class="dy" d="M450.684,573.941a1.25,1.25,0,0,1-1.251-1.249v-4.821a1.25,1.25,0,0,1,2.5,0v4.821A1.25,1.25,0,0,1,450.684,573.941Z" transform="translate(-426.99 -397.29)"/><path class="dz" d="M451.063,587.394l-.089,0c-1.083-.049-1.922.453-1.875-.63l.534-12.5-.534-18.869a1.964,1.964,0,0,1,1.907-2.018c1.081-.04,2.526.821,2.556,1.907l0,19.012,0,.072-.534,12.574C452.977,587.992,452.108,587.394,451.063,587.394Z" transform="translate(-427.369 -412.239)"/><path class="dq" d="M461.069,572.392l-.668-.381a4.082,4.082,0,0,0-3.556-.249l-.613-.736-1.192,1.569-3.6-1.213v3.463a.625.625,0,0,0,.309.54l1.4.813a3.781,3.781,0,0,0,3.782.008l4.135-2.371A.833.833,0,0,0,461.069,572.392Z" transform="translate(-424.727 -392.322)"/><path class="dx" d="M461.069,572.392l-.668-.381a4.082,4.082,0,0,0-3.556-.249l-.613-.736-1.192,1.569-3.6-1.213v1.8a2.235,2.235,0,0,0,1.113,1.935l.6.349a3.786,3.786,0,0,0,3.782.009l4.135-2.371a.354.354,0,0,0,0-.707Z" transform="translate(-424.727 -392.322)"/><path class="dq" d="M455.595,572.921a1.048,1.048,0,0,0,0-1.986,3.841,3.841,0,0,0-3.448,0,1.05,1.05,0,0,0,0,1.986A3.84,3.84,0,0,0,455.595,572.921Z" transform="translate(-424.728 -392.885)"/><path class="dy" d="M453.243,575.437a1.25,1.25,0,0,1-1.251-1.249v-4.818a1.25,1.25,0,1,1,2.5,0v4.818A1.25,1.25,0,0,1,453.243,575.437Z" transform="translate(-424.103 -395.602)"/><path class="ea" d="M452.805,566.383a1.427,1.427,0,0,1-1.239-.715l-2.584-4.474a10.724,10.724,0,0,1,2.786-13.87l.707-.538a1.428,1.428,0,0,1,1.73,2.273l-.707.538a7.862,7.862,0,0,0-2.041,10.169l2.584,4.474a1.429,1.429,0,0,1-1.236,2.143Z" transform="translate(-429.111 -420)"/><path class="eb" d="M455.328,589.392c-.055,0-.109,0-.164-.006-1.081-.089-1.886.028-1.8-1.053l1.06-14.345-4.28-18.575c-.068-1.083,3.971-.321,5.055-.39a1.964,1.964,0,0,1,2.084,1.837l1.079,17.166-1.081,14.628C457.2,589.679,456.339,589.392,455.328,589.392Z" transform="translate(-426.185 -410.6)"/><path class="ec" d="M448.771,557.4l.2-1.877a26.715,26.715,0,0,0,.236-3.89,7.8,7.8,0,0,0,.879,2.326l2.584,4.474a1.429,1.429,0,1,1-2.475,1.428Z" transform="translate(-427.737 -414.197)"/><path class="ea" d="M448.92,543.365l6.168,3.561a8.832,8.832,0,0,1,4.418,7.653v17.558c-2.5,1.754-9.241-.689-10.586-3.433l.4-3.844a26.642,26.642,0,0,0,.226-4.6Z" transform="translate(-427.569 -423.53)"/><path class="ed" d="M450.045,549.63h0v-8.389h7.266v1.126A7.264,7.264,0,0,1,450.045,549.63Z" transform="translate(-426.299 -425.926)"/><path class="ed" d="M451.992,549.06h0a1.52,1.52,0,0,1-1.52-1.519v-4.557h3.039v4.557A1.52,1.52,0,0,1,451.992,549.06Z" transform="translate(-425.818 -423.96)"/><path class="ec" d="M455.877,554.015a1.26,1.26,0,0,1-.8-1.039l-.577-4.459a1.427,1.427,0,0,0-1.6-1.234c-.783.1-.822.922-.719,1.7l.06,4.355a4.112,4.112,0,0,0,2.909,3.443,4.253,4.253,0,0,0,.73.149Z" transform="translate(-423.939 -419.123)"/><path class="ea" d="M456.641,556.6a4.223,4.223,0,0,1-1.237-.187,4.112,4.112,0,0,1-2.909-3.443l-.575-4.459a1.428,1.428,0,0,1,2.833-.366l.577,4.461a1.3,1.3,0,0,0,2.264.692l4.135-4.7a1.429,1.429,0,1,1,2.145,1.888l-4.135,4.7A4.111,4.111,0,0,1,456.641,556.6Z" transform="translate(-424.197 -419.538)"/><path class="ed" d="M456.2,548.733l.683-.777a1.429,1.429,0,1,1,2.145,1.888l-.828.941Z" transform="translate(-419.353 -418.897)"/><ellipse class="ed" cx="1.729" cy="1.729" rx="1.729" ry="1.729" transform="translate(37.56 127.843)"/><path class="ed" d="M459.547,546.879l-2.173,2.281a.383.383,0,0,1-.541.015h0a.381.381,0,0,1-.013-.541l2.173-2.282a.381.381,0,0,1,.538-.015h0A.383.383,0,0,1,459.547,546.879Z" transform="translate(-418.775 -420.293)"/><path class="ee" d="M460.385,541.089c-1.254-1.488-4.191-1.045-5.817-.524-2,.643-4.514,1.392-4.874,3.812a12.043,12.043,0,0,0-.023,1.858,9.243,9.243,0,0,1-.962,4.14c-.911,1.83-1.349,3-.383,4.895.571,1.124.937,2.873,2.1,3.565,1.2.709,3.741,1.151,4.891.281,1.6-1.213,2.407-4.152,2.26-6.04-.158-2.037-1.177-4.093-.558-6.042.387-1.219,2.026-2.588,2.954-3.446C460.8,542.828,461.217,542.075,460.385,541.089Z" transform="translate(-428.854 -427.243)"/><path class="ef" d="M457.637,541.085a3.957,3.957,0,0,0-3.339-.99,3.337,3.337,0,0,1,2.426.99c.832.985.415,1.739-.409,2.5-.928.858-2.567,2.226-2.954,3.446-.617,1.95.4,4.005.558,6.042.147,1.888-.66,4.827-2.26,6.04a2.749,2.749,0,0,1-1.443.455,3.522,3.522,0,0,0,2.356-.455c1.6-1.213,2.407-4.152,2.26-6.04-.158-2.037-1.177-4.093-.558-6.042.387-1.219,2.026-2.588,2.954-3.446C458.052,542.823,458.469,542.07,457.637,541.085Z" transform="translate(-426.107 -427.239)"/><path d="M440.039,528.764a1.63,1.63,0,1,0,1.63-1.63A1.632,1.632,0,0,0,440.039,528.764Z" transform="translate(-437.589 -441.843)"/><path d="M440.222,529.741a1.63,1.63,0,1,0,1.63-1.63A1.63,1.63,0,0,0,440.222,529.741Z" transform="translate(-437.382 -440.74)"/><path d="M448.057,529.2l-.147,4.144a3.2,3.2,0,0,1-1.747,2.962h0a3.792,3.792,0,0,1-5.685-3.163V529.2a3.63,3.63,0,0,1,1.894-3.163h0A3.792,3.792,0,0,1,448.057,529.2Z" transform="translate(-437.094 -443.636)"/><path class="ed" d="M454.619,545.606a1.369,1.369,0,0,0,.728-2.531l-10.454-6.534V533.6a1.37,1.37,0,0,0-2.739,0v4.463L453.9,545.4A1.367,1.367,0,0,0,454.619,545.606Z" transform="translate(-435.203 -436.095)"/><path class="dq" d="M450.685,555.217l0,1.051a.836.836,0,0,1-.706.828l-.175.025a2.207,2.207,0,0,1-1.492-.3l-5.425-3.32.034-1.56L449.2,556.1Z" transform="translate(-434.373 -413.851)"/><path class="a" d="M446.716,551.209l.534,2.039,2.831,1.833a1.22,1.22,0,0,1-.017,2.109h0a1.219,1.219,0,0,1-1.217,0l-5.948-3.735.015-2.243Z" transform="translate(-434.363 -414.68)"/><path class="dq" d="M447,557.422l0,1.054a.83.83,0,0,1-.707.826l-.174.028a2.209,2.209,0,0,1-1.492-.3l-5.425-3.318.034-1.56,6.276,4.152Z" transform="translate(-438.531 -411.361)"/><path class="a" d="M443.031,553.415l.534,2.039,2.831,1.835a1.22,1.22,0,0,1-.017,2.109h0a1.224,1.224,0,0,1-1.217,0l-5.948-3.735.015-2.245Z" transform="translate(-438.521 -412.191)"/><path class="eg" d="M448.286,532.871v39.26a1.913,1.913,0,0,1-.956,1.656h0a1.913,1.913,0,0,1-2.869-1.656L441.5,535.4Z" transform="translate(-435.946 -435.37)"/><path class="eh" d="M442.246,534.617v20.389l.275,3.4,4.917-8.4v-6.735l-.941-10.24Z" transform="translate(-435.099 -435.184)"/><path class="ei" d="M448.9,532.462l-8.368,4.829a2.6,2.6,0,0,0-1.294,2.245v16.358h0v21.4a1.911,1.911,0,1,0,3.822,0l1.743-22.372,4.737-2.735a2.594,2.594,0,0,0,1.3-2.245V533.579A1.291,1.291,0,0,0,448.9,532.462Z" transform="translate(-438.495 -436.029)"/><path class="ej" d="M451.6,533.163V546.32c0,1.785.647,3.175-.9,4.069,0,0-5.834,5.576-11.237,3.488,0,0-.44-12.518-.44-17.571a2.807,2.807,0,0,1,1.4-2.432l6.2-3.582A3.313,3.313,0,0,1,451.6,533.163Z" transform="translate(-438.729 -438.786)"/><path class="ed" d="M451.861,547.261a1.369,1.369,0,0,0,.728-2.531L442.135,538.2v-2.945a1.369,1.369,0,0,0-2.739,0v4.463l11.742,7.338A1.366,1.366,0,0,0,451.861,547.261Z" transform="translate(-438.314 -434.228)"/><path class="ej" d="M440.9,541.13a1.624,1.624,0,0,0,1.624-1.626v-5.991a1.624,1.624,0,1,0-3.248,0V539.5A1.625,1.625,0,0,0,440.9,541.13Z" transform="translate(-438.45 -436.48)"/><path class="ed" d="M442.492,535.927a1.369,1.369,0,0,0,1.368-1.356l.047-4.38a1.37,1.37,0,1,0-2.739-.028l-.047,4.378a1.37,1.37,0,0,0,1.356,1.385Z" transform="translate(-436.368 -439.954)"/><path class="ec" d="M441.142,532.986v-2.43l0-.187a1.37,1.37,0,0,1,2.739.03l-.032,2.973c-.436.13-.9-.189-1.381-.189Z" transform="translate(-436.344 -439.72)"/><path class="ed" d="M441.142,535.264h2.03a4.135,4.135,0,0,0,4.135-4.135V527h-2.02a4.145,4.145,0,0,0-4.146,4.146Z" transform="translate(-436.344 -441.998)"/><path class="ed" d="M440.8,528.832a.717.717,0,1,0,.717-.717A.718.718,0,0,0,440.8,528.832Z" transform="translate(-436.725 -440.736)"/><path d="M441.807,531.081h0a.519.519,0,0,0,.519-.519v-3.118a.519.519,0,0,0-.519-.52h0a.519.519,0,0,0-.519.52v3.118A.519.519,0,0,0,441.807,531.081Z" transform="translate(-436.18 -442.08)"/><path d="M442.955,527.756a1.173,1.173,0,1,0,1.173-1.173A1.172,1.172,0,0,0,442.955,527.756Z" transform="translate(-434.299 -442.464)"/><path d="M442.039,527.633a1.173,1.173,0,1,0,1.173-1.173A1.174,1.174,0,0,0,442.039,527.633Z" transform="translate(-435.332 -442.603)"/><path d="M441.235,527.848a1.173,1.173,0,1,0,1.173-1.173A1.173,1.173,0,0,0,441.235,527.848Z" transform="translate(-436.239 -442.361)"/><path d="M442.947,527.324a1.63,1.63,0,1,0,1.63-1.63A1.63,1.63,0,0,0,442.947,527.324Z" transform="translate(-434.308 -443.467)"/><path d="M441.824,527.016a1.631,1.631,0,1,0,1.63-1.63A1.63,1.63,0,0,0,441.824,527.016Z" transform="translate(-435.575 -443.815)"/><ellipse cx="1.631" cy="1.631" rx="1.631" ry="1.631" transform="translate(4.469 81.571)"/><path d="M440.222,527.782a1.63,1.63,0,1,0,1.63-1.63A1.63,1.63,0,0,0,440.222,527.782Z" transform="translate(-437.382 -442.951)"/><path class="ek" d="M454.682,533.969a3.722,3.722,0,0,0-3.382-.019l-11.707,6.721a1.046,1.046,0,0,0-.015,1.973l7.962,4.725a3.7,3.7,0,0,0,3.375.021l11.712-6.763a1.045,1.045,0,0,0,.011-1.971Z" transform="translate(-438.888 -434.6)"/><path class="a" d="M454.682,533.652a3.722,3.722,0,0,0-3.382-.019l-11.707,6.719a1.046,1.046,0,0,0-.015,1.973l7.962,4.727a3.7,3.7,0,0,0,3.375.019l11.712-6.761a1.045,1.045,0,0,0,.011-1.971Z" transform="translate(-438.888 -434.959)"/><path class="el" d="M445.047,528.977l2-1.155L449,528.977l-1.952,1.155Z" transform="translate(-431.938 -441.067)"/><path class="ea" d="M445.047,528.365v16.053l2,1.093V529.52Z" transform="translate(-431.938 -440.454)"/><path class="em" d="M447.939,528.365v15.99l-1.952,1.155V529.52Z" transform="translate(-430.877 -440.454)"/><path class="en" d="M443.544,532.424l2-1.155,1.952,1.155-1.952,1.155Z" transform="translate(-433.634 -437.178)"/><path class="eo" d="M443.544,531.812V542.36l2,1.092V532.967Z" transform="translate(-433.634 -436.565)"/><path class="ep" d="M446.436,531.812V542.3l-1.952,1.155V532.967Z" transform="translate(-432.573 -436.565)"/><path class="eq" d="M442.041,531.53l2-1.155,1.952,1.155-1.952,1.155Z" transform="translate(-435.33 -438.186)"/><path class="dq" d="M442.041,530.918V545.2l2,1.093V532.073Z" transform="translate(-435.33 -437.574)"/><path class="er" d="M444.933,530.918v14.221l-1.952,1.155V532.073Z" transform="translate(-434.269 -437.574)"/><path class="br" d="M467.09,575.752l18.629,10.705a.91.91,0,0,0,.894.006l11.371-6.266a.494.494,0,0,0,.011-.86l-18.965-11.054a.915.915,0,0,0-.93,0l-11.018,6.61A.5.5,0,0,0,467.09,575.752Z" transform="translate(-407.349 -395.556)"/><path class="es" d="M467.115,575.725,485.682,586.4a.906.906,0,0,0,.892.009l11.314-6.234a.494.494,0,0,0,.011-.858l-18.905-11.022a.909.909,0,0,0-.924.006l-10.963,6.576A.493.493,0,0,0,467.115,575.725Z" transform="translate(-407.319 -395.543)"/><path class="et" d="M467.139,575.7l18.509,10.643a.9.9,0,0,0,.885.009l11.258-6.2a.49.49,0,0,0,.011-.851L478.959,568.3a.9.9,0,0,0-.919.006l-10.907,6.544A.488.488,0,0,0,467.139,575.7Z" transform="translate(-407.29 -395.531)"/><path class="eu" d="M467.164,575.672l18.448,10.611a.906.906,0,0,0,.883.009l11.2-6.174a.487.487,0,0,0,.008-.847l-18.78-10.956a.893.893,0,0,0-.915.006l-10.854,6.51A.489.489,0,0,0,467.164,575.672Z" transform="translate(-407.26 -395.519)"/><path class="ev" d="M467.19,575.644l18.388,10.582a.894.894,0,0,0,.877.006l11.143-6.14a.484.484,0,0,0,.011-.843l-18.718-10.924a.9.9,0,0,0-.911.006l-10.8,6.476A.485.485,0,0,0,467.19,575.644Z" transform="translate(-407.23 -395.505)"/><path class="ew" d="M467.215,575.617l18.326,10.55a.885.885,0,0,0,.872.009l11.088-6.11a.482.482,0,0,0,.011-.839l-18.656-10.89a.892.892,0,0,0-.907,0l-10.743,6.446A.481.481,0,0,0,467.215,575.617Z" transform="translate(-407.2 -395.493)"/><path class="ex" d="M467.239,575.592l18.269,10.518a.883.883,0,0,0,.868.008l11.031-6.078a.482.482,0,0,0,.011-.837l-18.6-10.856a.881.881,0,0,0-.9,0l-10.688,6.412A.48.48,0,0,0,467.239,575.592Z" transform="translate(-407.171 -395.481)"/><path class="ey" d="M467.265,575.565l18.207,10.488a.88.88,0,0,0,.864.006l10.976-6.046a.477.477,0,0,0,.008-.83l-18.533-10.826a.878.878,0,0,0-.9.006l-10.635,6.378A.479.479,0,0,0,467.265,575.565Z" transform="translate(-407.141 -395.468)"/><path class="ez" d="M467.291,575.539l18.148,10.456a.877.877,0,0,0,.86.007l10.918-6.017a.475.475,0,0,0,.008-.826l-18.471-10.792a.88.88,0,0,0-.892.006l-10.58,6.346A.475.475,0,0,0,467.291,575.539Z" transform="translate(-407.112 -395.455)"/><path class="fa" d="M467.316,575.512,485.4,585.936a.869.869,0,0,0,.856.008l10.86-5.985a.472.472,0,0,0,.011-.822l-18.409-10.76a.872.872,0,0,0-.887.006L467.307,574.7A.473.473,0,0,0,467.316,575.512Z" transform="translate(-407.081 -395.443)"/><path class="fb" d="M467.34,575.484l18.029,10.394a.868.868,0,0,0,.849.008l10.805-5.955a.47.47,0,0,0,.011-.817l-18.348-10.727a.865.865,0,0,0-.883.006l-10.469,6.279A.47.47,0,0,0,467.34,575.484Z" transform="translate(-407.052 -395.43)"/><path class="fc" d="M467.365,575.459l17.967,10.363a.864.864,0,0,0,.847.006l10.748-5.923a.467.467,0,0,0,.009-.813L478.649,568.4a.858.858,0,0,0-.877,0l-10.414,6.249A.468.468,0,0,0,467.365,575.459Z" transform="translate(-407.022 -395.418)"/><path class="fd" d="M467.391,575.431l17.907,10.33a.851.851,0,0,0,.841.009l10.692-5.891a.465.465,0,0,0,.009-.809l-18.224-10.66a.854.854,0,0,0-.873,0l-10.36,6.214A.465.465,0,0,0,467.391,575.431Z" transform="translate(-406.993 -395.405)"/><path class="fe" d="M467.416,575.4l17.845,10.3a.859.859,0,0,0,.839.009l10.633-5.861a.462.462,0,0,0,.011-.8l-18.162-10.629a.857.857,0,0,0-.868.007l-10.3,6.182A.461.461,0,0,0,467.416,575.4Z" transform="translate(-406.963 -395.393)"/><path class="ff" d="M467.44,575.379l17.788,10.269a.846.846,0,0,0,.832.006l10.577-5.829a.458.458,0,0,0,.011-.8l-18.1-10.6a.85.85,0,0,0-.864.006l-10.25,6.148A.46.46,0,0,0,467.44,575.379Z" transform="translate(-406.933 -395.38)"/><path class="fg" d="M467.465,575.351l17.726,10.239a.843.843,0,0,0,.828.006l10.522-5.8a.457.457,0,0,0,.008-.8l-18.037-10.563a.842.842,0,0,0-.86.006l-10.194,6.115A.458.458,0,0,0,467.465,575.351Z" transform="translate(-406.903 -395.368)"/><path class="fh" d="M467.491,575.324l17.667,10.207a.841.841,0,0,0,.824.008l10.465-5.767a.455.455,0,0,0,.008-.792l-17.977-10.529a.835.835,0,0,0-.853,0l-10.141,6.085A.454.454,0,0,0,467.491,575.324Z" transform="translate(-406.874 -395.355)"/><path class="fi" d="M467.517,575.3l17.6,10.175a.838.838,0,0,0,.819.009l10.407-5.736a.452.452,0,0,0,.011-.787l-17.916-10.5a.837.837,0,0,0-.849,0l-10.086,6.051A.453.453,0,0,0,467.517,575.3Z" transform="translate(-406.844 -395.342)"/><path class="fj" d="M467.54,575.271l17.547,10.145a.831.831,0,0,0,.815.006l10.35-5.7a.45.45,0,0,0,.011-.783l-17.854-10.463a.829.829,0,0,0-.845,0l-10.03,6.017A.451.451,0,0,0,467.54,575.271Z" transform="translate(-406.814 -395.33)"/><path class="fk" d="M467.566,575.244l17.486,10.116a.832.832,0,0,0,.811.006l10.294-5.674a.447.447,0,0,0,.009-.779l-17.79-10.431a.826.826,0,0,0-.841.007l-9.975,5.984A.446.446,0,0,0,467.566,575.244Z" transform="translate(-406.785 -395.318)"/><path class="fl" d="M467.591,575.218,485.017,585.3a.82.82,0,0,0,.8.009l10.239-5.642a.445.445,0,0,0,.009-.775l-17.729-10.4a.818.818,0,0,0-.836.006l-9.92,5.95A.446.446,0,0,0,467.591,575.218Z" transform="translate(-406.754 -395.305)"/><path class="fm" d="M467.617,575.19l17.364,10.052a.817.817,0,0,0,.8.006l10.182-5.61a.443.443,0,0,0,.008-.77L478.305,568.5a.816.816,0,0,0-.83.006l-9.867,5.917A.443.443,0,0,0,467.617,575.19Z" transform="translate(-406.725 -395.292)"/><path class="fn" d="M467.64,575.165l17.307,10.02a.815.815,0,0,0,.8.006l10.124-5.578a.44.44,0,0,0,.011-.766l-17.607-10.333a.814.814,0,0,0-.826,0l-9.811,5.887A.442.442,0,0,0,467.64,575.165Z" transform="translate(-406.695 -395.28)"/><path class="fo" d="M467.666,575.138l17.245,9.988a.806.806,0,0,0,.794.008l10.067-5.548a.437.437,0,0,0,.009-.762l-17.543-10.3a.806.806,0,0,0-.821,0l-9.756,5.853A.438.438,0,0,0,467.666,575.138Z" transform="translate(-406.666 -395.267)"/><path class="fp" d="M467.692,575.111l17.186,9.958a.8.8,0,0,0,.788.006l10.011-5.516a.435.435,0,0,0,.009-.758L478.2,568.537a.8.8,0,0,0-.817,0l-9.7,5.819A.436.436,0,0,0,467.692,575.111Z" transform="translate(-406.636 -395.255)"/><path class="fq" d="M467.718,575.086l17.124,9.926a.8.8,0,0,0,.783.007l9.956-5.485a.433.433,0,0,0,.009-.753l-17.42-10.235a.8.8,0,0,0-.815.006l-9.645,5.787A.433.433,0,0,0,467.718,575.086Z" transform="translate(-406.606 -395.242)"/><path class="fr" d="M467.741,575.058l17.066,9.9a.794.794,0,0,0,.779.006l9.9-5.455a.432.432,0,0,0,.008-.749l-17.358-10.2a.8.8,0,0,0-.811.006l-9.59,5.753A.432.432,0,0,0,467.741,575.058Z" transform="translate(-406.576 -395.229)"/><path class="fs" d="M467.767,575.03l17,9.864a.791.791,0,0,0,.775.008l9.841-5.425a.426.426,0,0,0,.008-.743l-17.3-10.169a.789.789,0,0,0-.8.006l-9.535,5.721A.426.426,0,0,0,467.767,575.03Z" transform="translate(-406.547 -395.217)"/><path class="ft" d="M467.792,575.005l16.945,9.833a.783.783,0,0,0,.77.006l9.784-5.391a.426.426,0,0,0,.009-.74l-17.234-10.135a.786.786,0,0,0-.8,0l-9.479,5.689A.426.426,0,0,0,467.792,575.005Z" transform="translate(-406.517 -395.204)"/><path class="fu" d="M467.818,574.978l16.883,9.8a.78.78,0,0,0,.766.006l9.728-5.361a.424.424,0,0,0,.009-.736l-17.173-10.1a.779.779,0,0,0-.8,0l-9.424,5.655A.422.422,0,0,0,467.818,574.978Z" transform="translate(-406.488 -395.192)"/><path class="fv" d="M467.841,574.95l16.826,9.771a.773.773,0,0,0,.76.009L495.1,579.4a.422.422,0,0,0,.009-.732L478,568.6a.781.781,0,0,0-.792,0l-9.371,5.623A.42.42,0,0,0,467.841,574.95Z" transform="translate(-406.458 -395.179)"/><path class="fw" d="M467.867,574.925l16.764,9.739a.769.769,0,0,0,.758.006l9.613-5.3a.418.418,0,0,0,.008-.728l-17.047-10.037a.778.778,0,0,0-.787.006L467.86,574.2A.419.419,0,0,0,467.867,574.925Z" transform="translate(-406.428 -395.167)"/><path class="fx" d="M467.892,574.9l16.7,9.709a.767.767,0,0,0,.754.006l9.558-5.268a.416.416,0,0,0,.009-.724l-16.988-10a.766.766,0,0,0-.781.006l-9.26,5.555A.416.416,0,0,0,467.892,574.9Z" transform="translate(-406.398 -395.154)"/><path class="fy" d="M467.918,574.87l16.643,9.679a.765.765,0,0,0,.747.006l9.5-5.235a.414.414,0,0,0,.009-.719l-16.926-9.971a.763.763,0,0,0-.777,0l-9.2,5.525A.412.412,0,0,0,467.918,574.87Z" transform="translate(-406.368 -395.142)"/><path class="fz" d="M467.944,574.845l16.581,9.645a.761.761,0,0,0,.745.008l9.445-5.206a.412.412,0,0,0,.009-.715l-16.864-9.937a.76.76,0,0,0-.773,0l-9.151,5.491A.411.411,0,0,0,467.944,574.845Z" transform="translate(-406.339 -395.129)"/><path class="ga" d="M467.967,574.817l16.524,9.616a.749.749,0,0,0,.739.006l9.39-5.174a.407.407,0,0,0,.006-.709l-16.8-9.905a.758.758,0,0,0-.768,0l-9.1,5.457A.409.409,0,0,0,467.967,574.817Z" transform="translate(-406.309 -395.116)"/><path class="gb" d="M467.993,574.789l16.462,9.586a.756.756,0,0,0,.736.006l9.33-5.142a.406.406,0,0,0,.008-.707l-16.739-9.871a.75.75,0,0,0-.764,0l-9.041,5.425A.4.4,0,0,0,467.993,574.789Z" transform="translate(-406.279 -395.104)"/><path class="gc" d="M468.019,574.764l16.4,9.554a.749.749,0,0,0,.73.007l9.275-5.112a.4.4,0,0,0,.008-.7l-16.679-9.837a.739.739,0,0,0-.758,0l-8.986,5.391A.4.4,0,0,0,468.019,574.764Z" transform="translate(-406.25 -395.092)"/><path class="gd" d="M468.044,574.737l16.341,9.522a.736.736,0,0,0,.726.006l9.22-5.08a.4.4,0,0,0,.008-.7l-16.617-9.807a.736.736,0,0,0-.753.006l-8.93,5.357A.4.4,0,0,0,468.044,574.737Z" transform="translate(-406.22 -395.079)"/><path class="ge" d="M468.068,574.711l16.283,9.49a.738.738,0,0,0,.721.006l9.162-5.048a.4.4,0,0,0,.006-.694l-16.554-9.773a.743.743,0,0,0-.749,0l-8.877,5.327A.4.4,0,0,0,468.068,574.711Z" transform="translate(-406.19 -395.066)"/><path class="gf" d="M468.093,574.684l16.222,9.46a.73.73,0,0,0,.717.006l9.1-5.018a.394.394,0,0,0,.009-.687L477.654,568.7a.735.735,0,0,0-.745,0L468.087,574A.4.4,0,0,0,468.093,574.684Z" transform="translate(-406.161 -395.054)"/><path class="dq" d="M468.119,574.657l16.162,9.428a.722.722,0,0,0,.713.007l9.047-4.984a.394.394,0,0,0,.009-.685l-16.43-9.707a.727.727,0,0,0-.741,0l-8.766,5.259A.393.393,0,0,0,468.119,574.657Z" transform="translate(-406.131 -395.041)"/><path class="gg" d="M467.654,575.533l17.252,9.914,10.963-6.041V575.64l-17.585-7.74-10.63,3.867Z" transform="translate(-406.432 -395.848)"/><path class="a" d="M467.654,573.1l17.252,9.914,10.963-6.041-17.585-10.25Z" transform="translate(-406.432 -397.179)"/><path class="dq" d="M468.32,572.643l9.219-5.531,16.125,9.4-9.5,5.236Z" transform="translate(-405.681 -396.737)"/><ellipse class="a" cx="3.758" cy="2.17" rx="3.758" ry="2.17" transform="translate(71.572 175.523)"/><ellipse class="a" cx="1.665" cy="0.961" rx="1.665" ry="0.961" transform="translate(79.082 179.521)"/><path class="dq" d="M473.422,572.306l.3-.219a1.16,1.16,0,0,1-.419-.877l.823-.128a.976.976,0,0,0,.179.583l.617-.447a.894.894,0,0,1-.289-.568c0-.166.117-.334.353-.5a1.541,1.541,0,0,1,.8-.3,1.675,1.675,0,0,1,.839.136l.2-.147.4.24-.211.153a1.214,1.214,0,0,1,.419.7l-.8.168a.945.945,0,0,0-.2-.447l-.6.432a.957.957,0,0,1,.3.587.674.674,0,0,1-.353.515,1.543,1.543,0,0,1-.807.3,1.726,1.726,0,0,1-.864-.149l-.289.211Zm1.72-.453a.245.245,0,0,0,.1-.132.234.234,0,0,0-.045-.168l-.509.368A.509.509,0,0,0,475.142,571.852Zm.9-1.449a.458.458,0,0,0-.392.066.206.206,0,0,0-.087.281Z" transform="translate(-400.059 -393.661)"/></g></g></svg>