<svg xmlns="http://www.w3.org/2000/svg" xmlns:xlink="http://www.w3.org/1999/xlink" width="554.6" height="80.51" viewBox="0 0 554.6 80.51"><defs><style>.a,.b{fill:none;}.b{stroke:#8c8e90;stroke-linecap:round;stroke-miterlimit:10;stroke-width:1.65px;}.c{clip-path:url(#a);}.d{fill:#fffffe;}.e{fill:#006241;}.f{fill:#58595b;}.g{fill:#8c0b42;}.h{fill:#ffca38;}</style><clipPath id="a"><rect class="a" width="68.78" height="70.23" transform="translate(24.23 23.8)"/></clipPath></defs><g transform="translate(-79.84 -264.005)"><g transform="translate(55.61 245.91)"><line class="b" y2="78.86" transform="translate(290.89 18.92)"/></g><g transform="translate(55.61 245.91)"><g class="c"><path class="d" d="M93.01,58.19A34.39,34.39,0,1,1,58.62,23.8,34.39,34.39,0,0,1,93.01,58.19h0"/><path class="e" d="M80.04,52.42c4.95-1.71,8.19,3.2,12,2-3.7-3.93-6.71-8.4-6.31-13.54a.31.31,0,0,0-.5-.29,9,9,0,0,0-3.61,5.91,8.938,8.938,0,0,0-8.21-.89,25.932,25.932,0,0,1,6.63,6.77m-5.5-15.19a11.33,11.33,0,0,0-6.48,2.49,25.676,25.676,0,0,1,2.92-5.8,12.509,12.509,0,0,0-7.85,3.52l-1.53-4,3.4-3-4.61-.32-1.82-4.23-1.82,4.23-4.55.32,3.4,3-1.53,4a12.519,12.519,0,0,0-7.85-3.52,25.552,25.552,0,0,1,2.92,5.8,11.33,11.33,0,0,0-6.48-2.49,30.369,30.369,0,0,1,3.85,6.24.42.42,0,0,0,.547.232.466.466,0,0,0,.063-.032,25.818,25.818,0,0,1,22.92,0,.419.419,0,0,0,.578-.137.466.466,0,0,0,.032-.063,30.37,30.37,0,0,1,3.85-6.24m-22,12c.67-.67,2.08-.64,3.55-.1.06-.73-1.24-1.52-2.54-1.52-.95,0-1.42.32-1.42.78a1.061,1.061,0,0,0,.42.84m11.16-1.62a3,3,0,0,0-2.23.86.849.849,0,0,0,0,.6c1.39-.47,2.62-.49,3.2.17a1.069,1.069,0,0,0,.42-.84c0-.46-.47-.78-1.42-.78m-5.08-5.1c-3.19,0-5.86,1.81-6.57,4.14-.06.18,0,.3.22.2a4.736,4.736,0,0,1,1.94-.38,4,4,0,0,1,3.24,1.36,5.588,5.588,0,0,1,0,3.24c-.54-.12-.73-.54-1.25-.54s-.93.37-1.82.37-1-.42-1.57-.42-.82.71-.82,1.51c0,3.56,3.27,8.45,6.75,8.45s6.71-4.89,6.71-8.41c0-.8-.16-1.48-.88-1.58a2.172,2.172,0,0,1-1.51.49c-.89,0-1.13-.37-1.66-.37s-.57,1.33-1.32,1.41a6.328,6.328,0,0,1-.11-4.11,4,4,0,0,1,3.13-1.31,4.7,4.7,0,0,1,1.94.38c.21.09.28,0,.23-.2-.7-2.33-3.37-4.14-6.57-4.14M43.83,45.65a9,9,0,0,0-8.21.89,9,9,0,0,0-3.61-5.91.31.31,0,0,0-.51.29c.4,5.15-2.61,9.61-6.31,13.54,3.81,1.15,7.06-3.76,12-2a26,26,0,0,1,6.64-6.77M92.95,60.11a19.751,19.751,0,0,1-.22,2.44c-3.89.65-5.28-2.82-9.27-2.65a26.038,26.038,0,0,1,.58,2.59c3.29,0,4.62,3.07,8.27,2.62q-.29,1.41-.69,2.78c-2.89.28-3.91-2.59-7.26-2.51v2.24c2.85,0,3.78,2.6,6.51,2.48-.34.92-.72,1.83-1.14,2.71-2-.11-2.63-2.61-5.6-2.41q-.13,1-.34,1.91c2.58-.18,3.14,2.2,5,2.39-.47.86-1,1.7-1.52,2.51-1.1-.59-2-2.36-4.12-2.47.21-.66.4-1.32.56-2a8.615,8.615,0,0,1-5.72-2.33c.57-3.26-4.49-6.59-4.49-9,0-2.59,1.31-4,1.31-7.53a11,11,0,0,0-3.16-7.34,6.311,6.311,0,0,0-1.18-.95,12.282,12.282,0,0,1,3.09,7.69c0,3.29-1.53,5-1.53,8.07s4.45,5.67,4.45,8.8c0,1.24-.39,2.44-1.69,4.81A10,10,0,0,0,81.07,78a1,1,0,0,0,1-.59q.25-.551.48-1.12c1.81.07,2.63,1.71,3.63,2.37-.55.73-1.12,1.45-1.73,2.14-.67-.74-1.57-2-2.89-2.34-.24.46-.49.91-.75,1.36a5.559,5.559,0,0,1,2.58,2.24c-.65.67-1.32,1.32-2,1.94a6.619,6.619,0,0,0-1.89-2c-.28.38-.58.76-.88,1.12A5.945,5.945,0,0,1,80.22,85c-.81.65-1.65,1.27-2.52,1.85-.43-3.49-5.2-5.89-3.91-9.94a5.326,5.326,0,0,0-.92,2.68c0,2.93,3.12,5.26,3.37,8.18q-1,.581-2,1.1c-.11-3.21-3.42-6.71-3.42-9.34,0-2.93,3.85-5.88,3.85-9.35s-4.44-5.87-4.44-8.91,1.89-4.79,1.89-8.69A10.412,10.412,0,0,0,68.62,45a5.726,5.726,0,0,0-1.18-.82,11.122,11.122,0,0,1,3.12,7.79c0,3.67-2.16,5.7-2.16,9.29s4.35,5.59,4.35,8.93S68.7,76.36,68.7,79.8c0,3.13,3.57,6.25,3.62,10q-1.17.51-2.39.93C70.39,86.91,66.39,83,66.39,80c0-3.34,4.2-6.22,4.2-9.83s-4.27-5.28-4.27-9,2.62-5.75,2.62-9.84a10,10,0,0,0-3.88-7.83l-.15-.11c-.22-.16-.39,0-.24.22a10.509,10.509,0,0,1,2.49,7.13c0,3.74-3,6.78-3,10.41,0,4.27,4,5.5,4,9s-4.34,6.32-4.34,10c0,3.45,4.11,7.29,3.4,11.28-.82.21-1.66.4-2.51.55.77-5-3.25-8.53-3.25-11.78,0-3.52,4.49-6.65,4.49-10.09,0-3.24-3.22-4.3-3.65-7.61a.78.78,0,0,0-.844-.71.658.658,0,0,0-.076.01,10.993,10.993,0,0,1-2.81.55,10.993,10.993,0,0,1-2.81-.55.78.78,0,0,0-.91.624c0,.025-.008.05-.01.076-.42,3.32-3.64,4.38-3.64,7.61,0,3.44,4.49,6.57,4.49,10.09,0,3.25-4,6.81-3.26,11.78-.85-.15-1.68-.34-2.5-.55-.71-4,3.4-7.82,3.4-11.28,0-3.73-4.34-6.53-4.34-10s4-4.73,4-9c0-3.63-3-6.67-3-10.41a10.515,10.515,0,0,1,2.5-7.13c.15-.19,0-.38-.24-.22l-.14.11a10,10,0,0,0-3.87,7.83c0,4.09,2.62,6.14,2.62,9.84s-4.27,5.38-4.27,9,4.2,6.48,4.2,9.83c0,3.06-4,6.93-3.57,10.68q-1.211-.42-2.39-.93c.05-3.71,3.62-6.84,3.62-10,0-3.44-4-6.26-4-9.61s4.35-5.34,4.35-8.93-2.16-5.63-2.16-9.29c0-3.26,1.15-5.42,3.12-7.79a5.792,5.792,0,0,0-1.18.82,10.409,10.409,0,0,0-3.45,7.6c0,3.9,1.89,5.65,1.89,8.69s-4.43,5.44-4.43,8.91,3.85,6.41,3.85,9.35c0,2.63-3.31,6.14-3.42,9.34q-1-.521-2-1.1c.25-2.92,3.37-5.24,3.37-8.18a5.3,5.3,0,0,0-.93-2.68c1.29,4.05-3.48,6.45-3.91,9.94A28,28,0,0,1,37.07,85a5.993,5.993,0,0,1,1.6-1.88q-.46-.54-.88-1.12a6.667,6.667,0,0,0-1.89,2,26.22,26.22,0,0,1-2-1.94,5.571,5.571,0,0,1,2.49-2.2c-.26-.44-.51-.9-.75-1.36-1.32.35-2.22,1.6-2.89,2.34-.6-.69-1.18-1.4-1.73-2.14,1-.66,1.83-2.3,3.64-2.37q.22.56.48,1.12a1,1,0,0,0,1,.59A10,10,0,0,0,42.39,75c-1.3-2.36-1.69-3.57-1.69-4.81,0-3.13,4.45-5.76,4.45-8.8s-1.53-4.78-1.53-8.07a12.268,12.268,0,0,1,3.09-7.69,6.459,6.459,0,0,0-1.18.95,11,11,0,0,0-3.14,7.29c0,3.5,1.31,4.94,1.31,7.53,0,2.39-5.06,5.71-4.49,9a8.615,8.615,0,0,1-5.72,2.33q.24,1,.56,2c-2.08.11-3,1.88-4.13,2.47-.54-.82-1-1.65-1.52-2.51,1.85-.19,2.41-2.57,5-2.39-.14-.63-.25-1.26-.34-1.91-3-.2-3.65,2.31-5.6,2.41-.41-.88-.79-1.79-1.13-2.71,2.72.13,3.65-2.51,6.5-2.48V65.37c-3.35-.08-4.37,2.8-7.26,2.51q-.4-1.369-.69-2.78c3.66.46,5-2.62,8.27-2.62a24.4,24.4,0,0,1,.58-2.59c-4-.17-5.38,3.3-9.27,2.65-.1-.8-.17-1.62-.22-2.44,4.52.51,6.22-3.21,10.34-2.76a24.4,24.4,0,0,1,1.35-2.85c-5.16-.91-6.92,3.41-11.72,2.75a34.39,34.39,0,0,1,68.75,0c-4.81.66-6.56-3.66-11.73-2.75a24.084,24.084,0,0,1,1.35,2.85c4.12-.46,5.82,3.26,10.34,2.76M58.58,53.6c-.42,0-.51-.16-.79-.16a1.409,1.409,0,0,0-.91.42.428.428,0,0,0,.11.27c.61.09.88.43,1.59.43s1-.34,1.59-.43a.449.449,0,0,0,.12-.27,1.421,1.421,0,0,0-.91-.42c-.28,0-.38.16-.8.16m-2.5,2.13a.39.39,0,0,0-.23.22c.72.56,1.22,1.82,2.73,1.82s2-1.26,2.73-1.82a.4.4,0,0,0-.23-.22,14.141,14.141,0,0,1-5,0m6-17a20.252,20.252,0,0,0-6.92,0c-.17,0-.24-.14-.11-.24l3.56-2.71,3.56,2.71c.13.1.07.27-.11.24"/><path class="e" d="M80.32,91h.53c.45,0,.89,0,.89-.56s-.4-.51-.75-.51h-.67Zm-.51-1.49h1.26c.79,0,1.16.32,1.16,1a.86.86,0,0,1-.808.909c-.024,0-.048,0-.072,0l1,1.47H81.8l-.91-1.43h-.54v1.43h-.51Zm1.09,4.11a2.44,2.44,0,1,0-2.348-2.528c0,.029,0,.059,0,.088a2.37,2.37,0,0,0,2.3,2.439H80.9m0-5.3a2.86,2.86,0,1,1-2.86,2.86v-.01a2.84,2.84,0,0,1,2.83-2.85h.03"/></g></g><g transform="translate(55.61 245.91)"><path class="f" d="M115.85,27.32a3.41,3.41,0,0,0-2.32-.79c-1.48,0-2.88.84-2.88,2.45,0,2.52,3.54,1.77,3.54,3.16,0,.54-.61.79-1.15.79a1.851,1.851,0,0,1-1.45-.72l-1.2,1.31a3.581,3.581,0,0,0,2.54.95c1.56,0,2.91-.8,2.91-2.49,0-2.65-3.48-1.76-3.48-3.14,0-.57.65-.78,1.12-.78a1.612,1.612,0,0,1,1.2.5Zm4.68,7h1.66V28.2h2.2V26.73h-6V28.2h2.16Zm5.08,0h1.78l.63-1.6h2.93l.65,1.6h1.88l-3.29-7.55h-1.37Zm4.83-3h-1.85l.92-2.35Zm5.74,3h1.66v-3h.82l1.58,3h2l-1.92-3.19A1.94,1.94,0,0,0,141.94,29c0-1.76-1.3-2.29-2.85-2.29h-2.92Zm1.66-6.15h1.09c.61,0,1.29.12,1.29.87s-.79.84-1.4.84h-1ZM145,34.32h3.09c1.34,0,2.84-.52,2.84-2.1a1.81,1.81,0,0,0-1.65-1.85h0a1.7,1.7,0,0,0,1.3-1.67c0-1.64-1.44-1.92-2.76-1.92h-2.83Zm1.66-6.15h1.13c.52,0,1.12.16,1.12.79s-.53.82-1,.82H146.7Zm0,3h1.26c.54,0,1.34.12,1.34.83s-.59.89-1.11.89h-1.5Zm13.49-4.43h-1.66V31.3a1.53,1.53,0,1,1-3,0V26.73h-1.66v4.64a3.19,3.19,0,0,0,6.37,0Zm9.6.92a3.251,3.251,0,0,0-2.55-1.11,3.831,3.831,0,0,0-4.076,3.567,3.915,3.915,0,0,0,0,.433,3.824,3.824,0,0,0,4.08,4,3.291,3.291,0,0,0,2.73-1.31l-1.39-1a1.809,1.809,0,0,1-1.56.81,2.24,2.24,0,0,1-2.136-2.339c0-.031,0-.061.006-.091a2.249,2.249,0,0,1,2.062-2.423c.043,0,.085-.006.128-.007a1.781,1.781,0,0,1,1.43.62Zm2.93,6.64h1.71V30.7l3,3.58h2.33l-3.65-4,3.36-3.51h-2.18l-2.86,3.09V26.73h-1.66Zm14.51-7a3.41,3.41,0,0,0-2.32-.79c-1.48,0-2.88.84-2.88,2.45,0,2.52,3.54,1.77,3.54,3.16,0,.54-.61.79-1.15.79a1.851,1.851,0,0,1-1.45-.72l-1.18,1.3a3.587,3.587,0,0,0,2.54.95c1.56,0,2.91-.8,2.91-2.49,0-2.65-3.48-1.76-3.48-3.14,0-.57.65-.78,1.12-.78a1.609,1.609,0,0,1,1.21.5Z"/><path class="f" d="M119.18,46.35a2.83,2.83,0,0,0-2.27-1,3.57,3.57,0,0,0-3.48,3.658c0,.064,0,.128.01.192a3.571,3.571,0,0,0,3.264,3.852l.126.008a2.888,2.888,0,0,0,2.47-1.29l2.2,1.64a5.24,5.24,0,0,1-4.33,2.08c-3.74,0-6.46-2.45-6.46-6.29s2.72-6.3,6.46-6.3a5.14,5.14,0,0,1,4,1.76Z"/><path class="f" d="M130.27,42.93c3.74,0,6.46,2.45,6.46,6.3s-2.73,6.29-6.46,6.29-6.46-2.45-6.46-6.29,2.73-6.3,6.46-6.3m0,10.16A3.61,3.61,0,0,0,134,49.6a3.528,3.528,0,0,0-.007-.371,3.72,3.72,0,1,0-7.44,0,3.621,3.621,0,0,0,3.37,3.854c.117.007.233.009.35.006"/></g><path class="f" d="M140.15,43.25h2.64v9.54h4.89v2.43h-7.53Z" transform="translate(55.61 245.91)"/><path class="f" d="M150.82,43.25h2.65v9.54h4.9v2.43h-7.55Z" transform="translate(55.61 245.91)"/><path class="f" d="M161.53,43.25h8.14v2.43h-5.5v2.23h5.19v2.44h-5.19v2.44h5.8v2.43h-8.44Z" transform="translate(55.61 245.91)"/><g transform="translate(55.61 245.91)"><path class="f" d="M184.53,54.37a10.765,10.765,0,0,1-5,1.15c-3.75,0-6.47-2.45-6.47-6.29s2.73-6.3,6.47-6.3a6.788,6.788,0,0,1,4.77,1.54l-1.87,2a3.721,3.721,0,0,0-2.91-1.12,3.86,3.86,0,1,0,0,7.72,5.183,5.183,0,0,0,2.48-.59v-2h-2.14V48.11h4.68Z"/></g><path class="f" d="M188.46,43.25h8.13v2.43H191.1v2.23h5.2v2.44h-5.2v2.44h5.81v2.43h-8.45Z" transform="translate(55.61 245.91)"/><path class="f" d="M115.28,60.41h2.19l5.2,12h-3l-1-2.54h-4.65l-1,2.54h-2.9Zm1,3.49-1.47,3.73h2.93Z" transform="translate(55.61 245.91)"/><g transform="translate(55.61 245.91)"><path class="f" d="M132.64,63.53a2.8,2.8,0,0,0-2.26-1,3.89,3.89,0,0,0-.09,7.72A2.888,2.888,0,0,0,132.77,69l2.19,1.64a5.231,5.231,0,0,1-4.34,2.08c-3.73,0-6.45-2.45-6.45-6.29a6.066,6.066,0,0,1,6.45-6.3,5.171,5.171,0,0,1,4.05,1.77Z"/></g><path class="f" d="M137.83,60.42h2.64v4.45h5.12V60.42h2.65V72.4h-2.65V67.22h-5.12V72.4h-2.64Z" transform="translate(55.61 245.91)"/><rect class="f" width="2.63" height="11.98" transform="translate(207.85 306.33)"/><path class="f" d="M158.99,60.42h8.14v2.43h-5.5v2.23h5.19v2.44h-5.19v2.44h5.8V72.4h-8.44Z" transform="translate(55.61 245.91)"/><path class="f" d="M169.97,60.42h3l2.97,7.85h.03l3.01-7.85h2.82L176.87,72.4h-2.12Z" transform="translate(55.61 245.91)"/><path class="f" d="M184.76,60.42h8.14v2.43h-5.5v2.23h5.19v2.44H187.4v2.44h5.8V72.4h-8.44Z" transform="translate(55.61 245.91)"/><path class="f" d="M196.92,60.42h4l2.75,7.82h.03l2.78-7.82h3.98V72.4h-2.65V63.21h-.03l-3.15,9.19h-2.02l-3.01-9.19h-.03V72.4h-2.65Z" transform="translate(55.61 245.91)"/><path class="f" d="M214.59,60.42h8.14v2.43h-5.5v2.23h5.19v2.44h-5.19v2.44h5.8V72.4h-8.44Z" transform="translate(55.61 245.91)"/><path class="f" d="M226.74,60.42h3.6l5.09,8.33h.03V60.42h2.64V72.4h-3.46l-5.22-8.53h-.03V72.4h-2.65Z" transform="translate(55.61 245.91)"/><path class="f" d="M241.04,60.42v2.33h3.41V72.4h2.65V62.75h3.41V60.42Z" transform="translate(55.61 245.91)"/><g transform="translate(55.61 245.91)"><path class="f" d="M111.39,77.59h4.45c2.48,0,4.54.79,4.54,3.63s-1.91,3.68-4.43,3.68h-1.94v4.67h-2.62Zm2.63,5.07h1.77c.93,0,1.85-.32,1.85-1.44s-1.24-1.4-2.26-1.4h-1.36Z"/></g><path class="f" d="M123.71,77.6h2.64v9.53h4.9v2.45h-7.54Z" transform="translate(55.61 245.91)"/><path class="f" d="M147.55,77.6h3.59l5.09,8.32h.04V77.6h2.64V89.58h-3.45l-5.23-8.54h-.03v8.54h-2.65Z" transform="translate(55.61 245.91)"/><path class="f" d="M138.39,77.59h2.17l5.22,12h-3l-1-2.54h-4.65l-1,2.54h-2.91Zm1,3.48-1.46,3.73h2.92Z" transform="translate(55.61 245.91)"/><path class="g" d="M425.16,76.87s-.65-.73-1.74-1.9a4.441,4.441,0,0,1-1.27-3V37.38h-13.1V65.07c-.16,2.62-2.72,3.29-4.14,3.24a3,3,0,0,1-3.207-2.778,3.039,3.039,0,0,1,0-.382V37.39H379.95c-7,0-13.58,1.07-15.81,6.89l-1.32-5.15a2.68,2.68,0,0,0-2.52-1.75H337.5c-.33,0-.46.11-.29.34,0,0,.62.59,1.75,1.88a5,5,0,0,1,1,4.16L331.55,77.2h12.16l1.75-7.34H357.2l1.83,7.34h16c6.57,0,11.92-.67,14.55-4.77,2,3.74,6.21,5.5,13.7,4.85,2.61-.22,5.16-1.44,6.25-3.38l.52,1.61a2.74,2.74,0,0,0,2.6,1.69h12.24C425.23,77.21,425.33,77.11,425.16,76.87ZM347.29,62.61l4-16.35,4.1,16.35Z" transform="translate(55.61 245.91)"/><path class="h" d="M361.3,44.55a.18.18,0,0,0-.06.16.291.291,0,0,0,0,.11l2.28,2.13h.05v-.09c.05-.34.12-.69.19-1h0l-2.2-1.35A.26.26,0,0,0,361.3,44.55Z" transform="translate(55.61 245.91)"/><path class="h" d="M359.11,47.67l4.39,2.87h.06V50.5c0-.46-.06-.93-.06-1.41V49h0l-4.11-1.7a.269.269,0,0,0-.3.1A.2.2,0,0,0,359.11,47.67Z" transform="translate(55.61 245.91)"/><path class="h" d="M357.52,50.82l6.87,3h.09v-.08a9.485,9.485,0,0,1-.67-2h0l-6.12-1.34a.251.251,0,0,0-.25.15A.278.278,0,0,0,357.52,50.82Z" transform="translate(55.61 245.91)"/><path class="h" d="M381.75,66c0-2.85-3.18-4-6.88-5.22s-8.12-2.8-10.16-6.55h0l-8-.51s-.21,0-.22.19a.231.231,0,0,0,.14.25l8.07,2.08a.069.069,0,0,1,.07.07c0,.07-.1.07-.1.07l-8.34.78a.23.23,0,0,0-.18.22.249.249,0,0,0,.18.22l8.34.78a.091.091,0,0,1,.08.06.1.1,0,0,1-.07.09l-8,2.07a.22.22,0,0,0-.14.25.249.249,0,0,0,.21.19l8.35-.53c.05,0,.09,0,.1.06a.07.07,0,0,1-.047.087l-.013,0L357.52,64a.241.241,0,0,0-.1.28c.05.15.26.14.26.14l8.1-1.82a.1.1,0,0,1,.13,0v.09l-6.76,4.42a.231.231,0,0,0,0,.28c.07.14.28.11.28.11l7.63-3.06a.089.089,0,0,1,.12,0,.07.07,0,0,1,.012.1l-.012.012-5.8,5.4a.211.211,0,0,0,0,.29.291.291,0,0,0,.3.05l6.92-4.2a.08.08,0,0,1,.113-.007l.007.007a.061.061,0,0,1,.031.079.059.059,0,0,1-.031.031l-4.67,6.23a.211.211,0,0,0,.07.27.289.289,0,0,0,.3,0l6-5.22a.089.089,0,0,1,.12,0c.07.05,0,.11,0,.11l-3.39,6.87a.23.23,0,0,0,.13.25.258.258,0,0,0,.3,0l5-6.12a16.637,16.637,0,0,0,2.72.81,7.639,7.639,0,0,0,5.53-1.4A2.608,2.608,0,0,0,381.75,66Z" transform="translate(55.61 245.91)"/><path class="h" d="M392.65,72.45l-1.87-2.51c-.14.47-.41,1.13-.41,1.13l1.92,1.66a.308.308,0,0,0,.3,0A.229.229,0,0,0,392.65,72.45Z" transform="translate(55.61 245.91)"/><path class="h" d="M395.33,70l-3.94-3.69a13.848,13.848,0,0,1-.18,1.69l3.78,2.3a.27.27,0,0,0,.32,0A.22.22,0,0,0,395.33,70Z" transform="translate(55.61 245.91)"/><path class="h" d="M397.51,67.13l-6.21-4.06a13.178,13.178,0,0,1,.13,2.11l5.82,2.33a.289.289,0,0,0,.29-.1A.24.24,0,0,0,397.51,67.13Z" transform="translate(55.61 245.91)"/><path class="h" d="M400.53,57.41a.221.221,0,0,0-.07-.15.39.39,0,0,0-.16-.07l-8.28-.78h0a.07.07,0,0,1-.07-.06V56.3h0l8-2.08a.393.393,0,0,0,.11-.08.227.227,0,0,0,0-.17.26.26,0,0,0-.27-.19l-8.3.53h0a.091.091,0,0,1-.1,0v-.05h0l7.53-3.3a.453.453,0,0,0,.09-.11.2.2,0,0,0,0-.17.26.26,0,0,0-.26-.14l-8.12,1.83h0a.08.08,0,0,1-.11,0,.211.211,0,0,1,0-.05h0l6.74-4.42a.246.246,0,0,0,.11-.13.274.274,0,0,0,0-.17.271.271,0,0,0-.32-.08l-7.62,3.05h0a.08.08,0,0,1-.11,0v-.05h0l5.79-5.39a.22.22,0,0,0,.08-.15.207.207,0,0,0-.06-.17.279.279,0,0,0-.33,0l-6.91,4.2h0a.08.08,0,0,1-.113.007l-.007-.007h0s4.42-5.86,4.64-6.2a.3.3,0,0,0,.07-.17.258.258,0,0,0-.42-.16l-6,5.21h-.12v-.05h0l3.4-6.87a.23.23,0,0,0-.11-.3.262.262,0,0,0-.3,0l-5,6.21a14.854,14.854,0,0,0-4.87-1.08c-2.2,0-3.83.38-4.73,1.25a2.619,2.619,0,0,0-.78,2,3.321,3.321,0,0,0,1.91,2.78,27.025,27.025,0,0,0,4.49,2,32.353,32.353,0,0,1,6.84,3.24c4,2.74,4.29,6.18,4.29,6.18h0l7.69,1.74a.28.28,0,0,0,.26-.15.2.2,0,0,0,0-.16.389.389,0,0,0-.1-.11l-7.5-3.3h0a.122.122,0,0,1,0-.06.091.091,0,0,1,.1,0h0l8.33.53a.261.261,0,0,0,.23-.19.244.244,0,0,0,0-.16.476.476,0,0,0-.11-.09l-8-2.07h0c0-.05,0-.09.08-.08h0l8.3-.79a.313.313,0,0,0,.14-.06.345.345,0,0,0,.03-.69Z" transform="translate(55.61 245.91)"/><path class="g" d="M444.24,37.38l6.3,17.11h-4.56l-.85-2.74h-6.3l-.85,2.74h-4.59l6.35-17.11Zm-2.3,4.07c-.22.87-.46,1.77-.7,2.64-.36,1.28-1,3.3-1.41,4.58h4.34Z" transform="translate(55.61 245.91)"/><path class="g" d="M455.13,43.15a5.859,5.859,0,0,1,3.66-1.45V45l-1.24.19c-1.79.32-2.33.58-2.33,2.18v7.12h-3.73V41.82h3.63Z" transform="translate(55.61 245.91)"/><path class="g" d="M460.07,37.36h3.68v2.88h-3.68Zm0,4.46h3.68V54.49h-3.68Z" transform="translate(55.61 245.91)"/><path class="g" d="M466.03,41.84h10.83V44.7l-6.74,6.88h6.74v2.91H465.3V51.68l6.83-7h-6.11Z" transform="translate(55.61 245.91)"/><path class="g" d="M491.14,48.14c0,3.2-1.84,6.71-6.78,6.71-3.56,0-6.81-2-6.81-6.71,0-3.88,2.45-7,7.29-6.69C490,41.75,491.14,45.84,491.14,48.14Zm-9.21-2.5a4.594,4.594,0,0,0-.63,2.47c0,2,1,3.78,3.05,3.78s3-1.62,3-3.61a4.281,4.281,0,0,0-1-3.17,2.7,2.7,0,0,0-2.18-.7,2.519,2.519,0,0,0-2.24,1.24Z" transform="translate(55.61 245.91)"/><path class="g" d="M496.15,43a3.638,3.638,0,0,1,1.24-1,6.152,6.152,0,0,1,2.3-.46,4.81,4.81,0,0,1,2.25.51c1.33.7,1.67,1.84,1.67,3.8V54.5H499.9V47.37a5.069,5.069,0,0,0-.17-1.89,1.7,1.7,0,0,0-1.67-1c-2,0-2,1.58-2,3.15v6.83h-3.67V41.87h3.76Z" transform="translate(55.61 245.91)"/><path class="g" d="M505.48,45.43a3.521,3.521,0,0,1,1.33-2.81,6.5,6.5,0,0,1,4.14-1.11c1.55,0,5.31.36,5.31,3.63v7.37c0,1.36.07,1.55.36,2h-3.66V53.33a6,6,0,0,1-3.88,1.5,3.84,3.84,0,0,1-4.119-3.539c-.007-.1-.011-.194-.011-.291a4.09,4.09,0,0,1,2.67-3.63,32.462,32.462,0,0,1,5-1.16V45.5c0-.58-.1-1.55-1.43-1.55a1.75,1.75,0,0,0-2,1.48Zm4.73,3.8c-.63.24-1.6.61-1.6,1.57a1.35,1.35,0,0,0,1.41,1.28,2.436,2.436,0,0,0,1.28-.41c1.24-.78,1.28-1.94,1.31-3.25Z" transform="translate(55.61 245.91)"/><path class="g" d="M524.53,49.35a5.384,5.384,0,0,0,1.65,1.33,7,7,0,0,0,3.3.82c1.7,0,3.15-.8,3.15-2,0-1.36-1.72-1.57-3-1.74-.95-.12-1.89-.24-2.81-.44s-4.6-1-4.6-4.65c0-4.41,3.93-5.72,6.88-5.72a10.427,10.427,0,0,1,7.56,3.25l-3.15,2.25a7.845,7.845,0,0,0-1.7-1.38,6.151,6.151,0,0,0-2.79-.75c-1.7,0-2.54,1-2.54,1.79,0,1.31,1.45,1.5,2.18,1.6a33.448,33.448,0,0,1,5.23,1,4.24,4.24,0,0,1,3,4.19,5.7,5.7,0,0,1-1.36,3.63c-1.55,1.79-4,2.3-6.42,2.3-4.82,0-6.74-2.23-7.8-3.46Z" transform="translate(55.61 245.91)"/><path class="g" d="M538.7,38.18h3.69v3.95h2.45v2.28h-2.45V50.1c0,.78,0,1.43,1,1.43h1.33V54.4a11.871,11.871,0,0,1-2,.19c-1.28,0-2.69-.07-3.49-1.24a4.893,4.893,0,0,1-.53-2.86v-6.1h-1.84V42.11h1.84Z" transform="translate(55.61 245.91)"/><path class="g" d="M546,45.43a3.521,3.521,0,0,1,1.33-2.81,6.5,6.5,0,0,1,4.14-1.11c1.55,0,5.31.36,5.31,3.63v7.37c0,1.36.07,1.55.36,2h-3.65V53.33a6,6,0,0,1-3.88,1.5,3.839,3.839,0,0,1-4.128-3.528c-.008-.1-.012-.2-.012-.3a4.091,4.091,0,0,1,2.67-3.63,32.461,32.461,0,0,1,5-1.16V45.5c0-.58-.1-1.55-1.43-1.55a1.75,1.75,0,0,0-2,1.48Zm4.72,3.8c-.63.24-1.6.61-1.6,1.57a1.35,1.35,0,0,0,1.41,1.28,2.436,2.436,0,0,0,1.28-.41c1.24-.78,1.28-1.94,1.31-3.25Z" transform="translate(55.61 245.91)"/><path class="g" d="M559.39,38.18h3.71v3.95h2.45v2.28h-2.47V50.1c0,.78,0,1.43,1,1.43h1.33V54.4a11.871,11.871,0,0,1-2,.19c-1.28,0-2.69-.07-3.49-1.24a4.892,4.892,0,0,1-.53-2.86v-6.1h-1.84V42.11h1.84Z" transform="translate(55.61 245.91)"/><path class="g" d="M578.71,51.27a9.867,9.867,0,0,1-1.53,1.89A7,7,0,0,1,572.39,55c-3.76,0-6.4-2.4-6.4-6.54,0-3.05,1.5-7,6.49-7a6.142,6.142,0,0,1,4.56,1.82c1.65,1.77,1.74,4.24,1.79,5.67h-9a2.849,2.849,0,0,0,2.534,3.134,2.663,2.663,0,0,0,.346.016,3.35,3.35,0,0,0,3.2-2.23ZM575,46.59a3,3,0,0,0-.7-1.79,2.628,2.628,0,0,0-1.82-.7,2.57,2.57,0,0,0-1.89.82,3.309,3.309,0,0,0-.75,1.67Z" transform="translate(55.61 245.91)"/><path class="g" d="M448.6,60.1v9.55a9,9,0,0,1-1,4.85c-1.84,3-5.65,3.1-6.37,3.1a9.1,9.1,0,0,1-4-.92c-3.3-1.7-3.3-4.7-3.27-7V60.1h4.31V70.77a4.612,4.612,0,0,0,.31,2.13,3.089,3.089,0,0,0,2.81,1.16c2.91,0,2.91-2,2.93-3.32V60.1Z" transform="translate(55.61 245.91)"/><path class="g" d="M454.3,65.7a3.641,3.641,0,0,1,1.26-1,6.152,6.152,0,0,1,2.3-.46,4.813,4.813,0,0,1,2.25.51c1.33.7,1.67,1.84,1.67,3.8V77.2h-3.71V70.09a5.069,5.069,0,0,0-.17-1.89,1.7,1.7,0,0,0-1.67-1c-2,0-2,1.58-2,3.15v6.83H450.5V64.59h3.76Z" transform="translate(55.61 245.91)"/><path class="g" d="M463.72,60.08h3.67V63h-3.68Zm0,4.46h3.67V77.21h-3.68Z" transform="translate(55.61 245.91)"/><path class="g" d="M468.5,64.56h3.89a78.483,78.483,0,0,1,2.23,9.21c.51-2.81.58-3.13,1.33-6.11l.78-3.1h3.83l-4.1,12.65h-3.9Z" transform="translate(55.61 245.91)"/><path class="g" d="M493.24,74a9.836,9.836,0,0,1-1.53,1.89,7,7,0,0,1-4.77,1.79c-3.76,0-6.4-2.4-6.4-6.54,0-3.05,1.5-7,6.49-7A6.142,6.142,0,0,1,491.59,66c1.65,1.77,1.74,4.24,1.79,5.67h-9a2.849,2.849,0,0,0,2.534,3.134,2.664,2.664,0,0,0,.346.016,3.35,3.35,0,0,0,3.2-2.23Zm-3.71-4.68a3.005,3.005,0,0,0-.7-1.79,2.633,2.633,0,0,0-1.82-.7,2.57,2.57,0,0,0-1.89.82,3.31,3.31,0,0,0-.75,1.67Z" transform="translate(55.61 245.91)"/><path class="g" d="M498.52,65.87a5.859,5.859,0,0,1,3.66-1.45v3.3l-1.24.19c-1.79.32-2.33.58-2.33,2.18v7.12h-3.72V64.54h3.63Z" transform="translate(55.61 245.91)"/><path class="g" d="M504.39,72.95a5.4,5.4,0,0,0,3.68,1.74c.9,0,2.25-.29,2.25-1.24a.77.77,0,0,0-.48-.73,8.084,8.084,0,0,0-2.16-.48,14.134,14.134,0,0,1-1.7-.39,4.757,4.757,0,0,1-2.11-1.09,3.41,3.41,0,0,1-.94-2.37c0-2.08,1.79-4.24,5.33-4.24a9.272,9.272,0,0,1,5.7,1.85l-2.3,2.13a5.3,5.3,0,0,0-3.17-1.26c-1.45,0-1.79.58-1.79.95,0,.73.8.87,2,1.09,2.54.46,5.5,1.14,5.5,4.14s-3,4.43-6,4.43a8.333,8.333,0,0,1-6.13-2.45Z" transform="translate(55.61 245.91)"/><path class="g" d="M515.39,60.08h3.68V63h-3.68Zm0,4.46h3.68V77.21h-3.68Z" transform="translate(55.61 245.91)"/><path class="g" d="M522.2,60.9h3.71v3.95h2.48v2.28h-2.47v5.69c0,.78,0,1.43,1,1.43h1.33v2.91a11.871,11.871,0,0,1-2,.19c-1.28,0-2.69-.07-3.49-1.24a4.9,4.9,0,0,1-.53-2.86V67.11h-1.84V64.83h1.84Z" transform="translate(55.61 245.91)"/><path class="g" d="M541.39,64.56l-4.46,13.67a6.33,6.33,0,0,1-1.19,2.3,3.239,3.239,0,0,1-2.69,1h-2.69v-3h1.31c.61,0,1.55,0,1.55-.92a3.491,3.491,0,0,0-.17-.9L529.27,64.5h4l2.08,9.06,2.04-9Z" transform="translate(55.61 245.91)"/></g></svg>